<svg version="1.2" xmlns="http://www.w3.org/2000/svg" viewBox="0 0 67 41" width="67" height="41"><style>.a{fill:#010101}</style><path class="a" d="m55.7 40.1c-4.5-4.5-8.1-11.2-5.4-17.5 0.6-1.6 1.6-3 3.1-3.9 1.7-1 3.7-0.9 5.6-0.6 2.2 0.4 8.5 1.7 7 5.3-1.1 2.6-5.9 2.8-8.3 2.9-3.1 0.1-6.1-0.4-9-1.5-2.9-1-5.9-2.6-7.9-5-2.1-2.6-2.1-5.7-0.3-8.5 1.7-2.7 4.1-3.9 7.1-4.3 2.2-0.2 4.6 0 6.3 1.3 1.9 1.5 1.6 3.4 0.2 5.3-1.8 2.3-4.6 3.7-7.4 4.4-5.5 1.4-11.4 0.8-16.5-1.4-2.7-1.1-5.1-2.7-7.2-4.6-2.3-2-5.4-5.2-4.2-8.6 1.4-3.7 6.6-4.2 8.6-0.8 2.3 3.8-1.1 7.7-4.2 9.5-6.8 3.8-15 4.2-22.6 3.9-0.2 0-0.3 0.3 0 0.3 7.9 0.4 17 0 23.8-4.6 2.6-1.7 4.7-4.8 3.9-8-0.8-2.7-3.8-4.4-6.5-3.6-2.6 0.8-4.2 3.8-3.4 6.5 1 3.1 4.1 5.7 6.7 7.5 5.4 3.9 12.3 5.7 19 4.8 3.2-0.5 6.5-1.5 8.9-3.7 1.6-1.4 3.5-3.8 2.3-5.9-2.4-4-9.9-3.2-13-0.6-2.1 1.7-3.9 4.7-3.5 7.6 0.5 3.3 3.5 5.8 6.3 7.3 3.2 1.7 6.7 2.8 10.4 3 2.9 0.2 7 0.1 9.5-1.6 2.5-1.7 1.6-4.3-0.7-5.6-1.4-0.8-3-1.2-4.6-1.5-1.8-0.4-3.6-0.6-5.3 0-3.2 1.1-4.9 4.6-5.3 7.8-0.4 3.6 0.7 7.2 2.7 10.2 1 1.6 2.3 3.1 3.6 4.4 0.2 0.2 0.4-0.1 0.3-0.2z"/></svg>