<svg version="1.2" xmlns="http://www.w3.org/2000/svg" viewBox="0 0 735 177" width="735" height="177"><style>tspan{white-space:pre}.a{fill:#759b9a}.b{font-size: 60px;line-height: 79px;text-transform: uppercase;fill: #221f20;font-weight: bold;font-family: "Montserrat Roman"}.c{font-size: 45px;line-height: 59px;fill: #221f20;font-weight: 400;font-style: italic;font-family: "PlayfairDisplay-Italic", "Playfair Display"}.d{font-size: 45px;line-height: 59px;fill: #221f20;font-weight: 700;font-style: italic;font-family: "PlayfairDisplay-BoldItalic", "Playfair Display"}.e{fill:#efc345}</style><g style="opacity:.74"><path fill-rule="evenodd" class="a" d="m401.4 30.2q0 0-0.1 0.1 0 0 0 0c0 0 0.1-0.1 0.1-0.1q-0.1-0.2-0.2-0.3 0-0.2-0.1-0.4 0-0.1 0.1-0.2c0.3 0.1 0.5 1 0.8 0 0.1-0.1 0.4-0.1 0.2-0.4-0.3-0.6-0.8-0.6-1.2-0.9-0.5-0.2-1 0-1.3-0.9 0.1-0.3 0.1-0.6 0.3-0.8q0.1 0.1 0.2 0.1c0.1 0 0.3-0.1 0.4-0.4q-0.3-0.1-0.6-0.3c-0.1-0.2-0.3-0.3-0.4-0.3q-0.2-0.3-0.4-0.7c0.4 0 0.8 0 1.3 0-0.4-0.6-0.8-1.2-1.1-1.1-0.5 0.2-0.7-0.7-1.1-0.6q-0.1 0.1-0.2 0.1 0-0.1-0.1-0.3c-0.2-0.4-0.2-0.7 0.2-0.6q0.2 0 0.4 0 0.3 0.3 0.7 0.6c0.7 0.4 1.4 1.1 2.2 1.3-0.3-0.9-0.9-0.8-1.1-1.5-0.2-0.6-0.6-0.7-1-0.8-0.2-0.4-0.5-0.5-0.8-0.6-0.2-0.4-0.4-0.3-0.6-0.3 0.5-0.6 1.1-0.2 1.6-0.4q0 0 0 0c0.3-0.2 0.2-0.5 0-0.7q-0.1 0.2-0.1 0.3c0.1-0.1 0.1-0.2 0.1-0.3q-0.9-0.5-1.7-1.1-0.2-0.2-0.4-0.4c0.1-0.9-0.2-1.5-0.8-1.6-0.2-0.2-0.5-0.4-0.8-0.3q-0.3-0.2-0.6-0.4c0.5-0.8 0.5-0.8 0-1.3v0.1q0 0 0 0 0 0 0-0.1c0.1-0.3 0.1-0.5-0.2-0.6-0.6-0.3-1.3-0.7-2-0.6-0.1-0.1-0.3-0.1-0.4-0.4q-0.1-0.2-0.3-0.3c-1.3-0.4-2.6-0.6-3.9-0.6-0.6 0-1.1-0.6-1.7-0.2q0.1 0.2 0.2 0.5-0.2 0-0.4 0-0.2 0-0.4 0c-0.4 0.2-0.8 0.3-1.2 0-0.2-0.4-0.5-0.4-0.8-0.3-0.1-0.1-0.4 0.1-0.3-0.2 0-0.3 0.2-0.1 0.3-0.2q0.3 0 0.6 0.1c0.2 0 0.3-0.1 0.4-0.4 0.2 0.1 0.4 0.4 0.5-0.1 0.1-0.5-0.1-0.5-0.3-0.5-0.2 0-0.3 0-0.4 0-1.2-0.1-1.5-0.5-1.8-2.3-0.2-0.6-0.4-1.1-0.9-1-0.2 0.1-0.4-0.2-0.5-0.6-0.2-0.2-0.4 0-0.6 0.1 0.2-0.1 0.4 0 0.6-0.1q0-0.1 0-0.3c0.2 0 0.5 0 0.9 0-0.4-0.4-0.6-0.6-0.9-0.6q0 0.1 0 0.2c0-0.1 0-0.1 0-0.2-0.4-0.5-0.9-0.9-1.2-1.6q-0.2-0.2-0.4-0.4-0.1 0-0.2 0.1-0.2 0-0.4 0-0.2 0-0.2 0.2-0.1 0-0.2 0 0-0.3 0-0.6c0.1-0.8-0.4-0.7-0.6-1-0.2 0.1-0.3-0.2-0.4 0-0.4 0.6-0.9 0.2-1.3 0.4-0.5-0.8-1-0.1-1.6 0.2q0-0.1 0-0.2 0.1-0.2 0.2-0.4-0.2-0.2-0.4 0-0.2 0-0.4 0c-0.1-0.2-0.2-0.3-0.4-0.3q-0.1-0.1-0.2-0.3c0-0.1-0.1-0.2-0.2-0.3-0.1-0.6-0.3-0.9-0.6-0.6-0.3 0.4-0.8-0.2-1 0.4-0.4-0.7-1-0.3-1.5-0.7-0.4-0.3-0.8-0.1-1.1 0.6-0.3-0.4-0.7-0.8-0.9-0.5-0.6 1.1-1.2-0.3-1.8 0.2-0.3-0.6-0.6-0.1-1-0.1-0.2-0.1-0.4 0.1-0.6-0.3q-0.8 0.1-1.6 0.1c-0.4-0.1-0.8-0.3-1.2 0q-0.3 0-0.6-0.1c-0.5-0.1-1.1-0.2-1.6 0q-0.1 0-0.2 0-0.2-0.2-0.4-0.1-0.3 0.1-0.6 0.2c-1.1-0.5-2.2-0.2-3.3-0.1-0.6-0.4-1.3-0.2-1.9-0.2q-2.5 0.2-4.9 0.2c-0.4-0.3-0.8 0-1.2 0.1q0 0 0 0 0 0 0 0c-0.2-0.1-0.3-0.1-0.4-0.1-0.5-0.1-1-0.1-1.5 0-0.6 0-1.3-0.3-2 0q-0.1 0-0.2 0-0.1 0.2-0.2 0.3c-0.1 0.6-0.3 1-0.5 0.3-0.2-0.6-0.3-1-0.7-0.6-0.5-0.2-0.9-0.4-1.4 0-0.2-0.1-0.4-0.4-0.6-0.3-0.6 0-1.2-0.2-1.7 0-0.6 0.2-1.1 0.5-1.6 0.5-0.2 0-0.3 0.2-0.4 0.3q-0.1-0.1-0.3-0.2c-0.1-0.1-0.1-0.3-0.3-0.3q-0.2 0.2-0.4 0.3 0-0.1-0.1 0c-0.1-0.1-0.2-0.1-0.3-0.1-0.3 0-0.5 0.2-0.7 0.2-1.1-0.1-2.1-0.2-3 0.8-0.1-0.2-0.1-0.7-0.1-0.7-0.6 0-0.9-0.9-1.4-0.8q0-0.1-0.1-0.1 0 0-0.1 0.1c-0.5 0.1-1-0.1-1.2 1 0 0.3-0.2 0.2-0.4 0.2 0.4-0.9-0.1-1-0.5-1-0.9 0.1-1.8-0.4-2.8-0.1-0.7 0.1-1.5-0.2-2.2 0.2-0.4 0.2-0.8-0.3-1.2-0.3 0-0.3 0-0.8-0.4-0.3q-0.2 0.3-0.4 0.6c-0.2 0.2-0.2 0.7-0.5 0.3-0.2-0.3-0.4-0.5-0.6-0.5-0.2 0.1-0.3 0.2-0.1 0.6-0.2 0.4-0.4 0.3-0.6 0.2q0 0 0 0c-0.1-1-0.2-1-0.8-0.9-0.5 0.2-0.9 0.5-1.2 1-0.3 0-0.4-0.5-0.6-0.4-0.2-0.2-0.4-0.1-0.6-0.2q-0.2 0-0.5 0c-0.5-0.1-1.1 0.8-1.5-0.3 0-0.2-0.2 0.2-0.3 0.4q0 0.1 0 0.1v-0.1c-0.3 0.3-0.5-0.5-0.8-0.2-0.3 0.1-0.7 0.6-1-0.1-0.1-0.1-0.3-0.2-0.4-0.1-0.5 0.4-0.9 0.1-1.4 0.1-0.4-0.6-0.7 0.1-1 0.2q-0.1 0-0.2 0-0.2-0.2-0.4 0c-0.2 0.1-0.4 0.3-0.6 0.2-0.1-0.3-0.2-0.4-0.4-0.2-0.3 0.3-0.7 0.2-1 0.1-0.6-0.2-1.1-0.6-1.7 0q-0.3 0.2-0.6 0c-0.3-0.4-0.7-0.1-1 0.2-0.4 0-0.9 0-1.3 0-0.9-0.1-1.7 0.3-2.5 0.6-0.2-0.1-0.3 0.7-0.6 0.3-0.3-0.8-0.8-0.3-1.2-0.6q-0.1 0-0.2 0-0.1 0-0.2 0c-0.3-0.1-0.5 0-0.7 0.2q-0.1 0-0.1 0.1c-0.4-0.2-0.5 0.4-0.8 0.4q-0.1-0.2-0.3-0.4c-0.3-0.8-0.3-0.8-0.8 0-0.2 0.1-0.5 0.3-0.8 0.1-0.3-0.2-0.6 0.1-0.8 0.5q0 0 0 0 0 0 0 0c-1 0-2 0-3 0.3q-0.3 0.1-0.6 0.1c-0.5-0.1-1-0.2-1.4 0.2q-0.1 0-0.2 0.1c-0.3 0.3-0.6-0.2-0.8-0.1q-0.1 0-0.2 0c-0.3-0.3-0.6-0.3-0.9-0.2-1 0.4-2 0.5-3 1.2-0.5 0.4-0.9 0.3-1.3-0.1-0.5-0.5-0.8-0.5-1.1 0.3-0.2 0.5-0.2-0.4-0.3-0.2q-0.2-0.1-0.1-0.3 0-0.3-0.2-0.4c-0.1-0.1-0.2-0.1-0.4 0.1-0.2 0.3-0.4 0-0.6 0.3-0.6 0-1.1-0.1-1.6 0.2-0.5 0.3-1.1 0.3-1.6 0.3-1.1-0.2-2.3-0.2-3.5-0.2-0.6 0.1-1.2 0.3-1.7 0.1-1.1-0.5-2.2 0-3.3 0-0.8 0-1.6-0.2-2.4 0.2-0.1-0.1-0.3-0.2-0.4-0.2-0.7 0.3-1.5 0.1-2.3 0.3-0.4-0.1-0.7-0.7-1.2-0.2q0 0 0 0c-1 0-2-0.2-2.9 0.8-0.2 0.1-0.4-0.3-0.5-0.4-0.3-0.2-0.6-0.7-1-0.1-0.2 0.3-0.4-0.2-0.6 0.1q-0.2 0.1-0.4 0.1-0.2-0.2-0.4-0.3c-0.5-0.3-1-0.6-1.5-0.3-0.5-0.1-1 0-1.5 0.2-0.5-0.6-0.8 0.1-1.1 0.3q-0.2-0.2-0.4-0.5-0.1 0.1-0.2 0c-0.3 0.2-0.6 0.4-1 0.3-0.4-0.3-0.9-0.1-1.3-0.4-0.2-0.1-0.4 0-0.5 0.3-0.2 0.4-0.3 0.3-0.4 0q-0.1-0.1-0.2-0.2-0.1 0-0.2 0c-1-0.2-1.9-0.2-2.8 0-0.3 0-0.5-0.5-0.7 0.1-0.1 0.2-0.2 0.2-0.4 0.1-0.9-0.8-1.9-0.6-2.9-0.3-0.2-0.1-0.4-0.1-0.5-0.2-0.4 0.1-0.8-0.4-1.2 0.3-0.4 0.8-0.4 0.8-0.8-0.1-0.1-0.4-0.1-0.8-0.4-0.3q-0.1 0-0.2 0-0.1 0-0.2 0c-0.1-0.2-0.3-0.3-0.4-0.1q-0.1 0.1-0.2 0.2-0.2 0.1-0.3 0.2c-0.1-0.2-0.2-0.4-0.3-0.2q0 0-0.1 0 0 0 0 0 0 0 0.1 0-0.1-0.1-0.2 0c-0.8-0.3-1.5-0.6-2.3 0-0.1 0-0.1 0.2-0.1 0.2 0 0 0 0.1 0 0q0-0.1 0.1-0.2-0.1 0-0.2-0.1 0 0 0 0.1 0-0.1 0-0.1-0.1-0.1-0.2-0.3 0 0 0 0 0 0 0 0 0 0 0 0c0 0 0-0.1 0-0.1q-0.1-0.1-0.1 0.1c-0.7 0.5-1.3-0.1-1.9-0.1-0.8-0.1-1.6-0.4-2.4 0.2q-0.1 0.1-0.2 0-0.1-0.1-0.2-0.1 0 0 0 0 0 0 0 0c-0.5-0.2-0.9-0.7-1.3 0.2-0.1 0.3-0.3 0.1-0.5-0.2-0.5-0.7-0.5-0.7-1 0.3-0.5-0.3-0.9-1.1-1.4-0.6-0.6-0.4-0.5 0.7-0.8 1q-0.1 0-0.1 0 0 0 0.1 0-0.1-0.1-0.2-0.1-0.1-0.1-0.1-0.3c0.1-0.3 0.1-0.6-0.2-0.6q0 0 0 0c-0.3-0.3-0.6-0.5-1-0.3-0.9 0-1.9-0.4-2.8 0-0.8-0.3-1.6 0-2.4-0.1-0.2 0-0.4 0.4-0.6 0.5-0.1 0.1-0.2 0.1-0.2 0.2-0.1 0.1-0.3 0.1-0.4 0.3-0.5-0.9-1.2-1.2-1.9-1-0.5 0.2-1 0.1-1.6 0.1q0 0 0 0c-0.5-0.2-0.9 0-1 0.9-0.1 0-0.3 0-0.3-0.1-1-1.1-2-1.2-3.1-0.8-0.6-0.2-1.1 0-1.7 0-0.5 0-1-1-1.5-0.2-0.1 0.1-0.2 0-0.2-0.2-0.2-0.3-0.4-0.3-0.5 0-0.5 0.7-1 0.5-1.5 0.4-0.5-0.1-1.2-0.9-1.7 0.3q-0.2-0.1-0.3-0.1-0.2-0.2-0.3-0.3c-0.7-0.9-1.6-0.3-2.4-0.2-0.3 0-0.7 0.3-1 0.1-0.5-0.3-1.1-0.2-1.7-0.1-0.4 0.2-0.7 0-1.1-0.1-0.3-0.5-0.7-0.3-1-0.2-0.1 0.1 0 0.1 0 0.2q0 0 0 0 0-0.1 0-0.2-0.1 0-0.3 0c-0.1 0-0.2 0-0.4 0.2-0.5 0-1.1-0.1-1.6 0.3-0.4 0.1-0.8 0.1-1.2 0.2q-2 0.6-4 1.6c-0.3 0.1-0.8 0.2-0.8 0.8 0 1.2-0.5 2.3-0.4 3.5-0.6 1.5-0.9 3.2-1.2 4.9-0.2 0.4-0.4 0.8-0.5 1.2-0.2 1.3-0.8 2.5-0.5 3.9q0 0.2 0 0.4 0 0.9 0 1.9c-0.6 0.4-1.2 0.7-1.4 1.9-0.3 0.7-0.1 1.5-0.1 2.2q0 0.2-0.1 0.4c-0.2 0.4-0.3 0.8-0.2 1.3q0 0.2 0 0.3c-0.1 0.6 0.1 1.1-0.3 1.6-0.2 0.3-0.1 0.9-0.1 1.3l-0.1 0.1v0.1q-0.4 0.7-0.1 1.5c0 0.1 0.1 0.2 0.1 0.4v0.1q0 0.3-0.2 0.4-0.1 0.1-0.2 0.1l-0.1 0.1v0.1q-0.1 0.1-0.1 0.3-1.2 2.2-0.2 4.6v0.2 0.1c0.2 0.3 0.1 0.7 0.2 1v0.1 0.2c-0.1 0.2-0.2 0.4 0 0.6 0.6 0.6 1.2 0.2 1.8 0.3q0.2 0.1 0.3 0.1c0.2 0 0.3 0.1 0.3 0.2q0.1 0.2 0.2 0.1 0.2 0.1 0.2 0.3c0.2 0.3 0.1 0.6 0 0.9q-0.1 0.1-0.2 0.2v0.1q0 0 0 0 0 0.2 0 0.4 0.1 0 0.2 0c-0.1-0.1-0.1-0.1-0.2 0-0.2 1-0.1 2.2-0.4 3.2-0.6 0.8-0.2 1.7-0.2 2.6-0.5 0.7-0.7 1.6-0.8 2.6 0 0.5 0 1.1-0.2 1.5q-0.2 0.2-0.3 0.6c-0.5 1.9-0.4 3.6 0.2 5.4 0.5 1.1 0.4 1.2 1.3 1.1q0.1 0.1 0.2 0c0.8 0.2 1.7 0.1 2.5 0.1 1 0.2 2.1 0.4 3.1 0.4 0.3 0.2 0.6 0.2 0.9 0.1 0.4-0.1 0.8-0.1 1.2 0.1q0.1 0 0.2 0c0.3 0.1 0.6 0.2 0.9 0.2 0.6 0.1 1.2 0.2 1.7-0.4 0 0.3 0.1 0.6 0.3 0.5 0.7-0.2 1.3 0.1 1.9 0.3 0.3 0 0.5 0.1 0.7-0.2 0-0.4 0.3-0.2 0.4-0.4 0.2-0.3 0.3 0.1 0.5 0.3 0.1 0.2 0.3 0.4 0.5 0 0.4-0.5 0.8-0.1 1.2 0.1q0 0 0 0c0.2 0.4 0.5 0.1 0.8 0q0.1 0.1 0.2 0 0.2 0 0.2-0.3c0.3-0.1 0.6 0 0.9 0.3 0.5 0.5 1.1 0.6 1.6 0.2 0.5-0.3 0.8-0.2 1.2 0.1 0.3 0.1 0.7 0.6 1 0q0 0 0 0c0.3 0 0.6-0.4 1-0.1 0.5 0.5 1.1 0.4 1.7 0.4 1.2 0.1 2.4-0.2 3.5 0.3 0.3 0 0.3-0.3 0.4-0.6q0.2 0 0.4-0.1 0.2 0.2 0.4 0.4c0.5 0.6 1 0.6 1.2 0 0.2 0 0.4 0.2 0.6 0.4 0.4 0.4 0.6 0.2 0.9-0.4 0.5-0.4 1-0.1 1.5 0.1 0.5 0.1 1 0.4 1.1-0.7 0.2 0.1 0.4 0.4 0.7 0.3 0.4-0.1 0.1-0.9 0.4-1 0.3 0.2 0.3 0.5 0.4 0.7 0.3 0.7 1.3 0.7 1.7 0 0.1-0.1 0.3-0.3 0.4-0.1 0.2 0.7 0.7 0.7 1.1 0.9 0.7 0.3 1.3-0.1 2-0.2q0.3 0.3 0.6 0.5c0.1 0.1 0.3 0.1 0.3-0.2h0.1q0.1-0.1 0.1-0.3c0.2-0.4 0.4-0.4 0.6-0.3q0.3 0 0.4 0.4c0.3 0.4 0.6 0.2 0.9 0.1q0.4-0.2 0.8 0c0.6-0.4 1.2-0.4 1.8 0 0.8 0.6 1.7 0 2.5 0.4 0.5-0.7 1.1-0.2 1.6-0.1 0.4 0.1 0.6-0.4 1.1 0 0.8 0.4 1.7 0.5 2.5 0.2 0.2-0.5 0.5 0.1 0.8-0.1q0.2 0 0.4-0.1c0.4 0.3 0.8 0.2 1-0.5q0.1 0 0.2 0c0.3-0.1 0.5 0.5 0.8 0.5q0.1 0.1 0.2 0.2c0.1 0.1 0.2 0.3 0.2 0.2 1-0.6 1.9-0.3 2.8 0.2 0.2 0.1 0.3 0.1 0.4-0.1 0.3 0.1 0.5-0.3 0.6-0.5 0.4 0.2 0.7 0.6 1.1 0.4 0.3 0 0.6 0.4 1 0 0.5 0 1-0.1 1.5 0.3 0.2 0.3 0.4 0.1 0.5-0.4 0.1-0.6 0.3-0.6 0.5-0.1 0.3 0.5 0.5 0.5 0.7 0.1 0.3-0.4 0.5-0.7 0.8-0.2 0 0.2 0 0.6 0.2 0.6 0.2 0 0.3-0.3 0.4-0.6 0.2-0.6 0.5-0.4 0.7 0.1q0 0.1 0.1 0.2 0 0 0.1 0 0.1 0 0.1-0.1 0.2 0 0.3-0.1c0.1 0 0.4 0 0.4-0.2 0-0.7 0.4-0.6 0.6-1.1 0 0-0.1 0-0.1-0.1q0 0 0 0 0 0 0 0l0.1 0.1q0.1 0 0.3 0 0 0.3 0 0.6c-0.1 0.4 0 0.5 0.2 0.4 0.2 0.2 0.4 0.3 0.4-0.2q0-0.4 0.1-0.7c0.3 0.2 0.7 0.4 0.9 0.8 0.5 1.1 0.5 1.1 1 0.3 0.8 0.3 0.5-0.9 0.7-1.3 0.2-0.4-0.3-0.9-0.4-1.3-0.1-0.2-0.3-0.4-0.5-0.2-0.2 0.2-0.1 0.6-0.2 0.9q-0.4 0-0.9 0c-0.1-0.5 0.1-1-0.1-1.4-0.4 0-0.6 0.3-0.8 0.7-0.6 0.5-1.3 0.1-2 0.5-0.2 0.1-0.3-0.2-0.4-0.5q0 0 0 0 0 0 0 0c0.1-0.7 0.2-1.4 0.2-2.2 0.3-0.3 0.5-0.6 0.7-1.2 0.2 0.1 0.5-0.3 0.7-0.1 0.1 0.6 0.7 1.1 0.4 1.9-0.2 0.1-0.4 0-0.7 0.2 0.2 0.7 0.5 0.4 0.7 0.1 0.7-0.5 0.7-1.5 0.7-2.5 0.1-0.1 0.3-0.3 0.3-0.7 0.1-0.1 0.1-0.3 0.1-0.4 0.2-0.2 0.3 0.1 0.3 0.3 0 0.6 0.1 0.8 0.5 0.6 0.2-0.1 0.4 0.1 0.6 0.2 0 0 0-0.2 0-0.2 0 0 0.1 0.1 0.1 0.1q-0.1 0-0.1 0.1c-0.2 0.6-0.2 1.2 0.2 1.6q-0.1 0.1-0.2 0.2c-0.1 0.1-0.3 0.2-0.2 0.6 0 0.1 0.1 0.2 0.2 0.2 0.2 0.1 0.3-0.1 0.4-0.4q0-0.3-0.1-0.6c0.1-0.3 0.4-0.6 0-0.9-0.2-0.2-0.1-0.5-0.2-0.7h0.1q0 0 0 0c0.2-0.5 0.4-0.9 0.7-0.9 0.1 0.2 0.2 0.3 0.2 0.6-0.3 0.5-0.2 0.9 0.1 1.3 0.2 0.1 0.2 0.6 0.4 0.9q0.1 0.1 0.2 0 0.1-0.2 0.2-0.3c0-0.1 0.1-0.2 0.2-0.3 0.3-0.6 0.1-0.6-0.2-0.6q-0.1-0.1-0.2-0.2 0 0 0 0 0-0.2 0-0.5c0.3-0.6 0.6-0.4 0.9-0.1 0.4 0.4 0.5-1 0.9-0.2q0.2 0.9 0.4 1.9c-0.1 1 0.3 1.9 0.2 2.9q0 0 0 0 0 0 0 0-0.2 0.1-0.2 0.4v0.1 0.1c0 0.6 0.2 1 0.6 1.2 0-0.5 0-0.8 0-1.1q0-0.1 0.1-0.1 0-0.1 0.1 0.1c0.3 0.5 0.6 0.4 0.8 0q0-0.1 0-0.2c0 0.1 0 0.1 0 0.2 0.2 0.3 0.4 0.5 0.5 0.9 0.1 0.8 0.4 0.7 0.8 0.4 0.1-0.2 0.3-0.4 0.3-0.7 0.9-0.2 1.8-0.9 2.8-0.2 0 0 0.2-0.3 0.3-0.4 0.7 0.4 1.5 1 2.2 0q0.2-0.1 0.4-0.1c0.5 0.3 0.9-0.2 1.4-0.3q0.1 0.2 0.2 0.4c0 0.2-0.1 0.6 0.1 0.7 0.3 0.2 0.3-0.2 0.3-0.4q0-0.1 0.1-0.3c0.1 0 0.3-0.1 0.3-0.3 0.4-0.2 0.8 0.1 1.1 0.1 0.9 0.2 1.8 0.2 2.7 0.3 0 0 0-0.1 0.1-0.1 0.3-0.4 0.5-0.8 1-0.2 0.3 0.3 0.9 0.3 1.2-0.5h-0.1q0 0 0-0.1 0 0.1 0.1 0.1 0.2-0.2 0.4-0.3 0 0.2 0 0.4c0 0.4 0.1 0.7 0.3 0.7 0.2 0.1 0.3-0.2 0.3-0.5q0.1-0.2 0.2-0.5c0.2-0.6 0.4-0.3 0.6-0.1q0.1 0.2 0.2 0.4c0.1 0.8 0.4 1.1 1 1.1 0.3 0 0.6-0.1 0.6-0.9 0.2-0.3 0.4-0.4 0.7 0 0.3 0.3 0.6 0.2 0.9 0 0.4 0.4 0.8 0.2 1.2 0 0.6 0.5 1.1 0.2 1.5-0.3 0.3-0.5 0.5-0.2 0.6 0.3 0 0.3-0.2 0.7 0.1 0.7 0.3 0.1 0.8 0.4 0.9-0.6 0.3 0 0.5-0.5 0.7-0.4 0.8 0.3 1.7 0.2 2.5 0.7q0.1 0.3 0.2 0v-0.1q0 0 0 0 0 0 0 0.1c0.2 0 0.3-0.4 0.6-0.3 0.2 0.1 0.4 0.2 0.6-0.1q0-0.1 0-0.1c0 0.2 0.1 0.3 0.2 0.4 0.6 0.1 1.1-0.1 1.7 0.2 0.1 0 0.1-0.3 0.1-0.5q0.2-0.1 0.4-0.1 0.1 0.1 0.3 0.1c0 0.2 0.2 0.2 0.3 0.2q0.1 0 0.3 0 0.1-0.1 0.2-0.1 0 0 0.1 0c0.1 0 0.2 0.1 0.2 0.2 0.4 0.2 0.7 0.5 1 0.3 0.1-0.1 0.2-0.3 0.3 0 0.1-0.4 0.3-0.8 0.6-0.9q0.2 0.1 0.4 0.3c0.1-0.1 0.2-0.1 0.4-0.2-0.2 0-0.3 0-0.4 0.2 0.2 0.3 0.5 0.1 0.7 0.1 0.7 0.3 3.3 0.2 3.9-0.2q0.1 0 0.2-0.2 0.2 0 0.4 0c0.5 1 1.1 1.2 1.8 0.7q0.1-0.1 0.1-0.3c0.4-0.2 0.8-0.2 1.1 0.4 0.2 0.2 0.5 0.2 0.5-0.1 0.2-1.1 0.6-0.6 0.9-0.3 0.2 0.2 0.3 0.4 0.5 0 0.2-0.2 0.5-0.4 0.7-0.4 0.1 0.1 0.2 0.2 0.3 0.3q0.1 0.1 0.2-0.2c0.3-0.2 0.5 0.2 0.8 0.3q0 0 0 0c0.5 0.6 0.7 0.6 1.2-0.1 0.3 0.1 0.5 0.5 0.8 0.2 0.3 0.2 0.7 0.8 0.9-0.2q0.4 0.1 0.9 0.1c0.3 0.3 0.4 0.8 0.8 0.6 0.6-0.3 1.1 0.4 1.6 0 0.5 0.2 0.7-0.3 0.7-1 0.2 0.5 0.4 0.7 0.8 0.6 0 0 1.9-0.5 1.9-0.5 0.6 0.5 1 1.6 1.7 0.5 0.1-0.2 0.3 0 0.5 0.1 0.3 0.1 0.5 0.2 0.7-0.4 0.2-0.3 0.4-0.3 0.5 0 0.8 1.2 1.9 0.3 2.8 0.8q0 0 0.1-0.1c0.5-0.5 0.9-0.2 1.4 0 0.1 0.4 0.2 0.7 0.4 0.6 0.3-0.2 0.2-0.6 0.2-1 0.5-0.1 0.8 0.1 1.2 0.5 0.3 0.3 0.5 0 0.7-0.4 0.4-0.4 0.6 0.2 1 0.2 1.1 0.4 2.2 0.2 3.2-0.7 0.5 1.2 0.5 1.2 1.4 0.8 0-0.4 0.1-0.4 0.3-0.3 0.5 0.5 0.7-0.3 1.1-0.7 0.1 0.4 0.2 0.7 0.5 0.7 0.5 0.1 1.1 0 1.6 0.2 0.6 0.1 1 0 1.4-0.5v-0.1q0 0.1 0.1 0.1c0.1 0.3 0.2 0.6 0.3 0.6 0.5-0.3 1.1 0.1 1.6-0.3 0.6 0.1 1.2-0.2 1.8 0.5q0.2 0.1 0.4 0.1c0-0.4 0.1-0.6 0.3-0.9 0.4 0.9 0.4 0.9 0.9 0.2q0-0.3 0-0.6c0.2-0.1 0.4-0.2 0.6-0.3 0.1 0 0.2 0.1 0.2 0.3 0.1 1 0.1 1 0.8 0.9 0.3 0 0.2-0.5 0.5-0.5q0.1-0.2 0.1-0.4c0.2 0.1 0.5-0.3 0.7 0.2 0.2 0.6 0.4 0.1 0.6-0.2 0.2-0.1 0.4 0.4 0.6 0.2 0.1 0.1 0.2 0.3 0.3 0.3 0.5 0.1 1.2 0.5 1.4 0.1 0.5-0.9 1 0.5 1.4-0.1 0.1-0.1 0.2-0.1 0.3-0.2 0.1-1 0.5-0.2 0.8-0.3 0 0.8 0.4 0.6 0.7 0.7 0.2 0 0.4 0 0.4-0.4 0-0.3-0.2-0.3-0.3-0.5 0.2-0.2 0.4-0.2 0.6-0.1 0 0.7 0.2 0.4 0.4 0.3 0.6 0.6 0.7 0.5 0.8-0.6q0.1-0.2 0.2-0.3 0.1 0 0.2 0.2v0.1c0.3 0.4 0.4-0.1 0.6-0.1 0.3 0.1 0.4-0.2 0.7-0.3 0.2 0.1 0.4 0.6 0.6 0q0.1-0.2 0.2-0.2 0.2-0.1 0.3-0.1c0.2 0.2 0.3 0.2 0.5 0.1q0.2 0 0.4-0.1c0.1 0.2 0.2 0.2 0.3 0h0.1c0.5 0 1 0.5 1.6 0q0 0 0 0 0.1 0.1 0.2 0.1 0 0 0 0 0 0 0 0c1.2 0.4 2.4 0.2 3.6 0.2 0.8 0.1 1.5 0.1 2.3 0 0.1-0.1 0.2-0.1 0.3 0q0.1 0 0.3 0 0.7 0 1.4 0 0.5 0 1 0c0.2 0.3 0.4 0.2 0.6 0.1 1.4 0 2.8 0.3 4.2 0.2q0 0 0 0c0.8 0.2 1.6 0.3 2.4 0.1 1 0.5 1.9 0.1 2.9 0.2q0.2-0.1 0.3-0.6-0.2-0.6-0.5-1.2c0.2 0 0.3-0.1 0.4-0.4 0.3-0.7 0.2-1.1-0.3-1.7-0.4-0.4-0.9-0.2-1.3-0.8 0.2-0.1 0.5-0.1 0.8-0.2 0.2 0 0.5-0.1 0.5-0.6 0.1-0.6-0.3-0.4-0.5-0.5-0.4-0.4-0.9-0.8-1.1-1.4-0.4-1.3-0.3-1.4-1.2-1.5-0.5 0-0.9-0.1-1.4-0.5 0.3-0.3 0.6-0.1 0.8-0.3 0.4-0.2 0.7-0.6 0.5-1.3q0.2-0.2 0.4-0.4 0.1 0 0.2-0.1 0.1 0 0.2 0 0.1 0 0.1-0.1c0.7-0.2 1.4 0.3 2.1-0.5 0.4-0.4 1.2-0.4 1.6 0.1 0.4 0.5 0.7 0.5 1.1 0.8 0.4 0.5 0.8 0.2 1.1-0.3 0.2-0.2 0.1-1.6-0.1-2-0.5-0.9-1-1.7-1.8-1.6-0.3 0-0.6-0.2-0.9-0.3q0-0.2 0-0.3c-0.1-0.1-0.2-0.2-0.3-0.3q0 0-0.1 0c0.1-0.3 0.2-0.3 0.4-0.4q0 0 0 0 0 0 0 0c0.5 0 0.9 0 1.4 0.3 0.2 0.2 0.6 0.1 0.8-0.2 0.3-0.3-0.3-0.7 0-1q0.1 0 0.3 0.1c0.1 0 0.3 0.2 0.3-0.1 0.1-0.3 0-0.3-0.1-0.4q-0.2-0.2-0.3-0.2-0.1-0.1-0.2-0.1c-0.1-0.1-0.2-0.1-0.4-0.2-0.1-0.2-0.3-0.6 0.1-0.5 0.4 0.2 0.5-0.7 0.8-0.5 0.1-0.5-0.1-0.8-0.3-1-0.1-0.2-0.2 0-0.3 0q0.2 0 0.3 0c0.2-0.3 0.4-0.6 0.2-1q0-0.2-0.1-0.3c-0.4-0.8-0.8-1.7-1.1-2.8 0-0.1-0.1-0.3-0.2-0.4 0-0.5 0.2-0.7 0.4-1 0.2-0.1 0.4-0.3 0.1-0.6-0.2-0.3-0.3-0.5-0.2-0.9 0.1-0.1 0.2-0.1 0.2-0.3 0-0.1-0.1-0.2-0.2-0.2-0.1 0-0.2 0-0.3 0q-0.2-0.2-0.4-0.4v0.2c-0.1 0.1 0 0.2 0 0.3q0 0 0 0 0-0.2 0-0.3 0 0-0.1 0 0.1-0.1 0.1-0.2 0.1-0.2 0.2-0.5c0.2 0 0.4-0.1 0.6-0.3 0.4 0.2 0.8-0.1 1.2-0.4q0.4-0.3 0.9-0.6c0.2 0.4 0.2 0.4 0.5 0.1 0.1-0.1 0.3-0.1 0.4-0.1 0.2 0 0.5 0.1 0.6-0.3q0.4 0 0.8 0c0.6 0.1 1.1-0.1 1.7-0.4q0.3 0.1 0.6 0.1c-0.1 0.2-0.3 0.5-0.1 0.7 0.2 0.3 0.3-0.2 0.4-0.4q0-0.1 0.1-0.3 0.2 0 0.4 0c0.1-0.2 0.2-0.3 0.3 0 0.1 0 0.2 0 0.2 0 0.3 0.8 0.5 0.5 0.8 0.1 0.4-0.3 0.5-0.6 0.3-1.1q-0.1-0.3-0.2-0.6c0.1 0 0.2-0.1 0.2-0.2 0-0.2-0.1-0.2-0.2-0.2q-0.2 0-0.4 0.1-0.1-0.1-0.2-0.1 0 0.1-0.1 0.1-0.1 0.1-0.1-0.1-0.1 0-0.2 0c-0.3-0.4-0.6-0.3-0.9-0.3-0.1 0-0.3-0.1-0.3-0.3q0-0.1 0-0.2 0.2 0 0.4 0.1c1.3 0.1 2.7-0.2 4 0.4 0.1-0.1 0.1-0.2 0.2-0.3 0.1 0 0.3 0.3 0.3 0 0.1-0.4-0.2-0.3-0.3-0.3q-0.4 0-0.7 0c-0.1-0.1-0.2-0.1-0.1-0.3 0-0.1 0.1-0.1 0.2-0.2q0.9 0.2 1.8 0.3 0.1 0.1 0.2 0.2c-0.2 1.1 0.4 0.8 0.7 0.9 0.1 0.1 0.2 0 0.1-0.2 0-0.1-0.1-0.2-0.1-0.4 0.2-0.3 0.4-0.4 0.6 0 0.1 0.1 0.2 0.2 0.4 0q0 0 0.1 0 0.1 0.1 0.2 0c0.3 0.3 0.6 0.2 0.8 0.3 0.2 0 0.2 0.2 0.2 0.3q-0.2 0.6-0.4 1.3-0.1 0-0.2 0-0.2 0-0.4 0-0.1 0-0.2 0c-0.3-0.5-0.7-0.6-1.2-0.7q0 0.1 0 0.2 0 0 0 0 0 0 0 0 0-0.1 0-0.2c-0.1-0.3-0.4-0.2-0.6-0.2-0.1 0.2-0.2 0.3-0.4 0.3q-0.1 0-0.2 0-0.2-0.3-0.4 0c0.1 0.1 0.3 0.2 0.3 0.4 0 1.2 0.6 1.2 1.1 1.2 0.3-0.3 0.5-0.2 0.8-0.1 0.6 0.6 0.8 0.6 0.9-0.3q0.1 0 0.3 0 0.1 0.1 0.2 0.1c-0.1 0.5-0.1 0.8 0.2 0.9q0.5 0.2 1.1 0.4c0.6 0.2 1.1 0.7 1.8 0.6 0.1 0.2 0.3 0.1 0.4 0.4 0.2 0.4 0.5 0.3 0.7 0.5 0.5 0.4 0.2-0.5 0.3-0.6q0.3 0 0.6 0c-0.2-0.5-0.4-0.9-0.8-0.9q-0.1-0.2-0.2-0.4zm-148.8 29.3q0 0 0 0 0 0 0 0zm75.1-0.9c0 0.1 0 0 0.1 0q0 0.1 0 0.1c-0.1-0.1-0.1 0-0.1-0.1zm-8.3-1.1c0 0 0-0.1 0-0.1 0 0 0.1 0 0.1 0.1q0 0-0.1 0zm-20 1.9q0 0 0 0 0 0 0 0 0 0 0 0zm-45.1-5.6q0 0 0-0.1 0 0 0 0.1 0 0 0 0zm-52.1 6.4q0 0 0 0 0 0 0 0 0 0 0 0zm-0.1 0.6q-0.1 0-0.1 0 0 0 0 0 0 0 0-0.1c0.1 0.1 0 0.1 0.1 0.1zm-5-0.3q0 0 0 0 0 0 0.1 0c0 0-0.1 0-0.1 0zm-6.1-54.5q0 0 0 0c-0.2 0.3-0.4 0.5-0.5 1q0 0 0 0c0.3-0.2 0.4-0.6 0.5-1zm128-4.1c-0.1 0-0.1-0.1-0.1-0.1q0 0 0 0c0.1 0 0.1 0.1 0.1 0.1zm63 26.2q0 0 0 0 0 0 0-0.1 0.1 0 0.1 0 0 0 0.1 0c-0.1 0-0.1 0-0.2 0 0 0 0 0.1 0 0.1zm-169.7 30.8q0 0 0 0h0.1q0 0-0.1 0zm-30.3-38.5c0 0.1 0 0.2 0 0.2 0 0 0 0 0 0 0 0 0-0.1 0-0.2zm97.4-13.7c0 0 0 0 0 0q0 0 0 0 0.1-0.1 0-0.3 0 0 0 0c0 0 0 0.2 0 0.2 0 0 0 0.1 0 0.1 0 0 0 0 0 0zm23.6 2.3q0 0 0 0 0 0 0 0 0-0.1 0-0.1 0 0 0 0 0 0 0 0.1zm45.1-2.9q0 0.1 0 0.2c0-0.1-0.1-0.1 0-0.2zm38.5 7.7q0 0 0 0 0 0 0 0 0 0 0 0 0 0 0 0zm-99 45q0 0 0 0 0-0.1 0-0.2 0 0.1 0 0.2zm-42.1 1.1q-0.1 0.2-0.1 0.3 0-0.1 0.1-0.3zm-44.6-2.6q0 0-0.1 0 0 0 0 0 0.1 0 0.1 0.1 0 0 0-0.1zm-13-48c-0.1 0-0.1 0-0.2 0 0.1-0.1 0.1-0.2 0.2-0.4 0 0.1 0 0.3 0 0.4zm55.2 45.4c0 0.1-0.1 0-0.1 0.1q0-0.1 0-0.2c0.1 0 0.1 0 0.1 0.1zm-29.2 3.6q0.1 0 0.2 0c-0.1-0.1-0.1 0-0.2 0zm-32.3-11.5q0 0 0.1 0-0.1 0-0.1 0 0 0 0 0zm78.6-39.1q0 0 0 0 0 0 0 0 0 0 0 0zm22 0.6q0.1 0.1 0.2 0-0.1 0-0.2 0zm14-4.5q0 0 0-0.1 0 0 0 0.1zm10.9 0.9q0 0 0 0.1 0 0 0 0-0.1 0-0.1 0 0 0 0.1 0 0-0.1 0-0.1zm63.2 1.7q0 0 0 0 0 0 0 0 0 0 0 0zm2.2 0.6q0 0 0 0.1 0-0.1 0-0.1 0 0 0 0 0 0 0 0zm17.7 17.3q0 0 0 0 0 0 0 0 0 0 0 0zm-17.9 25.5q0 0 0 0c0 0 0 0 0 0q0 0 0 0zm-12.5 1.7q0 0 0 0 0 0-0.1 0 0 0 0-0.1 0 0 0.1 0.1 0 0 0 0zm-8.5-1q0 0 0 0c0 0 0.1 0 0.1 0q0 0-0.1 0zm-109.1 7.4c0.1-0.2 0-0.3-0.1-0.5q0 0.1 0 0.1c0.1 0.1 0.2 0.2 0.2 0.4 0 0 0 0-0.1 0zm-28.4-2.8q0 0 0 0 0 0 0 0 0 0 0 0zm-21.4-42.3c0 0.1 0.1 0 0.1 0.1q-0.1 0-0.1 0.1 0-0.1 0-0.2zm9.2-3.5q0 0.1 0 0.2 0 0 0 0 0-0.1 0-0.2 0 0 0 0zm65.5 3.8q0 0 0 0.1 0 0 0 0 0-0.1 0-0.1zm12.7-4.1q0 0 0 0 0-0.1 0-0.1 0 0 0 0.1zm96.4-1c-0.1 0.1 0 0.1 0 0.2q0-0.1-0.1-0.2 0 0 0.1 0zm-98 44.5q0 0 0 0 0 0 0 0zm-8.9-0.9c0 0-0.1 0.1-0.1 0.2q0.1-0.2 0.1-0.5c0 0.1 0.1 0.2 0 0.3zm-24.8-38q0.1 0.3 0.2 0.5 0 0 0 0c0-0.2-0.1-0.3-0.2-0.4q0 0 0-0.1 0 0 0 0zm20.8 0.5q0 0 0 0 0-0.1 0-0.1 0 0 0 0.1zm38.7 0.4q-0.1 0.3-0.2 0.5-0.1-0.3 0.2-0.5zm5-6.7q0-0.1 0-0.1 0.1 0 0.1 0 0 0-0.1 0.1zm20.4-0.6q0.1 0.1 0.1 0.3 0-0.2-0.1-0.3zm31.3 2.9q0 0 0 0 0 0 0 0 0 0 0 0zm21.6 2.9q-0.1 0.1-0.1 0.1 0-0.1 0-0.1c0 0 0.1 0 0.1 0zm-40.1 30.8c0 0-0.1 0-0.1 0q0 0 0.1 0 0 0 0 0zm-57.6 6.4q0 0 0 0 0 0 0 0 0.1-0.1 0.1-0.1 0 0 0 0 0 0 0 0 0 0.1 0 0.1 0 0-0.1 0zm-68.1-39.4q0.1 0 0.1-0.1 0 0.1-0.1 0.1zm108.2 3.6q0 0 0 0 0 0 0 0 0 0 0 0zm8.6 9.7q0 0 0 0 0 0 0 0c0 0 0 0 0 0zm42.7 10.3c-0.1 0-0.2 0.1-0.3 0.2 0.1-0.1 0.2-0.1 0.2-0.3 0 0.1 0 0.1 0.1 0.1zm-38.3 13q0.1-0.2 0-0.3 0 0 0 0 0 0 0 0.1 0.1 0.1 0 0.2zm-52.9 2.2q0 0-0.1 0 0.1-0.1 0.1-0.2 0 0.1 0 0.2zm-76.9 1.1q0 0 0.1 0-0.1 0.1-0.1 0.1 0 0 0 0 0 0 0-0.1zm3-39.4q0.1 0.2 0.1 0.4c0-0.1 0-0.3-0.1-0.4zm145.2 7.6q0 0 0 0.1 0 0 0 0 0 0 0-0.1zm-48.2 25.6q0-0.1 0-0.1c0-0.1 0-0.1 0-0.1q0 0.1 0 0.2zm-35.7 0.4c0-0.1 0-0.1 0-0.2 0.1 0.1 0.1 0 0.2-0.1 0 0.1-0.1 0.1-0.1 0.3 0-0.1-0.1 0-0.1 0zm-2-25.6q0 0 0 0 0 0 0 0zm14.6-5.5c0.1 0.1 0.1 0.2 0.2 0.3q-0.1 0.1-0.3 0.2c0-0.2 0.1-0.3 0.1-0.5zm2.3 14.2q0 0 0 0 0 0 0 0 0 0 0 0zm5.9-1.4q0 0 0 0c0 0-0.1 0.2-0.1 0.1-0.1 0-0.1-0.1-0.1-0.1 0.1 0 0.1 0 0.2 0zm24.4 5.1q0 0.1 0 0.1c-0.1 0-0.1 0.1-0.1 0.1 0 0 0-0.1 0.1-0.2zm-51.6-13.1q0.1 0 0.1 0 0 0 0 0 0 0 0 0-0.1 0-0.1 0.1 0 0 0 0 0 0 0 0c0-0.1 0.1 0 0.1-0.1q0 0-0.1 0zm34.2 2.6q0 0 0 0 0 0 0 0 0 0 0 0zm16.2 3.5q0 0-0.1 0 0 0 0 0 0-0.1-0.1-0.2 0 0 0-0.1c0 0.2 0.1 0.2 0.2 0.3zm-3.3 9.6q0-0.1 0.1-0.1-0.1 0-0.1 0.1zm-63.9 6c0 0 0 0-0.1 0q0 0 0-0.1 0 0 0 0c0-0.1 0 0 0 0 0.1 0 0.1-0.1 0.1-0.1q0 0.1 0 0.2zm-16.2 6.5c-0.2-0.1-0.2-0.1-0.3-0.1 0-0.1 0.2 0 0.2-0.1q0 0.1 0.1 0.2zm-3.1 4.1q0 0 0 0 0 0 0 0 0 0 0 0zm-14.3-3.1q0 0 0-0.1 0 0 0 0.1 0 0 0 0zm-3.5-26.4c0.1 0 0.1-0.1 0.2-0.2-0.1 0-0.1 0.2-0.2 0.2zm2.7 18.2c0 0 0 0 0 0q0 0 0-0.1 0 0.1 0 0.1zm-6.8 4.3q0 0 0 0 0 0 0-0.1 0 0 0 0.1zm17.9-20.9q0 0 0 0 0 0 0 0 0 0 0 0zm10.2-4.7c0 0.1 0 0.2 0.1 0.3q0 0 0 0c0-0.1-0.1-0.2-0.1-0.3zm11.4 1.3q0 0 0 0-0.1 0.1-0.1 0.3 0-0.2 0.1-0.3c0 0 0 0 0 0zm-29.2 23.4q0 0-0.1 0 0.1 0 0.1-0.1 0 0.1 0 0.1zm-11.5-2.1q0 0 0 0 0 0 0.1-0.2c0 0.1 0.1 0.2-0.1 0.2zm6.6-14.3q0 0.1 0 0.1 0 0 0-0.1 0 0 0 0zm8.9 3.2q0 0 0 0.1c0 0 0 0-0.1 0 0.1-0.1 0.1-0.1 0.1-0.1zm-14 9.4c0 0 0 0 0 0q0 0 0 0 0 0 0 0zm-13.7-9.5q0-0.1 0-0.1 0 0 0 0 0 0 0 0.1zm24.1-0.1c0-0.1-0.1-0.1-0.1-0.2q0 0 0 0c0 0.1 0.1 0 0.1 0.2zm21-5.6q0 0 0 0 0 0.1 0 0.1 0 0 0-0.1zm0.8 18.6q0-0.1 0-0.1 0 0 0 0.1zm-1.8-7.9q0 0 0 0 0.1 0 0.1 0 0 0 0 0-0.1 0-0.1 0zm0.1 0q0 0 0 0 0 0 0 0 0 0 0 0 0 0 0 0zm-7.5 3q0 0 0 0.1 0-0.1 0-0.1 0 0 0 0zm-1.4 4.1q0 0 0 0-0.1 0-0.1 0 0 0 0 0 0 0.1 0.1 0zm-0.7-12q0.1 0 0.1-0.1c0 0 0.1 0.1 0.1 0.1q0 0-0.1 0.1 0 0 0 0 0 0-0.1-0.1zm7.8-6.7q0 0 0 0 0 0 0 0 0 0 0 0zm0 0q0 0.1 0 0.1 0 0-0.1 0c0.1 0 0.1 0 0.1-0.1zm-7.7 6.8q0 0 0 0 0 0 0 0 0 0 0 0zm1 4.1c-0.1-0.3-0.1-0.6 0.3-0.5-0.1 0.1-0.2 0.3-0.3 0.5zm8-1.5q0 0 0.1 0c-0.1 0-0.1 0-0.1 0zm-3.5-3.1q0 0.1-0.1 0.1c0.1 0 0.1-0.1 0.1-0.1zm-4.6-0.9c0 0.1 0 0.2 0.1 0.3q-0.1-0.1-0.1-0.3zm-0.5 0.4c0 0-0.1 0-0.1 0q0 0 0 0c0.1 0 0.1 0.1 0.1 0 0-0.1 0-0.2 0-0.3 0 0.1 0 0.2 0 0.2 0 0.1 0 0.1 0 0.1zm5 5.3q-0.1-0.1-0.1-0.1 0 0 0 0 0 0 0.1 0.1zm-2.1-9.6c0-0.1 0.1-0.1 0.1-0.2q0 0.1-0.1 0.2zm-12.4 11.1c0-0.1 0-0.1 0-0.1 0 0 0 0 0 0.1zm-1.1 2.2q0 0.1 0 0.1 0 0 0 0 0 0 0-0.1zm-16.4-5.9q0-0.1-0.1-0.1c0.1-0.1 0.1-0.2 0.1-0.2q0 0.2 0 0.3zm-2.2-1.7q0 0 0 0 0 0 0 0 0 0 0 0zm-1 6.5q0 0 0.1 0-0.1 0.1-0.1 0.1 0-0.1 0-0.1zm7.8-1.1q0-0.1 0-0.1c0.1 0 0.1 0.1 0.1 0.1q-0.1 0-0.1 0zm-6.8-12.1q0 0 0 0 0 0 0.1 0-0.1 0-0.1 0zm20.5 7.8c0 0 0 0 0-0.1q0 0 0 0.1 0 0 0 0zm-12.5-3.4q0 0 0 0 0 0 0 0 0 0 0 0zm1.9 2.9c0 0.2 0 0.3 0 0.4 0-0.1 0-0.3-0.1-0.3q0.1 0 0.1-0.1zm3.4 1.1c0 0 0-0.1 0-0.2q0 0 0 0.1c0 0 0 0.1 0 0.1zm3.1 0.7q0 0 0 0 0 0 0 0zm1.5-1.2c0.1 0 0.1-0.1 0.2 0q-0.1 0-0.2 0zm-1.2-1.9q0 0 0 0 0 0 0 0 0 0 0 0zm-0.4 1.2q0 0 0 0.1 0 0 0 0 0-0.1 0-0.1zm0-3.8c0 0 0-0.1 0 0q0 0 0 0 0 0 0 0zm-2.4 3.6c0 0 0 0 0 0q0 0 0 0 0 0 0 0zm1.8-1.3q0 0 0 0 0 0 0 0 0 0 0 0zm-7-4.9c-0.1 0.2-0.2 0.2-0.3 0.3 0.2 0 0.2-0.1 0.3-0.3zm-5.8 18.8c-0.1 0.1-0.2 0-0.2 0.1 0-0.1-0.1-0.1 0-0.2q0.1 0.1 0.2 0.1zm8.1-8.1c-0.2-0.1-0.3-0.4-0.4-0.6 0.1 0.3 0.2 0.5 0.4 0.5q0 0.1 0 0.1zm8.6 3.4c0 0.1 0 0.1 0 0.1q0 0 0 0 0-0.1 0-0.1zm19.1 6.7c0 0.1-0.1 0.1-0.1 0.1q0-0.1 0-0.2c0 0.1 0.1 0.1 0.1 0.1zm4.2-13.3q0 0 0 0 0 0 0 0 0 0 0 0zm3.3-0.7q0 0 0 0 0 0 0 0 0 0 0 0 0 0 0 0 0 0 0 0zm0 0c0.1-0.4 0.2-0.7 0.2-1.1 0-0.1 0-0.4 0.1-0.3 0 0 0 0 0.1 0-0.2 0.4-0.4 0.8-0.4 1.4zm1.4-1.9c0 0-0.1 0-0.2 0 0.1-0.1 0.1-0.2 0.2-0.3 0 0.1 0 0.2 0 0.3zm-4.6 4.1q0 0 0 0c0 0.1 0 0.1 0 0.1 0.1 0 0.1 0 0.1-0.1q0 0 0 0-0.1 0.2-0.1 0.3c0-0.2 0-0.3 0-0.4q0 0.1 0 0.1zm0.7 0.2q-0.1 0-0.2 0 0.1 0 0.2 0zm1.4 1.8q0 0 0 0.1c-0.1 0-0.1 0.1-0.1 0.2 0-0.1 0-0.2 0-0.2q0-0.1 0.1-0.1zm-0.1 0.3q0 0 0 0 0 0 0 0 0 0 0 0zm1.1-2.8q0 0 0.1-0.1c0 0.1 0 0.1 0.1 0.2-0.1 0-0.2-0.1-0.2-0.1zm-6.9-9q0 0 0 0 0 0 0 0 0 0 0-0.1 0 0.1 0 0.1zm-1.9-4q0-0.1 0-0.1 0 0 0 0.1zm-24.4 7.2q0 0.2 0 0.3 0-0.1 0-0.3zm-19.4 14.7q0 0 0 0 0 0.1 0.1 0.2-0.1 0-0.1 0c-0.1-0.1 0-0.1 0-0.2zm16.9-3q0 0.1 0 0.1 0 0 0-0.1c0 0 0 0 0.1 0q0 0-0.1 0zm6.2 2.5q0 0 0 0 0 0 0 0 0 0 0 0zm1.1 1.1q0 0 0 0.1 0 0 0 0c0 0 0 0 0 0q0 0 0 0 0 0-0.1 0c0 0-0.1 0.1-0.1-0.1 0.1 0.3 0.1 0.1 0.2 0zm3 0.1q0 0 0.1 0-0.1 0-0.1 0 0 0 0 0zm0.2 0.2q0 0.1 0 0.1c0.1 0.4-0.1 0.3-0.2 0.3 0.1-0.1 0.2-0.1 0.2-0.4zm0.8-8.3c-0.1 0.1 0 0.1 0 0.2-0.1 0-0.1-0.1-0.2-0.1q0.1-0.1 0.2-0.1zm3.1 0.2c0 0 0.1 0 0.1 0 0.1 0.2 0.1 0.4 0.1 0.6q-0.1 0-0.1 0c0.1-0.3 0-0.4-0.1-0.6zm20.2-0.3c0 0.1 0 0.3 0 0.4-0.1-0.1-0.1-0.3-0.1-0.4q0 0 0.1 0zm7.2-9.9c-0.1 0-0.2 0-0.3 0 0.1 0 0.2-0.1 0.4-0.2-0.1 0 0 0.1-0.1 0.2zm-1.4-1.3q0 0 0 0 0-0.1 0-0.1c0 0 0 0.1 0 0.1zm-5.7 1.1c-0.1 0.1-0.1 0.2-0.1 0.2 0.1 0 0-0.1 0.1-0.2zm-3.5 6.8q0 0 0 0 0 0 0 0 0 0 0 0zm-2.6-8.8q0 0 0.1 0-0.1 0-0.1 0zm-7.2-4q0 0 0-0.1 0 0.1 0 0.1zm-1.8 5.1q0 0 0 0 0 0 0 0 0 0 0 0zm-15 3.7q0 0 0 0c-0.1 0-0.1 0-0.1 0 0 0 0.1 0 0.1 0zm-18.2 1.9c-0.1 0.1 0 0.3-0.1 0.3q0-0.1 0.1-0.1c0-0.1 0-0.2 0-0.2q0 0 0 0zm-1.7-0.6q0 0 0 0 0 0 0 0 0 0 0 0 0 0 0-0.1 0 0.1 0 0.1 0 0 0 0zm14.5 9.3q0 0 0 0 0 0 0 0zm36.6 2.2q0 0 0.1-0.1-0.1 0.1-0.1 0.1zm5.4-11.2q0 0 0 0 0 0 0 0 0 0 0 0zm4.1-3.3c0 0.1 0 0 0 0q0 0.1 0 0.1 0 0 0-0.1zm12.5-1.9q-0.1 0-0.1 0 0 0 0 0 0.1 0 0.1 0zm31.3 3.1c0 0 0 0.1 0 0.1q0 0 0-0.1 0 0 0 0 0 0 0 0zm0.7 0.7q0 0.1 0 0.1c0 0 0 0 0-0.1zm13.8 1.9q0 0 0 0 0 0 0 0 0 0 0 0zm-8.7-1.5q-0.1 0-0.1 0.1c0 0 0-0.1 0.1-0.1zm0.5 8.4q0 0 0 0 0 0 0 0 0 0 0 0 0 0 0 0c0 0 0 0 0 0q0 0 0 0zm0.9-5.2q0 0.1 0 0.3 0-0.2-0.1-0.3c0 0 0 0 0.1 0zm2.3-6.4q0 0 0 0.1 0 0 0 0 0-0.1 0-0.1 0 0 0 0zm1.2 1c0-0.1-0.1-0.1-0.1-0.2 0.1 0 0.2 0 0.4 0-0.1 0.1-0.3 0.1-0.3 0.2zm-16.4 21.2q0 0 0 0 0 0 0 0 0 0 0 0zm3.3-23.8q0 0 0 0 0 0 0-0.1 0 0.1 0 0.1zm-6.2 18.9c0 0 0.1 0 0.1 0 0 0 0 0.1 0 0.1 0 0-0.1-0.1-0.1-0.1zm4.5-14c0 0 0-0.1 0-0.1q0 0 0 0 0 0.1-0.1 0.3c0-0.1 0-0.2 0-0.4q0 0 0 0 0 0.1 0.1 0.2zm0.3 2.2q0 0 0 0-0.1 0-0.1 0 0.1 0 0.1 0 0 0 0 0zm2.6-0.6c0-0.1 0 0 0-0.1q0 0.1 0 0.1 0 0 0 0zm-1.2 7.1c0 0 0-0.1 0-0.1q0 0 0 0 0 0 0 0.1c0 0.1 0 0.1 0.1 0.2-0.1 0-0.1 0.1-0.2 0.1 0-0.1 0.1-0.2 0.1-0.3zm0.2-9.4q0 0 0 0 0 0 0 0 0 0 0 0zm-0.1 0.1q0 0 0 0 0 0 0 0zm-2.8 2.2q0-0.1 0-0.1 0 0 0.1 0-0.1 0-0.1 0.1zm1 5.4q0 0 0 0c0-0.4-0.2-0.5-0.4-0.6q0.1 0 0.1 0c0.3-0.3 0.3 0.2 0.3 0.6zm-5.6 5.2q0-0.1 0-0.1 0 0 0 0.1zm9.1-15.5q0 0 0-0.1 0 0 0 0.1 0 0 0 0zm-9.6 11.6q0-0.1 0-0.1 0 0.1 0 0.1 0 0 0 0zm6 8.4q0 0 0 0 0 0 0 0 0 0 0 0zm3.8-17.4q0 0 0 0c0 0 0.1-0.1 0.1-0.1 0 0-0.1 0.1-0.1 0.1zm-1-2.8c-0.1 0-0.2 0.2-0.2 0.1 0-0.1-0.1 0-0.1-0.1q0.1 0 0.3 0zm-1.1-1.2q0 0 0 0 0-0.1 0-0.1c0 0 0 0.1 0 0.1zm-0.1 1.4c0.1 0.1 0.1 0.1 0.1 0.2q0 0-0.1 0c0-0.1 0-0.1 0-0.2zm-7.5 9q0-0.1 0-0.1c0 0 0 0 0 0q0 0 0 0.1zm-22 9.7q0 0 0 0zm-6.2-1.3q0 0 0 0 0 0 0 0zm2.6-8.9q0 0 0.1 0c0 0 0 0 0 0 0.1 0.1 0.1 0.2 0 0.3q0-0.2-0.1-0.3 0 0 0 0zm-1.3-2q0-0.1 0-0.2c0 0 0.1 0 0.1 0.1q-0.1 0-0.1 0.1zm6.3 0.6q0 0 0 0 0 0 0 0 0 0 0 0c0 0 0-0.1 0-0.1q0 0.1 0 0.1zm-2.2-1.5c-0.1-0.1 0-0.1 0-0.2q0.1 0.1 0.2 0.2c-0.1 0-0.2 0.1-0.2 0zm-3.8-0.7q-0.1 0-0.1 0.1 0-0.1 0-0.1 0 0 0.1 0zm16.3 3.5q0 0 0 0 0 0 0 0 0 0 0 0zm-0.5 1.7q0 0 0.1-0.1-0.1 0.1-0.2 0.1c0 0 0 0 0.1 0zm1.7 0q0 0 0 0 0 0 0 0 0 0 0 0zm-5.1 1.4c0 0 0 0 0 0q0 0 0 0.1c0-0.1 0 0 0-0.1zm3.4-6.2q0 0 0 0 0 0-0.1 0 0 0 0.1 0zm-0.5-2.7q0 0 0 0 0 0 0 0 0 0 0 0zm-3.8-0.3q0 0 0 0 0 0 0 0 0 0 0 0zm0 0c0 0.1 0 0.2-0.1 0.3q0 0 0 0 0.1-0.1 0.1-0.3 0 0 0 0zm-10.5 9.6q0 0 0 0 0 0 0 0 0 0 0 0zm19.1-3.8c0-0.1 0-0.1 0-0.1q0 0 0 0.1 0 0 0 0zm-2.2-5.6c0-0.1 0 0 0 0q0-0.1 0-0.1 0 0 0 0.1zm-12.3-0.6q0 0 0 0c0 0 0 0-0.1 0 0.1 0 0.1 0 0.1 0zm0-0.1q0 0 0 0c0 0 0 0 0 0q0 0 0 0 0 0 0 0zm-11.1 5q0 0 0 0 0 0 0 0 0 0 0 0zm20.2-5.3c0-0.1-0.1-0.2-0.1-0.3q0.1 0.2 0.2 0.5c0-0.1-0.1 0-0.1-0.2zm-1.1 0.1c0 0 0 0 0-0.1q0.1-0.1 0.1-0.1c-0.1 0.1 0 0.1-0.1 0.2zm-0.7 2.9c-0.1 0.1-0.1-0.1-0.1-0.1q0 0.1 0.1 0.1 0 0 0 0zm-3.7-4.5q0 0 0-0.1 0.1 0 0.1 0c0 0.1-0.1 0-0.1 0.1zm-10.3-2.2q0 0 0 0 0 0 0 0 0 0 0 0zm-3.4 7.7q0 0 0 0 0 0 0 0 0 0 0 0zm-3-0.7q0 0 0 0.1c-0.1-0.1-0.1 0-0.1-0.1 0 0 0 0 0.1 0zm9.6 15.6c0.1 0.1 0.2 0.3 0.2 0.5q0 0 0 0c0.1-0.3-0.1-0.4-0.2-0.5zm5.9-4.8q-0.1 0-0.1 0c0 0 0.1 0 0.1 0zm0.8-5.8c0 0 0 0 0 0.1 0 0 0-0.1-0.1-0.1q0.1 0 0.1 0zm2.8 6.2q0 0 0 0 0 0 0 0 0 0 0 0zm19.6 6.3q0.1 0 0.1 0 0 0 0 0-0.1 0-0.1 0zm5.8-12.4q0 0 0 0 0 0 0 0zm0.7 0.2q-0.1-0.2-0.2-0.3 0.1 0 0.1 0 0 0 0 0 0.1 0.1 0.1 0.3c0 0.1 0 0 0 0zm3.8 0.3q-0.1 0.1-0.1 0.1c0 0 0 0 0 0 0 0 0-0.1 0.1-0.1zm6-1.7c0.1-0.1 0.2 0 0.2-0.1 0 0.1 0.1 0.1 0.1 0.1-0.1-0.1-0.2 0-0.3 0zm5.1-3.8q0 0 0 0 0.1-0.1 0.1-0.1 0 0 0 0 0 0-0.1 0.1 0 0 0 0zm-24.4 1.4q0 0 0-0.1c0 0 0 0.1 0 0.1zm-7.5-7.9c0.1 0.1 0.1 0.1 0.1 0.2q-0.1-0.1-0.1-0.2 0 0 0 0zm-0.2-1q0 0 0 0 0 0 0 0 0 0.1 0.1 0.1-0.1 0-0.1-0.1 0 0 0 0zm-22.3 2.5q0 0 0-0.1 0 0 0 0 0 0.1 0 0.1zm-3.1 2.2q0 0.1 0 0.2-0.1-0.1-0.1-0.2c0 0 0 0.1 0.1 0zm-2.6-2.6c0-0.1 0 0 0-0.1 0.1-0.1 0.3-0.5 0.5-0.4 0.1 0.1 0.1-0.1 0.2-0.1-0.4 0.2-0.6 0.4-0.7 0.6zm-4.1-1.4q0 0 0 0 0 0 0.1 0 0 0 0 0 0 0 0 0 0 0-0.1 0zm-1.1-4.5q0 0 0-0.1 0.1 0 0.1 0c0 0 0 0.1-0.1 0.1zm-3.1 1.6q0 0 0 0 0 0 0 0 0 0 0 0zm-7.5 2.6q0 0 0 0 0 0 0 0 0 0 0 0zm-32.9-1.9q0-0.1 0-0.1 0 0 0 0 0 0 0 0.1zm-4.1 1.2c0.2 0.3 0.4 0.7 0.6 0.9-0.2-0.2-0.4-0.5-0.6-0.9zm-4.7-4c0 0 0 0 0 0q-0.1 0-0.1 0 0.1 0 0.1 0zm-3.1 9.8q0 0 0 0 0 0 0 0 0 0 0 0zm-1 19.4q-0.1-0.1-0.1-0.1c0 0 0 0.1 0.1 0.1q0 0 0 0zm12.5-3.3q0 0 0 0 0 0 0 0 0 0 0 0zm16.7-5.4c0 0 0.1 0.1 0 0.1q0 0 0-0.1 0 0 0 0zm3.2 7.7c0 0 0 0.1 0 0.1q0 0 0-0.1 0 0 0 0zm30.2-12.6c0 0.1 0 0.1-0.1 0.1q0 0 0-0.1 0.1 0 0.1 0zm3 0.7q0 0 0 0 0 0 0 0 0 0 0 0zm0.7 5.8q0 0 0 0 0 0 0 0 0 0 0 0zm23 5c0.1 0 0.2-0.1 0.3-0.2-0.1 0.2-0.2 0.2-0.2 0.5q0 0 0 0c0-0.1-0.1-0.2-0.1-0.3zm8.8 0.4c0 0.1 0 0.1 0 0.1q0 0 0-0.1c0 0.1 0 0 0 0zm17.4-9.3q0 0 0 0c0 0 0.1-0.1 0.1-0.1 0 0.1 0 0.1-0.1 0.1zm7.7-5.3q0 0.1 0 0.1 0 0 0 0 0 0 0-0.1zm0.9-3.1c0-0.1 0 0-0.1 0 0.1 0 0.1-0.1 0.1-0.1q0 0.1 0 0.1zm0 1.6c0 0.2 0.1 0.3 0.1 0.5q0 0 0 0c-0.1 0.2-0.1 0.3-0.2 0q0-0.2 0.1-0.5zm0.3 2c-0.1 0-0.1 0.1-0.1 0.1q0-0.1 0.1-0.1 0 0 0 0zm-7.9-8.4q0 0 0 0 0 0 0-0.1c0 0 0 0.1 0 0.1q0 0 0 0zm-4.1-3.5q0-0.1 0-0.1c0-0.1 0-0.2 0-0.2 0 0.1 0 0.2 0 0.3zm-6.5 2.7c0.1-0.1 0.2-0.3 0.1-0.5 0 0.2 0 0.4-0.1 0.5zm-6.2 7.9q0 0 0 0 0 0 0 0 0 0 0 0zm-5.8 1.8q0 0 0-0.1 0 0 0 0 0 0 0 0.1zm-1.8 1.1q0 0 0 0 0 0 0 0 0 0 0 0zm-0.7-4.3q0.2 0 0.3 0c-0.1 0-0.2 0-0.3 0zm-21.2-7.7q0 0 0 0 0 0 0 0 0.1 0 0.1 0 0 0-0.1 0zm-3.4-0.5c0 0 0 0.1 0 0.1q0 0 0-0.1 0 0 0 0zm-9.9 0.8q0 0 0 0 0 0 0 0c0 0 0 0 0 0.1q0 0 0 0.1c0-0.1 0-0.1 0-0.2zm-0.3-3c0 0-0.1 0-0.1 0q0 0 0.1 0 0 0 0 0zm-47.2 2.1q0 0.1 0.1 0.1-0.1 0-0.1-0.1zm-1.7-2.9c0.1 0 0.3 0 0.3 0.1 0 0.1 0 0.1 0.1 0.2q-0.2-0.2-0.4-0.3zm-2.1 0c0.2 0.1 0.3 0 0.5-0.2-0.2 0.1-0.3 0-0.5 0.2zm-5.4 30.3q-0.1 0-0.1 0 0 0 0.1 0 0 0 0 0zm21-6.3q0 0-0.1 0.1 0-0.1 0-0.1c0 0 0.1 0 0.1 0zm0.2 6.9q0 0 0 0.1 0 0 0-0.1 0 0 0 0 0 0 0 0zm1.5-1.6q-0.1 0.1 0 0.3 0-0.1-0.1-0.1c0-0.1 0-0.1 0.1-0.2zm10.6 4.2c0 0 0 0.1-0.1 0.1q0 0 0.1-0.1 0 0 0 0zm3.3 0.5zm12.7-4.7q-0.1 0-0.1 0 0 0 0 0 0 0 0.1 0zm3-0.9q0-0.1 0.1-0.2-0.1 0-0.1 0.2 0 0 0 0zm3.1-11q0 0.1 0 0.1-0.1 0-0.1-0.1c0.1 0 0 0 0.1 0zm8.9 0.6c0.1 0 0.1-0.1 0.2-0.1-0.1 0-0.1 0.1-0.2 0.1zm10.4 9.7c0 0.3 0.1 0.4 0.3 0.5q-0.1-0.3-0.3-0.4c0 0 0-0.1 0-0.1zm0.2-0.8c0-0.3 0.1-0.5 0.2-0.5-0.1 0.2-0.1 0.3-0.2 0.5zm15.3 0.8q0 0 0 0 0 0 0 0.1 0-0.1 0-0.1zm3 0c0 0.1-0.1 0.2-0.1 0.3 0-0.1 0-0.3 0-0.4 0 0.1 0.1 0 0.1 0.1zm11.9-0.5q0 0 0 0.1 0 0 0 0 0-0.1 0-0.1zm3.1-7.9q0 0 0 0 0 0 0 0 0 0 0 0zm16.4-9.9q-0.1-0.1-0.2-0.2c0.1 0 0.1 0 0.2-0.1q0 0.1 0 0.3zm-1.2-1.3q0 0 0-0.1 0 0 0 0 0 0.1 0 0.1zm-2.1 0.3q0 0 0 0 0 0 0 0 0 0 0 0zm-0.2-8q0 0 0 0 0 0 0 0 0 0 0 0zm-2.2-3.2c-0.1-0.1 0-0.2 0-0.3q0 0.3 0.2 0.3c0 0.1-0.1 0.1-0.2 0zm-3.6 2.6q0 0 0 0 0 0 0 0 0 0 0 0zm-20.4 12.3q0 0 0 0 0 0 0 0 0 0 0 0zm-7.3-12.1c0 0.1 0 0.1 0 0.1q0 0 0-0.1 0 0 0 0 0 0 0 0 0 0 0 0 0 0 0 0 0 0 0 0 0 0 0 0zm-0.8 3.9q0 0 0 0.1c0 0 0-0.1 0-0.1q0 0 0 0zm-21.6 0.3c0 0 0 0.2 0 0.3q0 0 0 0c0-0.1-0.1-0.2-0.1-0.4 0 0.1 0 0.1 0.1 0.1zm-2.8 1.3q0 0 0 0 0 0 0 0 0 0 0 0zm-5.7-1.6q0-0.1 0-0.1c0 0 0.1 0 0.1 0q-0.1 0-0.1 0.1zm-0.1-0.7q0 0 0-0.1 0 0 0 0 0 0.1 0 0.1zm-3.1-2.9q0 0 0 0 0 0 0 0 0 0 0 0zm-18.2 0q0 0 0 0 0 0 0 0 0 0 0 0zm-5 0q0 0 0 0 0 0 0 0 0 0.1 0 0.3 0 0 0 0.1c0-0.2 0-0.3-0.1-0.4q0 0 0.1 0zm-4.8 4.8c0-0.1 0-0.2 0-0.2q0.1 0 0.1 0-0.1 0.1-0.1 0.2zm-22.3-6.2c-0.1 0-0.1 0-0.2-0.1q0.1 0 0.2 0 0 0 0 0.1zm-5.5 9.8q0 0 0 0.1c0 0 0 0-0.1 0q0.1-0.1 0.1-0.1zm-3.6-2.8c0 0.1 0.1 0.1 0 0.1-0.1 0.3-0.2 0.6-0.3 0.9q0 0 0 0c0.1-0.3 0.2-0.6 0.3-1zm-0.2 2.4q0 0.1 0 0.1 0 0 0 0 0 0 0-0.1zm8.6 23.3c0.1 0 0.2 0 0.3-0.1 0.1-0.1 0.1 0.1 0.1 0.1-0.1 0-0.3 0-0.4 0zm-0.3-1.6q0 0 0 0 0 0 0 0 0 0 0 0zm27.2 4q0 0 0.1 0.1c0 0 0 0.1 0 0.1 0-0.1-0.1-0.1-0.1-0.2zm8.6-0.8q0 0 0 0 0 0 0 0 0 0 0 0zm3 0.6q0.1 0.2 0.1 0.3 0 0 0 0c0-0.1-0.1-0.2-0.1-0.2q0 0 0-0.1zm15.7-17.9q0 0 0-0.1c0 0 0 0 0 0q0 0 0 0 0 0 0 0.1zm18.4 12.5q0 0 0 0 0 0 0-0.1 0 0.1 0 0.1zm0.4-0.5c-0.1 0-0.1 0-0.2 0q0.1 0 0.2 0zm13.4 4.3c-0.1-0.1-0.1-0.1-0.1-0.2 0 0 0 0.1 0.1 0.2zm34.1-13.9q0 0.1 0 0.1c-0.1 0-0.1 0-0.1-0.1 0 0 0 0 0.1 0zm13.4-5.8h-0.1 0.1q0.1 0 0.1 0.1 0 0 0 0 0-0.1-0.1-0.1zm6.1 1.1q0 0 0 0 0 0.1 0 0.1 0 0 0 0 0 0 0-0.1zm9.9-12.3q0 0 0 0h0.1q-0.1 0-0.1 0 0 0 0 0 0 0 0 0zm0.3 2.2q0 0.1-0.1 0.1 0 0 0-0.1c0.1 0 0.1 0 0.1 0q0 0 0 0zm-0.1 0.1q0 0 0 0c0-0.1 0 0 0 0 0 0 0 0 0 0zm21.5-3.2q-0.1 0-0.1 0 0 0 0.1 0zm-40 14.5q0 0 0 0 0 0 0 0 0 0 0 0zm-2.8 13.5c0.1-0.1 0.1-0.1 0.2-0.1 0 0 0 0.1 0 0.2q-0.1-0.1-0.2-0.1zm0.9-10q0 0 0-0.1 0 0.1 0 0.1 0 0 0 0zm4.3 7q0 0 0 0.1 0 0 0 0 0-0.1 0-0.1zm0.2 3.9q0 0 0 0 0 0 0 0 0 0 0 0zm15.8-20.3q0 0.1 0 0.1c0 0 0-0.1-0.1-0.1q0 0 0.1 0zm-3.9 8.5q0 0 0 0-0.1 0.1-0.1 0.3 0 0 0 0c0.1 0 0.1-0.2 0.1-0.3zm4-0.4q0 0 0 0c0 0 0-0.1 0-0.1q0 0 0 0.1zm0.2 1.9q0 0 0 0 0 0 0 0zm-8 5.5q0 0.1 0 0.1-0.1 0-0.1 0.1c0-0.1 0-0.2 0.1-0.2zm3-16.5q0 0 0 0.1 0 0 0 0 0-0.1 0-0.1zm-14.3 2.6q0 0 0 0 0 0 0 0 0 0 0 0zm-0.8-3.5c0-0.1 0-0.1 0-0.2 0 0.1 0.1 0.1 0.1 0.2 0 0-0.1 0.1-0.1 0zm-2.5 21.9q0 0 0 0 0 0 0 0 0 0 0 0zm6.3 0.6q0 0 0 0.1 0 0 0 0 0-0.1 0-0.1zm6.7-7.4q0 0 0 0 0 0 0 0 0 0 0 0zm29.5-7.4c-0.1-0.1 0-0.2-0.1-0.3q0.1 0 0.1 0 0 0.1 0 0.3zm2.3 1.5c0-0.1-0.1-0.2 0-0.3 0.1-0.3 0.2-0.2 0.3 0-0.1 0.1-0.2 0.2-0.3 0.3zm0.3 2.2c0 0.4 0 0.5 0.1 0.7q-0.1-0.2-0.3-0.3c0-0.2 0.1-0.4 0.2-0.4zm0.8-5.3q0 0 0 0 0 0 0 0 0 0 0 0zm2.3-12.7q-0.1 0-0.1 0c0.1 0 0 0 0.1 0 0 0 0 0 0 0zm-11.7 20q0.1-0.1 0.1-0.1c-0.1 0 0 0-0.1 0.1q0 0 0 0zm-2.4-7.8q0 0 0 0 0 0 0 0 0 0 0 0 0 0 0 0zm-3.6-1.6c0 0 0.1 0 0.1 0 0 0.1 0 0-0.1 0.1q0-0.1 0-0.1zm0.6 3.4q0 0 0 0 0 0 0 0 0 0 0 0zm5.6 5.7q-0.1 0.1-0.1 0.1c0 0 0 0 0 0q0 0 0 0c0 0 0-0.1 0.1-0.1zm2.1-6q0 0 0 0.1c0 0-0.1 0-0.1 0 0.1 0 0.1-0.1 0.1-0.1zm-3.4 6.4q0 0 0 0 0 0 0 0 0 0 0 0.1 0-0.1 0-0.1 0 0 0 0 0 0 0 0zm0.7 1.9q0.1 0.1 0.1 0.3c0 0 0.1 0 0.1 0 0 0-0.1 0-0.1 0q0-0.2-0.2-0.3 0.1 0 0.1 0zm14.4-18.2c0 0 0 0 0 0q0 0 0 0 0 0 0 0zm-1.9-7.9q0 0 0 0 0 0 0 0 0 0 0 0zm-7.4 12.6q0-0.1 0-0.1 0 0 0 0.1 0 0 0 0zm-1.2-2.7q0.1 0 0.1 0c0 0 0 0 0 0.1q0-0.1-0.1-0.1zm-8-1.4q-0.1 0-0.2 0c0-0.2 0.1-0.2 0.2 0zm-12.9 4.1c0 0-0.1 0-0.1 0.1q0-0.1 0-0.1c0 0 0.1-0.1 0.1 0q0 0 0 0zm-2.5-7.6c0-0.1 0-0.1 0.1-0.1-0.1 0-0.1 0.1-0.1 0.1q0 0 0 0zm-10.3 11.3q0 0 0.1 0-0.1-0.1-0.1-0.1 0 0 0 0 0 0 0 0.1zm-6 20.7q0 0.1 0 0.1c0 0 0 0-0.1-0.1 0.1 0 0.1 0 0.1 0zm2.2-13.7q0 0 0 0 0 0 0 0 0 0 0 0zm27.4-2.6q0 0 0 0 0 0 0 0 0 0 0 0zm0.2 1.6q0 0 0 0 0 0 0 0 0 0 0 0zm5.9 3.9q0 0 0 0 0 0 0 0 0 0 0 0zm3.6-3.2c0.1 0.1 0 0.1 0 0.1q0 0 0 0 0 0 0-0.1zm12.1-9.3q0 0 0 0.1 0-0.1 0-0.1zm-24.3-8.5q0 0 0 0 0 0 0 0-0.1 0-0.1 0 0.1 0 0.1 0zm-2.2 1.2c0 0 0 0.3 0 0.4-0.1-0.1 0-0.3-0.1-0.4q0.1 0 0.1 0zm-6.4 6.2q0 0 0 0 0 0 0 0zm-0.8-3.8c0.1-0.1 0.1-0.2 0.2-0.3 0 0.1-0.1 0.2-0.2 0.3zm-8.3 12.9q0 0 0 0v-0.1c0 0 0-0.1 0-0.1 0 0 0 0.1 0 0q0 0.1 0 0.1 0 0.1 0 0.1zm-10.2-18.1q0 0 0 0 0 0 0 0 0 0 0 0zm-1.9 6.2c0 0-0.1 0-0.1 0q0 0 0-0.1c0.1 0.1 0.1 0.1 0.1 0.1zm-6.1-8.1q0 0 0.1 0-0.1 0-0.1 0 0 0 0 0zm-0.2-0.4q0 0 0 0 0 0 0 0zm-14.7 7.1q0 0 0 0 0 0 0 0 0 0 0 0zm-4.2-8.5c0-0.1 0.1-0.1 0.1-0.2q0 0.1 0 0.1 0 0-0.1 0.1zm-11.5-0.8q0 0 0 0 0 0 0 0zm-4.2 5.3q0 0.1-0.1 0.2c0-0.2 0.1-0.4 0-0.5q0 0 0 0c0.1 0.1 0.1 0.2 0.1 0.3zm-4.7 0.1q0.1 0.3 0.3 0.4-0.2 0-0.3-0.4zm-11.1-0.3c0 0 0.1-0.1 0.2 0 0 0-0.2 0-0.2 0zm-14.5-0.9q-0.1 0-0.1 0c0 0 0-0.1 0-0.1 0.1 0 0 0.1 0.1 0.1zm-12.4-2.3q0 0 0 0 0 0 0 0 0 0 0 0zm0-2.9c0 0 0 0 0 0q0 0 0 0 0 0 0 0zm-15.1 1.6q0 0 0 0 0 0 0 0.1 0-0.1 0-0.1zm-14.7-0.8c0 0-0.1 0-0.1-0.1q0.1 0 0.1 0 0 0.1 0 0.1zm-13 2.5q0 0 0-0.1 0 0 0 0 0 0 0 0 0 0.1 0 0.1zm-1 1.9q-0.1 0-0.1 0.1c0-0.1 0-0.1 0.1-0.1q0 0 0 0zm5 31.2q0 0 0 0 0 0 0 0 0 0.1 0 0.1 0 0 0 0 0 0 0-0.1zm51.5-14.1c0 0.2 0.1 0.2 0.1 0.4 0-0.1-0.1-0.2-0.1-0.2 0-0.1 0-0.1 0-0.2zm3.2 0.3q0 0 0 0 0 0 0 0.1 0-0.1 0-0.1zm6.1 11.6q0 0 0 0 0 0 0 0 0 0 0 0zm1.4 3.3q-0.1 0-0.2 0 0.1 0 0.2 0zm1.8 0.6c0-0.1 0-0.2 0-0.2 0 0 0.1 0 0.1 0 0 0 0 0.1-0.1 0.2zm28.3 0.9q0 0 0 0 0 0 0 0 0 0 0 0zm0.4-0.6q0 0 0 0-0.1 0.1-0.1 0.2c0-0.1 0.1-0.1 0.1-0.2zm8.6-5.9c0 0.1 0 0.2 0 0.2 0.1 0.1 0.2 0 0.3 0 0 0.1 0 0.3-0.1 0.3-0.1-0.4-0.2-0.3-0.4-0.3q0.1-0.1 0.2-0.2zm1.3 0.6q0 0.1 0 0.1 0 0 0 0 0-0.1 0-0.1zm0.8 0.2q-0.1 0-0.1 0 0 0 0.1 0zm2.9-1.2c0.1 0.1 0 0.2 0 0.2 0 0-0.1 0-0.1 0q0.1-0.1 0.1-0.2zm7 3.2c0-0.1 0-0.1 0-0.1q0 0 0 0.1zm1.7 4c0.3-0.2 0.6-0.5 0.7-1.1q0 0 0 0c-0.2 0.4-0.6 0.6-0.7 1.1zm5-16.6c0 0 0 0 0 0.1q0 0 0 0 0-0.1 0-0.1zm19.5 13.1q0 0 0 0 0 0 0 0 0 0 0 0zm10.8-12.6c-0.1-0.1 0-0.2 0-0.3q0 0 0 0c0 0.1 0 0.2 0 0.3zm16.9-23.5q0 0 0 0 0 0 0 0 0 0 0 0zm-0.3 10q0 0 0-0.1 0 0 0.1 0.1-0.1 0-0.1 0zm-1.3-7.1q0 0 0 0 0.2 0.1 0.3 0.2c-0.1 0-0.2-0.1-0.3 0 0-0.1 0-0.1 0-0.2q0 0 0 0zm-2.3 7.9q0 0-0.1-0.1 0.1 0 0.1 0 0 0.1 0 0.1zm-22.5-4q0 0 0 0 0-0.1 0-0.2 0 0 0 0c0 0.1 0 0.1 0 0.2zm-7 9c0-0.2-0.1-0.3-0.1-0.5 0.1 0 0.2 0.1 0.2 0.2q-0.1 0.2-0.1 0.3zm-15-5.7q0-0.1 0-0.1 0 0 0 0c0 0 0 0 0 0.1zm-0.4-0.3q0-0.1 0-0.1 0 0 0 0.1zm-10.3-9.4q0 0 0 0 0 0 0 0 0 0 0 0zm-20.3 17.5q0-0.1 0-0.1c0 0 0.1 0 0.1 0q-0.1 0-0.1 0.1zm-0.2-4q-0.1 0-0.1 0c0-0.1 0-0.1 0-0.1q0 0 0.1 0.1 0 0 0 0zm-25-11.6q0 0 0 0 0 0 0 0 0 0 0 0 0 0 0 0zm-4.1 5.1c0 0 0.1-0.1 0-0.1q0 0 0 0 0 0 0 0.1 0 0 0 0zm-7.4-4.5q0-0.1 0-0.1 0 0 0 0 0 0.1 0 0.1zm-11.1 0q0 0 0 0 0 0 0 0 0-0.1 0.1-0.2 0 0.1 0 0.2-0.1 0-0.1 0zm-0.4-3.1c0-0.1 0-0.2 0.1-0.2 0 0 0 0.1 0 0.1q0 0.1-0.1 0.1zm-1.6-1.4q0 0 0 0.1 0-0.1 0-0.1 0 0 0 0zm-14.3 3.5q0 0 0 0.1 0 0 0 0 0 0 0-0.1zm-0.4 0.5q0 0.4 0 0.9c0 0.1 0 0.2-0.1 0.2 0.2-0.5 0.2-0.8 0.1-1.1q0 0 0 0 0 0 0 0zm-4.9 4.3q0 0.1 0 0.1 0 0 0 0v-0.1c0 0 0 0 0 0 0 0 0 0 0.1 0q-0.1 0-0.1 0zm-7.4-6.4h-0.1c0 0.1-0.1 0.1-0.1 0.1-0.1-0.1-0.1-0.1-0.2-0.2q0.2 0.1 0.3 0.1 0 0 0.1 0zm-21.5 37.1q0 0 0 0 0 0 0 0 0 0 0 0zm2.8-0.5q0 0 0 0.1 0 0 0-0.1 0 0 0 0zm12 3.8c0.1 0.1 0 0.4 0 0.7q0 0 0 0 0 0 0 0.1c0-0.3 0-0.6 0-0.8q0 0 0 0zm10.8-0.8c0 0 0 0 0 0.1q0-0.1 0-0.1zm7.5 2.3q0.1 0 0.1 0c0 0-0.1 0-0.1 0q0 0 0 0 0 0 0 0 0 0 0 0zm10.1-1.3q0 0 0 0 0 0 0 0c0.1 0.1 0.1 0.1 0.2 0.2q-0.1-0.1-0.2-0.1c0 0 0-0.1 0-0.1zm6.5-0.6c0.1 0.1 0.2 0.1 0.2 0.1q0 0 0 0.1c-0.1-0.1-0.1-0.1-0.2-0.2zm3.1-1.6c0.1 0.1 0.1 0.1 0.2 0.2-0.1-0.1-0.2 0-0.2-0.2zm12.2-9.3c-0.1 0.1 0 0.2 0 0.3-0.1-0.1-0.1-0.2-0.1-0.2 0 0 0-0.1 0.1-0.1zm46.7 8.2q0 0 0 0-0.1 0.1-0.2 0.1c0.1 0 0.1-0.1 0.2-0.1zm1.3 1.5c-0.1-0.3-0.2-0.3-0.3-0.5 0.2 0.1 0.3 0.3 0.4 0.4 0 0.1-0.1 0-0.1 0.1zm1.1-0.7c0 0.1 0 0.2 0 0.3-0.1-0.1-0.2-0.2-0.3-0.2 0.1-0.1 0.2 0 0.3-0.1zm11.2-2.6q0 0-0.1 0 0 0 0 0 0 0 0.1 0zm11.8 5.5q0 0 0 0 0 0 0 0 0 0 0.1 0-0.1 0-0.1 0 0 0 0 0zm2.2-3.7c0 0.1 0 0.1 0 0.1q0 0-0.1 0c0.1 0 0 0 0.1-0.1zm4.7 1.4q0 0 0.1 0-0.1 0-0.1 0zm3.6 1.1q0 0 0 0 0 0 0 0 0 0 0 0zm31.1-6.6q0 0.1 0 0.2 0-0.1 0-0.1 0-0.1 0-0.1zm5.5-5.8c-0.1 0.1 0 0.2 0 0.2q0-0.1 0-0.2 0 0 0 0zm4.4-13.1c-0.1 0-0.2 0-0.2-0.2q0 0 0-0.1 0.1 0.2 0.3 0.3c-0.1 0-0.1 0-0.1 0zm-2.2-16.2q0-0.1 0-0.1 0 0 0 0.1 0 0 0 0zm-6.1 3.6q0 0 0 0 0 0 0 0c0 0 0 0.1 0 0zm-1.3-1.7q0-0.1 0.1-0.2 0 0.2 0.1 0.4c0-0.1-0.1-0.2-0.2-0.2zm-1.3-0.6c-0.1-0.3-0.2-0.1-0.3 0q0.1-0.2 0.3 0 0 0 0 0zm-5.6 0.3c0 0 0 0 0-0.1 0 0.1 0 0 0.1 0q-0.1 0.1-0.1 0.1zm-2.3 6.1q0 0 0 0 0 0 0 0 0 0 0 0zm-4-6c0 0-0.1 0-0.1 0 0-0.1 0-0.2 0-0.3 0 0.1 0.1 0.2 0.1 0.3zm-5 5.3c0-0.1 0-0.1 0-0.2 0 0.1 0.1 0.2 0.1 0.3 0 0-0.1-0.1-0.1-0.1zm-15.5 14q0 0 0-0.1c0 0.1 0 0.1 0 0.1zm-9-16.2q0 0 0 0 0 0 0 0 0 0 0 0zm-6 2.6q0 0 0 0 0 0 0 0 0 0 0 0 0 0 0 0zm-11.7-8.7q0.1 0 0.1 0.1c-0.1 0-0.1-0.1-0.1-0.1 0 0 0 0 0 0zm-2.5 4.3q0 0 0 0 0 0 0 0 0 0 0 0zm-6.4 1.5c-0.1-0.1-0.2-0.2-0.3-0.1 0.1-0.1 0.2 0 0.3 0.1q0 0 0 0 0 0 0 0zm-7.1 7.5q0 0 0 0c-0.2 0.3-0.2 0.6 0 0.9-0.3-0.3 0-0.6 0-0.9zm-8.2-11q-0.1 0.1-0.1 0.1 0.1 0 0.1-0.1zm-45.7-1.3q-0.1 0.2-0.2 0.3c0.2 0 0.2-0.2 0.2-0.3q0 0 0 0zm-18.4 8.1c-0.1 0-0.2 0-0.2 0.1-0.1-0.1-0.1-0.1-0.1-0.2 0.1 0.1 0.2 0.1 0.3 0.1zm-12.9-2.7q0 0-0.1 0 0.1 0 0.1 0zm-15.7 5c-0.1 0 0 0 0 0.1q-0.1 0-0.1 0c0-0.1 0-0.1 0.1-0.1zm-4.7 27q0 0 0 0 0 0 0 0zm3.6 2.9q0 0.1 0 0.1 0 0 0 0 0 0 0-0.1zm14.2 3.2c0 0.2 0 0.3 0.1 0.5q0 0 0 0 0-0.3-0.1-0.5 0 0 0 0zm2.4-2.2q0-0.1 0-0.1 0 0 0 0 0 0 0 0 0 0 0 0 0 0 0 0.1zm12.7 1.8q0 0 0 0.1 0 0 0 0 0 0 0 0 0-0.1 0-0.1zm18.7 0.1c0 0.3 0.1 0.3 0.1 0.5-0.1-0.1-0.2 0-0.3 0q0.1-0.3 0.2-0.5zm10.6-2.3q0 0 0 0 0 0 0 0 0 0 0 0 0 0 0 0zm17.4 1.3c0 0.2 0.1 0.3 0.2 0.4-0.1 0-0.2 0.1-0.3 0.1 0-0.2 0.1-0.3 0.1-0.5zm14.5 1.3q0 0 0 0 0 0 0 0 0 0 0 0zm5.5-1.9c-0.1 0.1 0 0.1-0.1 0.1 0 0 0 0 0 0q0-0.1 0.1-0.1zm3.4 0.3q0 0 0 0 0 0 0 0zm1.6 0.3q0.1 0.1 0.1 0.1c0 0-0.1-0.1-0.1 0q0-0.1 0-0.1zm32.4 1c0 0 0 0 0 0q0 0 0 0 0 0 0 0zm2.7 1.9q0 0 0 0 0 0 0 0 0 0 0 0zm14.1-4.3q0 0 0 0 0 0 0 0zm7.7-1.6c0.1 0 0.1 0.1 0.2 0.2-0.1 0-0.2 0.1-0.4 0.2 0.1-0.2 0.2-0.2 0.2-0.4zm9.1-5.8q0 0 0 0 0 0 0 0 0 0 0 0zm0 2.2q0 0 0 0c0 0.1 0 0.1 0 0.1q0 0 0 0 0 0 0 0.1 0 0 0 0c0 0 0-0.1 0-0.2zm3.7 0.5q0 0 0 0 0 0 0 0 0 0 0 0 0 0 0 0zm17.1-22.9q0.1 0 0.1 0 0 0-0.1 0 0 0 0 0zm1.5-1.4c0 0 0 0 0 0q-0.1 0-0.1 0 0 0 0.1 0zm-9.9-12.8q0 0 0 0 0 0 0 0 0 0 0 0zm-13.4 2.6c0 0 0 0 0-0.1q0 0.1 0 0.1 0 0 0 0zm-1.5 1.9q0 0.1 0 0.1 0 0-0.1-0.1 0.1 0 0.1 0zm-8.2 3q0 0 0 0.1c0-0.2-0.1-0.2-0.1-0.4 0 0.1 0.1 0.2 0.1 0.3zm-11.5-4.6q0 0 0 0 0 0 0 0 0 0 0 0 0 0 0 0 0-0.1 0-0.2 0 0 0 0 0 0.1 0 0.2zm-5.6-3q0.1 0.1 0.1 0.1c-0.1 0.1-0.1 0.1-0.1 0.1q0-0.1 0-0.2zm-1.2 0.2c0.1-0.1 0.2-0.2 0.3-0.2 0 0 0 0.1 0.1 0.2-0.2 0-0.3 0-0.4 0zm-11.9-1.5q-0.1 0-0.1 0 0.1 0 0 0 0 0 0.1 0zm-2.1 0.5q0 0 0 0c-0.3 0.2-0.6-0.1-0.8-0.1q0 0-0.1 0c0.3 0.3 0.6 0.4 0.9 0.1zm-4.6 0.2q0 0 0 0 0 0 0 0 0 0 0 0zm-13.3 2.1c0 0 0 0 0 0q0 0 0 0 0 0 0 0zm-6.1 13.7q0 0 0 0 0 0 0 0 0 0 0 0zm-4.4-12.8q0 0 0 0 0 0 0 0 0 0 0 0zm-19.6 3.5c0-0.1-0.1-0.1-0.1-0.2q0.1 0.1 0.1 0.1 0 0 0 0.1zm-0.6-1q0.1 0.2 0.2 0.3 0 0 0 0-0.1-0.1-0.2-0.3-0.1 0-0.1 0 0 0 0.1 0 0 0 0 0zm-2.9-0.3q0 0 0 0 0 0 0 0 0 0 0 0zm-12.1-1.7q0 0 0 0 0 0 0 0zm-13.9-3.2q0 0 0 0c-0.2-0.4-0.4-0.3-0.6-0.4 0 0 0 0 0 0 0.2 0.2 0.4 0.3 0.6 0.4zm-3.7 3.6q0 0 0 0 0 0 0 0 0 0 0 0zm-13.5 0.7v-0.1q0 0.1 0.1 0.1-0.1 0-0.1 0zm-1.7-1.6c-0.1 0.1-0.2 0.1-0.3 0.1 0.1 0 0.1 0 0.3-0.1zm-18.3-0.7q0 0 0-0.1 0 0.1 0 0.1 0 0 0 0zm-14.9 7.2c0.1-0.1 0.1-0.2 0.1-0.3 0 0.2 0 0.3 0 0.5q0-0.2-0.1-0.2zm2 30.8q0 0 0 0-0.1 0-0.2 0 0 0 0 0c0.1 0 0.1 0 0.2 0zm2.8 4.2q0 0 0 0 0 0 0 0zm4 1q0 0 0.1 0c0 0-0.1 0-0.1 0 0 0 0 0 0 0zm30 2.8q0 0 0 0 0 0 0 0 0 0 0 0zm5.7 0.7q0 0 0 0-0.1 0-0.2 0 0 0 0 0c0.1 0.1 0.2 0.1 0.2 0zm76.2-4.7q0.1 0 0.1 0.1c0 0-0.1-0.1-0.1 0q0-0.1 0-0.1zm40.4-3c0 0 0 0 0 0q0 0 0 0 0 0 0 0zm10.5-5.1q0 0 0 0 0-0.1 0-0.1 0 0.1 0 0.1zm7.2 8.2c0 0 0 0 0 0.1-0.1 0-0.1 0-0.1 0q0.1-0.1 0.1-0.1zm1.9-5.3c0.1 0 0 0 0.1 0.1-0.1 0-0.1 0.2-0.1 0.2 0-0.1 0-0.2 0-0.3zm8 0.2q0.1 0 0.2 0.1c0 0-0.1 0-0.2-0.1zm8.2-25.1q0 0 0 0 0 0 0.1 0 0 0 0 0-0.1 0-0.1 0zm8.1-5.2c0.1 0 0.1 0 0.1 0q0 0-0.1 0zm-2.5 6.1q0 0 0 0.1 0-0.1 0-0.1 0 0 0 0zm-0.3 0.4q0 0.1 0 0.1 0 0-0.1-0.1 0.1 0 0.1 0zm0.9-3.6q0 0 0.1 0.1-0.1 0-0.1 0h0.1q-0.1 0-0.1 0 0 0 0 0 0-0.1 0-0.1zm0.1 3q0 0 0 0c0-0.1 0-0.1 0-0.1q0.1 0.1 0.1 0.2c-0.1 0-0.1-0.1-0.1-0.1zm0.9-0.4q0 0 0 0c-0.1-0.2-0.3 0-0.5 0 0.2 0 0.4 0.1 0.5 0zm6.5-1q0 0 0 0 0 0.1 0 0.1c0 0 0 0 0-0.1zm0.4 0.6q-0.1 0-0.1 0.1c0 0 0-0.1 0.1-0.1zm-1-1.2q-0.1 0-0.1-0.1c0 0 0.1 0 0.1 0q0 0 0 0.1zm-7.5-1q0 0 0 0 0-0.3 0-0.6 0 0 0 0c-0.1 0.2-0.2 0.4 0 0.6zm5.6-2.5q0 0 0 0 0 0 0.1 0 0 0-0.1 0zm-36.9-10.9q0 0 0-0.1 0 0 0 0c0 0.1 0.1 0.1 0 0.1zm-1.8 1.8q0.1-0.1 0.2 0.1-0.1-0.1-0.2-0.1zm-1.7 0.9q0-0.1-0.1-0.1 0.1-0.1 0.2-0.1-0.1 0.1-0.1 0.2zm-4.3-2.7q0 0 0 0 0 0 0 0 0 0 0 0zm-0.6 1.5q0 0-0.1 0 0.1 0 0.1 0 0 0 0 0zm-4 4.4q0 0 0 0 0 0 0 0 0 0 0 0zm-1.4-0.1q0 0 0 0c0 0 0.1 0 0.1 0q-0.1 0-0.1 0zm-6.9 8.4q0 0 0 0 0 0 0 0 0 0 0 0zm-8.1-12.7c0 0 0 0-0.1 0 0.1 0 0.2-0.1 0.2-0.2 0 0.1 0 0.1-0.1 0.2zm-7.1 6.9c0.1-0.2 0.2-0.2 0.2-0.5 0.1 0.3 0.2 0.3 0.2 0.5q-0.2-0.1-0.4 0zm-0.9 1.5q0-0.1 0.1-0.1c0 0-0.1 0.1-0.1 0.1zm-16.2-1.1q-0.1 0-0.1 0.1 0-0.1 0.1-0.1c0 0-0.1 0 0 0zm-6.9-7.5c0.1-0.1 0.1-0.2 0.2-0.1 0.1 0 0 0.1 0.1 0.1-0.1 0-0.2 0-0.3 0zm-8.9 2.8q0 0 0 0 0 0 0 0 0 0 0 0zm-13 4.5q0 0 0 0 0 0 0 0 0 0 0 0zm-4.2-3.2q0 0 0 0c0 0.3 0 0.7-0.1 0.9 0.1-0.3 0.2-0.5 0.1-0.9zm-3.8 1.6q0 0 0-0.1c0 0 0 0 0 0q0 0.1 0 0.1zm-1.9-0.4q0 0 0 0.1 0 0 0.1 0-0.1 0-0.1 0c0-0.1 0-0.1 0-0.1q0 0 0 0zm-2.3-0.5q0 0 0 0 0 0 0.1 0-0.1 0-0.1 0zm-4.5 0.1q0 0 0 0 0 0 0-0.1c0 0.1 0 0.1 0 0.1zm0 0.1q0 0 0 0.1 0 0 0 0 0-0.1 0-0.2 0 0 0 0.1zm-1.3-2.2q0 0 0.1 0 0 0 0 0c0 0-0.1 0-0.1 0zm-0.1 0c0-0.1 0-0.2 0-0.3q0 0 0 0 0 0.1 0 0.3zm-0.1 0.3c0 0 0 0.1 0.1 0.1 0 0-0.1-0.1-0.1-0.1q0 0 0 0zm-2.6 0.3q0-0.1 0-0.2 0 0.1 0 0.2 0 0 0 0zm-4.2 1.1q0 0 0 0 0 0.1 0 0.2 0 0 0 0 0-0.1 0-0.2zm-7.8-3.4q0-0.1 0.1-0.1-0.1 0-0.1 0.1zm-8.2 1.7c0 0 0 0 0 0q0 0 0 0 0 0 0 0zm-3.2 0q0 0 0 0 0 0 0-0.1 0 0 0 0.1zm-12.3-1.3q0 0 0 0 0 0 0 0 0 0 0 0 0 0 0 0 0 0 0 0zm0-0.3q0 0 0 0 0 0 0 0 0 0 0 0zm-24.2 3q0.1-0.2 0-0.5 0 0 0 0 0 0.3 0 0.5zm-1.5 3.7q0 0 0 0 0 0 0 0c0 0 0 0 0 0zm-7.5 21c0 0.1 0 0.1 0 0.2q-0.1-0.1-0.1-0.1 0.1-0.1 0.1-0.1zm2.1 10.3q0 0 0 0 0 0 0 0 0 0 0 0zm18.5 7.2q0 0.2 0 0.3 0 0 0 0c0-0.1 0-0.2 0-0.3zm9 3.9q0 0 0 0 0 0 0-0.1 0 0 0 0.1zm0.4 0.2q0 0 0 0 0 0-0.1 0 0 0 0.1 0zm5.8-2.1c0 0.1 0 0.1 0 0.2 0-0.1 0-0.2-0.1-0.2q0 0 0.1 0zm9.7 3.3q0 0 0 0 0 0 0 0.1 0 0 0 0 0-0.1 0-0.1zm13.9-5.1c0.1 0 0.1 0 0.1 0q0 0-0.1 0.1c0-0.1 0-0.1 0-0.1zm36.3 0.3c-0.1-0.3-0.3-0.4-0.5-0.3q0 0 0 0c0.2 0 0.3 0.2 0.5 0.3zm4.7-1.2q0.1 0 0.1 0c0 0 0 0 0 0q0 0-0.1 0zm28.9-0.9q0 0.1 0 0.1c0 0-0.1 0-0.1 0 0-0.1 0.1 0 0.1-0.1zm35.6-0.7zm5.8-1.1c0 0 0 0 0 0q0 0 0 0 0 0 0 0zm5.7 2.7q0 0 0 0-0.1 0-0.1-0.1 0 0 0.1 0c0 0 0 0.1 0 0.1q0 0 0 0 0 0 0 0 0 0 0 0zm8.3-1.3c0.1 0 0 0.1 0 0.1 0 0 0 0-0.1 0q0.1-0.1 0.1-0.1zm12.2-28.6c0.1 0 0.1 0 0.1 0 0.1-0.1 0.2 0.1 0.3 0.2q0 0 0 0-0.2-0.1-0.4-0.2zm9.5-0.2q-0.1-0.1-0.1-0.3 0 0 0 0 0 0 0.1 0-0.1 0.2 0 0.3zm2.1-0.9q0 0 0 0c-0.1 0.2-0.3 0.4-0.4 0.7 0 0 0 0 0 0 0.2 0 0.3-0.4 0.4-0.7zm3.8 1.7q0-0.1 0-0.1 0 0 0 0.1 0 0 0 0zm-13.4-12.4q0 0 0 0 0 0 0 0 0 0 0 0zm-6.2-5.1q0 0 0 0 0 0 0 0 0 0 0 0zm0 0q0 0 0 0 0 0 0 0zm-17.6-0.3q0 0 0 0 0 0 0 0zm-0.9 0.4q0-0.1 0-0.1c0 0 0.1 0 0.1 0.1-0.1 0-0.1 0-0.1 0zm-1.7-0.5c0 0 0 0.1 0 0.1q0 0 0 0 0-0.1 0-0.1zm-3.2 4q0 0 0 0 0 0 0 0 0 0 0 0zm-2.4-0.8q-0.2 0.2-0.4 0.4c-0.1-0.1 0-0.2 0-0.3 0.1 0 0.2-0.1 0.4-0.1zm-20.6-2.2q0-0.7 0-1.4-0.4 0.7 0 1.4zm-23.3-2.3c0 0 0 0.1 0 0.1 0 0 0-0.1 0-0.1q0 0 0 0zm-7.4 7.2q0 0 0 0 0 0 0 0zm-23.1-4.5q0 0.2 0.1 0.3-0.1 0-0.1 0 0-0.1 0-0.3zm-4.9 0.9q0 0 0 0 0 0 0 0c0 0 0 0 0 0zm-2.5 3.2q0 0 0-0.1 0 0.1 0 0.1 0 0 0 0zm-0.2-2.2c-0.2 0-0.3 0-0.5 0.1q0.3-0.1 0.5-0.1 0 0 0 0zm-0.7 0.3q-0.1 0.1-0.2 0.1c0 0 0.1 0.1 0.2-0.1zm-5.4-1.5q0 0 0 0 0-0.1 0-0.1 0 0 0.1 0-0.1 0.1-0.1 0.1zm-1.1 0.3q0 0.1 0 0.1 0-0.1 0-0.1 0 0 0 0zm-5.9 1.9c0 0-0.1-0.1-0.1-0.1q0.1 0 0.1 0.1 0 0 0 0zm-72.3 4.2q0 0 0 0.1c-0.1-0.1-0.1-0.1-0.1-0.1 0 0 0 0 0.1 0zm-1.7 31.1q0 0 0 0 0 0 0 0 0 0 0 0zm37.7 11.1q0 0 0 0 0 0 0 0 0 0 0 0zm3.9-0.1q0 0 0.1 0-0.1 0-0.1 0 0 0 0 0zm3.3 0.1c0 0 0 0 0 0q0 0 0 0 0 0 0 0zm8.5 2.3q0 0 0 0 0 0 0 0zm5.8-2.9q0 0 0 0 0 0 0 0 0 0 0 0zm8-2.4c0 0.1 0 0.1 0 0.1q0 0 0 0c0 0 0-0.1 0-0.1zm13.9 3c0 0-0.1 0-0.1 0 0 0 0.1-0.1 0.1-0.1q0 0.1 0 0.1zm15.7-2.2q0 0 0 0 0 0 0 0 0 0 0 0zm1.2 2.3q0 0 0 0 0 0.4 0 0.7c0-0.2 0-0.3 0-0.7zm13.5 0.5c0 0.1-0.2 0.2-0.2 0.3 0-0.1 0.1-0.2 0.2-0.3zm19.7-1.4c0.1 0.2 0.3 0.1 0.5 0.2-0.2 0-0.5 0-0.6 0.1 0-0.1 0.1-0.2 0.1-0.3zm16.3 0.5q0 0 0 0 0 0 0 0 0 0 0 0 0 0 0 0zm18.8-3c0 0 0.1 0 0.1 0q0 0 0 0c0 0 0 0-0.1 0zm1.2-0.6c0 0 0 0 0 0q0 0 0 0c0 0 0 0 0 0zm8.5-1.4q0 0.1 0.1 0.1-0.1-0.1-0.1-0.1 0 0 0 0zm2.9 2.1c0.1 0.1 0.1 0 0.2 0.1q-0.1 0-0.1 0c0 0-0.1 0-0.1-0.1zm10.8-1.3q0 0 0 0 0 0 0 0c0.1 0.1 0.1 0.1 0.2 0.1q0 0 0 0-0.1 0-0.2-0.1 0 0 0 0zm-0.1-1.3c0 0 0 0 0 0q0 0 0.1 0-0.1 0-0.1 0zm3.1-6.8c0-0.1 0-0.1 0-0.1 0-0.1 0.1-0.2 0.1-0.2q0 0.1-0.1 0.3zm2.4-1.9c0 0 0 0 0.1 0q-0.1 0-0.1 0zm3.5-2.9q0 0 0 0zm-1.4-4.8q0 0 0-0.1 0 0.1 0 0.1 0 0 0 0zm6.7-8.4q0 0 0 0 0 0-0.1 0 0.1 0 0.1 0zm4.6-1q0 0.1 0 0.1 0 0 0 0 0-0.1 0-0.1zm1.2-1.5q0 0 0 0 0 0 0 0 0 0 0 0zm-2.7-8.9q-0.1-0.2-0.2-0.3c0.2 0 0.3-0.1 0.4 0 0 0.2-0.1 0.2-0.2 0.3zm-1.7-0.9q0 0 0 0 0 0 0 0 0 0 0 0zm-6.7-5.5c-0.1 0-0.2 0-0.2 0.1q0-0.1 0-0.1c0 0 0.1 0 0.2 0zm-7.8-2.7q0 0.4 0.1 0.8 0 0.1 0 0.1v-0.1q0 0.1 0 0 0.2-0.4-0.1-0.8 0 0 0 0zm-1.2-1.9q0 0-0.1 0c0 0 0 0 0 0q0 0 0.1 0zm-18.6 1.6q0 0 0.1-0.1 0 0 0 0.1-0.1 0-0.1 0zm-1.7-1.4q0 0 0 0 0 0 0 0 0 0 0 0zm-2.9 3.4q0 0 0-0.1 0 0 0 0c0 0 0 0.1 0 0.1zm-7.2-2.1q0 0 0 0 0-0.1 0-0.1 0 0.1 0 0.1zm-1.2-0.7c-0.1 0.1-0.1 0-0.2 0.1q0-0.2 0-0.4c0.1 0.1 0.1 0.3 0.2 0.3zm-1.2-2.3c0 0.2 0.1 0.3 0.1 0.4 0-0.1-0.1-0.2-0.1-0.4zm-8.8 2.4q0 0 0 0 0 0 0 0 0 0 0 0zm-3.4 1c0.1 0.1 0.2 0.2 0.3 0.2v-0.1q0 0 0 0v0.1q0 0 0 0c-0.1-0.1-0.2-0.1-0.3-0.2q0 0 0 0zm-5.4 1.2q0 0 0 0 0 0 0 0 0 0 0 0zm-6.4-1.7q0 0 0 0 0 0.1 0 0.1 0 0 0 0 0 0 0 0 0 0 0-0.1zm-9.6 3q0 0 0.1 0 0 0-0.1 0 0 0 0 0zm-11.6-3.7q0 0.1 0 0.1 0 0 0-0.1zm0 1q0 0.1 0 0.2 0 0 0 0c0-0.1 0-0.1 0-0.2zm-2.6 6.6q0 0 0 0 0 0 0 0 0 0 0 0zm-3.5-4q0-0.1 0.1-0.1c0 0 0 0 0 0.1 0 0-0.1 0-0.1 0zm-18 0.5q0-0.2 0.1-0.2-0.1 0-0.1 0.2-0.1 0.1-0.2 0.2 0 0 0 0 0.1-0.1 0.2-0.2zm-8.1-1.6c0 0.2 0 0.3 0 0.4q0-0.2 0-0.4 0 0 0 0zm-2.6 2.5q0 0 0 0.1 0-0.1 0-0.1 0 0 0 0zm-7.6-1.4c0 0 0 0-0.1 0q0.1 0 0.1 0 0 0 0 0zm-5.5-0.1q0 0 0 0 0 0 0 0 0 0 0 0zm-4.6-0.9q0.1 0.1 0.1 0.2 0 0-0.1-0.2zm-36.6 0.1q0 0.1 0 0.1 0 0 0-0.1 0 0 0 0zm-11.7 0.6q0 0 0 0 0 0 0 0zm-1.8 0.4c0.1 0.3 0.6 0.4 0.4 0.9q0 0 0 0c0-0.5 0-0.9-0.4-0.9q0 0 0 0zm-8.1 6.3q0 0 0 0 0.1-0.6 0.4-0.8c-0.2 0.2-0.4 0.3-0.4 0.8zm-1 39.9q0 0 0 0.1c0 0-0.1 0-0.1 0 0 0 0.1-0.1 0.1-0.1zm1.3 0.4q0.1 0.1 0.2 0.1c-0.1 0-0.2 0-0.3 0q0.1 0 0.1-0.1zm11 3.2q0 0 0 0.1c0-0.1-0.1-0.1-0.1-0.2 0 0.1 0.1 0 0.1 0.1zm16 0.3q0 0 0 0.1 0-0.1 0-0.1zm1.8 0.4q0 0 0 0-0.1 0-0.1 0 0 0 0.1 0zm1.5 1c0 0 0.1 0 0.1 0.1-0.1 0-0.1-0.1-0.1-0.1 0 0 0 0 0 0zm20.5-3.2q0 0 0 0-0.1 0-0.1 0 0.1 0 0.1 0zm9.1 2.6q0 0 0 0c0 0 0 0 0 0q0 0 0 0zm0.4 1q0 0 0 0 0 0 0 0 0 0 0 0zm18.2-3.1c0 0 0.1 0.1 0.1 0.1q0 0.1 0 0.1c0 0 0-0.1-0.1-0.1q0-0.1 0-0.1zm8 1.4c0 0.1 0 0.1 0 0.1 0 0.1 0 0.1 0 0.2 0 0 0 0-0.1 0.1 0-0.2 0.1-0.3 0.1-0.4zm0.7-1.2c-0.1 0 0 0-0.1 0q0.1 0 0.1 0 0 0 0 0zm8.4 0.6q0 0 0-0.1 0 0.1 0 0.1 0 0 0 0zm27-0.7q0 0.1 0 0.1 0 0 0 0c0 0 0-0.1 0-0.1zm11.2-0.6q0 0 0 0 0 0.1 0 0.1 0 0 0-0.1zm12.7 2.3q0 0 0 0 0-0.1 0-0.1 0 0 0 0.1zm0.2-0.4q0 0 0 0 0 0 0 0 0 0 0 0zm8.7-1.2q0 0.1 0 0.1 0 0 0-0.1zm6.7-1.1q-0.1 0.1-0.1 0.1c-0.1-0.1-0.2-0.1-0.3-0.1 0.1-0.1 0.2 0 0.4 0zm3.3 1.7q0 0.1 0 0.1 0 0 0 0 0 0 0 0 0 0 0-0.1zm7.6-3.1c0-0.1-0.1 0-0.1 0q0 0 0.1 0zm24.3-15.3q0.1 0 0.1 0 0 0-0.1 0zm0.8-9.9q0 0 0 0 0 0 0.1 0-0.1 0-0.1 0zm1.5-1.7q0.1-0.1 0.1-0.1 0 0-0.1 0.1zm5.4-0.6q0.1 0 0.2 0c-0.1-0.1-0.1 0-0.2 0zm4-12.5c-0.1-0.1-0.1 0-0.1-0.1 0.1 0 0.1-0.1 0.2-0.2q0.1 0 0.1 0-0.2 0.1-0.2 0.3zm-8.8-4.6q0 0 0 0 0 0 0-0.1 0 0.1 0 0.1zm-27.9-6.8q0-0.1 0-0.1c0.1 0 0.1 0 0.1 0 0 0.1 0 0.1-0.1 0.1zm-3.4 1q0 0-0.1-0.1c0.1 0 0.1 0.1 0.1 0q0 0.1 0 0.1zm-42.5-0.9c0 0 0 0 0 0 0 0 0 0 0.1 0 0 0.1-0.1 0-0.1 0zm-0.6-1.6c-0.1 0.3-0.3 0.7-0.5 0.8 0.4 0.1 0.5-0.2 0.5-0.8zm-67 4.8q0 0.1-0.1 0.2c0-0.1 0-0.2 0-0.3q0 0 0 0c0.1 0 0 0.1 0.1 0.1zm-4.2-0.7q0.1 0 0.2 0c-0.1 0-0.1-0.1-0.2 0zm-10.5 0.6q0 0 0 0 0 0 0 0 0 0 0 0zm-1.3-0.3q0 0 0 0 0 0 0 0zm-24.9-0.9q0 0 0-0.1 0 0 0 0 0 0.1 0 0.1zm-0.8 0.2q0 0-0.1 0c-0.1-0.1 0-0.4 0-0.6 0 0 0 0 0-0.1q0 0 0.1 0 0 0.1-0.1 0.1c-0.1 0.4 0.1 0.4 0.1 0.6zm-2.1 1q0 0 0 0 0 0 0 0 0 0 0 0zm-15.5 8.1c0.1-0.2 0-0.4 0-0.5q0 0.2 0 0.5zm-0.2 26.1c0 0.1 0 0.2 0 0.4q-0.1-0.2-0.2-0.2c0.1-0.1 0.1-0.2 0.2-0.2zm-0.6 12.9q0 0 0 0c-0.1-0.5-0.2-0.9-0.4-1.3 0-0.1 0-0.1 0-0.1 0.1 0.4 0.1 1 0.4 1.4zm-0.9 0.3q0 0 0 0 0 0.1 0 0.1 0 0 0-0.1zm-0.7 0.1q0-0.1 0-0.1 0 0 0 0c0 0.1 0 0 0 0.1zm4.9 3.6c0.2 0.1 0.3 0.1 0.2 0.3 0 0 0 0 0 0.1 0-0.2-0.1-0.3-0.2-0.4zm7.7 2.2c0 0 0.1 0.1 0.1 0.2q0 0-0.1 0c0.1-0.1 0-0.1 0-0.2zm1.3-1.4q0 0.1 0 0.1 0 0 0 0 0 0 0-0.1zm0 0.6q0 0 0 0c0 0-0.1 0.1-0.1 0 0.1 0.1 0.1 0 0.1 0zm0.2-0.2q0 0 0 0c0 0-0.1 0-0.1 0.1q0-0.1 0.1-0.1zm48.9 2q0 0.1 0 0.2 0 0 0 0 0 0 0 0-0.1 0-0.1 0 0.1-0.1 0-0.2 0.1 0 0.1 0zm5-4.5q0 0 0 0 0 0 0 0 0 0 0 0zm6.5-3.7q0 0 0 0 0 0 0 0 0 0 0 0zm11.5 5.8q0 0 0 0 0 0 0 0 0 0 0 0zm12.6 0.9c0 0 0-0.2 0-0.2 0.1 0 0.1 0 0.2-0.1q-0.1 0.2-0.2 0.3zm38.9 0.9c0 0 0.1 0.1 0.2 0.2-0.1-0.1-0.2-0.1-0.3-0.2 0 0 0 0 0.1 0zm1.2-2.1q0 0 0 0 0 0 0 0 0 0 0 0 0 0 0 0zm9.3 0.8q0 0 0 0 0 0 0 0zm0.4-0.4q0-0.1 0-0.1 0 0 0 0c0 0 0 0 0 0.1zm4.9-1.1q0 0 0 0 0 0 0 0 0 0 0 0zm2.3 2q0 0 0 0 0 0 0 0 0 0 0 0 0 0 0 0zm2.5-1q-0.2 0-0.5 0.1c0.2 0.1 0.4 0 0.5-0.1zm9.2 0.7c0 0.1 0.1 0.2 0 0.2q0-0.1 0-0.2zm30.8-13.9q0 0 0 0 0 0-0.1 0 0.1 0 0.1 0 0 0 0 0zm1.2 1q0 0-0.1 0.1 0-0.1 0-0.1 0.1 0 0.1 0zm-1.4-2.2c0 0-0.1 0.1-0.2 0 0.1 0 0.1 0 0.2 0 0 0 0 0 0 0zm3.3-6.7c0 0 0.1-0.1 0.1-0.1 0 0 0 0.2 0 0.2q-0.1-0.1-0.1-0.1zm-0.1 0q-0.1-0.1-0.2-0.1 0 0 0 0 0 0 0-0.1 0 0.1 0 0.1 0 0 0 0 0 0 0 0 0.1 0 0.2 0.1zm5.8-9.4q0 0 0 0 0 0 0 0.1 0 0 0 0 0-0.1 0-0.1zm3-2c0.1 0 0.1 0 0.1 0q0 0 0 0 0 0 0 0 0 0.1 0 0.1 0 0 0 0 0 0-0.1-0.1zm2.1-0.4c0 0 0 0 0 0q0.1 0.2 0.3 0.2 0 0.1 0 0.1-0.2-0.2-0.3-0.3zm4.6 0.7q0-0.1-0.1 0 0.1 0 0.1 0zm1.5-5.2q0 0 0 0 0 0 0 0c0 0 0 0 0 0zm-5.9-7.5q0 0 0 0 0 0 0 0 0 0 0 0zm-4.4-0.8q0 0 0 0.1 0-0.1 0-0.1 0 0 0 0zm-12-8.1c0-0.3 0-0.6-0.2-0.6 0.1 0.1 0.2 0.3 0.2 0.6zm-12.2-1c0 0.1-0.2 0.2-0.2 0.5 0-0.3-0.1-0.4-0.1-0.6 0.1 0 0.2 0.1 0.3 0.1zm-42.8 2.6q0 0-0.1 0c0 0 0-0.1 0-0.1q0 0.1 0.1 0.1zm-0.8-4.8q-0.1 0.1-0.1 0.1 0 0 0-0.1 0 0 0.1 0zm-1.3 0q0 0 0 0 0 0 0 0 0 0 0 0zm-10.6 1.1q0.1 0 0.1 0 0 0.1 0 0.1 0 0 0 0c0.1 0-0.1-0.3-0.1-0.1q0 0 0 0zm-11-0.4q0 0 0 0 0 0 0 0 0 0 0 0v-0.1q0 0-0.1 0 0.1-0.1 0.1-0.2 0 0.1 0 0.2 0 0 0 0.1zm-4.2 0.9q0 0.2 0.1 0.3c-0.1-0.1-0.1-0.2-0.2-0.3q0 0 0.1 0zm-30.3 2q-0.1 0.1-0.1 0.1c0 0 0-0.1 0 0q0 0 0.1-0.1zm-64.6 1.2q0 0 0 0-0.1 0-0.1-0.1c0 0.1 0.1 0.1 0.1 0.1zm-6.8-0.4q0 0 0 0c-0.1-0.3-0.4-0.7-0.2-0.8q0 0 0 0c0 0.3 0.1 0.6 0.2 0.8zm-9.2 12.7q0 0 0 0c0 0 0 0-0.1 0q0.1 0 0.1 0zm-1 2.8q0 0 0 0zm4.4 38.7q0 0 0-0.1 0 0.1 0 0.1 0 0 0 0zm25.7 0.3q0 0 0.1 0.1-0.1-0.1-0.1-0.1zm12.8-0.2c0-0.1 0.1-0.1 0.1-0.1 0 0 0 0 0 0 0 0-0.1 0.1-0.1 0.1zm25.3 0.3q0 0 0 0 0.1-0.3 0.2-0.5 0 0 0-0.1c-0.1 0.2-0.2 0.3-0.2 0.6zm3.9-7.7c0-0.1 0.1 0 0.1 0 0 0-0.1-0.1-0.1 0zm5.6 2.9c0.1 0.4 0.1 0.8 0 1.2q0 0 0 0 0.3-0.6 0-1.2zm29.7 5.4q0 0 0 0 0 0 0 0zm15.9-1.3q0.1-0.1 0.1-0.2 0 0.1 0 0.2 0 0-0.1 0zm14.4-1.6q0 0 0 0c0 0 0 0 0 0 0-0.1 0.1-0.1 0.1-0.1q-0.1 0.1-0.1 0.1zm17 2q0 0 0.1-0.1 0 0.1-0.1 0.1zm6.7 0.5q0.2 0 0.3 0.1c-0.1-0.2-0.2-0.1-0.3-0.1zm0.9-0.1c0.1 0 0.1 0 0.2-0.1-0.1 0-0.1 0.1-0.2 0.1zm0.7-2.3q0 0 0 0 0 0 0 0.1 0 0 0-0.1zm14.7 0.9c0-0.2 0-0.3 0-0.4q0 0 0 0 0 0.2 0 0.4zm12-2.3q0.3 0.1 0.5-0.4 0 0 0.1 0c-0.2 0.1-0.5 0.1-0.5 0.5 0 0 0 0-0.1-0.1zm7.3 2.6q0 0 0 0c0 0 0.1 0 0.1 0 0 0-0.1 0-0.1 0zm2.6-14.2q-0.1 0-0.1 0 0 0 0 0 0 0 0.1 0zm7.9-17.8q0-0.1-0.1-0.1c0 0 0.1 0.1 0.1 0.1zm12.8 4q0 0 0 0 0 0 0 0 0 0 0 0z"/><text style="transform:matrix(1,0,0,1,368,49.856)" ><tspan x="-370.4" y="0" class="b" dx="0 2 2 2 2 2 2 2 2 2 2 2 2 2 2 2 2 2 2" >OUR GOAL IS SIMPLE
</tspan></text><text style="transform:matrix(1,0,0,1,368.753,130.856)" ><tspan x="-307.9" y="0" class="c">prioritising </tspan><tspan  y="0" class="d">Your</tspan><tspan  y="0" class="c"> Mental Health
</tspan></text><path class="e" d="m220.7 176.5c13.2-8.3 27-15.6 41.5-21.5 7-2.8 15-6.6 22.5-3.1 3.2 1.5 6 3.9 9 6 2.9 2 5.9 4 9.1 5.6 3.2 1.5 6.5 2.7 10 3.3 3.6 0.7 7.3 0.5 11 0 7.9-1.1 15.7-3.3 23.2-5.8q5.6-1.8 11.1-4.1c3.6-1.4 7.1-3.1 10.8-4.2 7.7-2.3 15.5-0.2 23 2.1 7.4 2.3 14.8 4.2 22.6 4.8 7.7 0.6 15.4 0.2 23-1.4q2.8-0.5 5.6-1.3c0.8-0.2 0.4-1.4-0.4-1.2-15.3 4.1-31.3 3.7-46.5-0.9-7.3-2.2-14.9-5.1-22.7-4.3-3.7 0.3-7.2 1.6-10.6 3.1-3.7 1.5-7.3 3-11.1 4.4-7.4 2.7-15.1 4.9-22.9 6.6-4 0.9-8.1 1.6-12.3 1.4-3.6-0.2-7.2-1.1-10.5-2.5-3.5-1.4-6.7-3.2-9.7-5.3-3-2-5.7-4.3-8.8-6.1-3-1.9-6.4-3-10-2.9-3.9 0.1-7.6 1.4-11.2 2.8-14.4 5.5-28.3 12.4-41.4 20.3q-2.5 1.5-4.9 3.1c-0.7 0.4-0.1 1.5 0.6 1.1z"/></g></svg>