<svg version="1.2" xmlns="http://www.w3.org/2000/svg" viewBox="0 0 1379 369" width="1379" height="369"><style>tspan{white-space:pre}.a{fill:#759b9a}.b{font-size: 60px;line-height: 79px;text-transform: uppercase;fill: #221f20;font-weight: bold;font-family: "Montserrat Roman"}.c{font-size: 60px;line-height: 79px;text-transform: uppercase;fill: #ffffff;font-weight: bold;font-family: "Montserrat Roman"}.d{fill:#efc345}.e{font-size: 45px;line-height: 59px;fill: #221f20;font-weight: 400;font-style: italic;font-family: "PlayfairDisplay-Italic", "Playfair Display"}.f{fill:#212121}.g{fill:#fff}</style><path fill-rule="evenodd" class="a" d="m766.8 212.1q0 0-0.1 0.1 0 0 0 0c0 0 0.1-0.1 0.1-0.1q-0.1-0.2-0.3-0.4 0-0.2-0.1-0.4 0-0.1 0.1-0.2c0.4 0.1 0.9 1 1.3 0 0.2-0.1 0.6-0.1 0.3-0.5-0.5-0.6-1.3-0.6-1.9-1-0.8-0.2-1.7 0.1-2-1 0-0.3 0.1-0.6 0.4-0.8q0.1 0.1 0.2 0.1c0.3 0 0.6-0.1 0.7-0.4q-0.5-0.2-1-0.3c-0.1-0.3-0.3-0.4-0.6-0.4q-0.3-0.4-0.7-0.7c0.7 0 1.3 0 2.2 0-0.7-0.7-1.2-1.4-1.8-1.2-0.8 0.1-1-0.8-1.7-0.7q-0.1 0.1-0.3 0.1-0.1-0.1-0.3-0.3c-0.2-0.5-0.2-0.8 0.4-0.7q0.3 0 0.6 0 0.6 0.4 1.3 0.7c1.1 0.4 2.1 1.1 3.4 1.4-0.4-1-1.4-0.9-1.8-1.6-0.3-0.7-1-0.9-1.6-0.9-0.4-0.4-0.8-0.6-1.3-0.7-0.2-0.4-0.6-0.3-1-0.4 0.9-0.6 1.8-0.1 2.6-0.3q0 0 0 0c0.5-0.3 0.4-0.6 0-0.8q0 0.2-0.1 0.4c0.1-0.2 0.2-0.3 0.1-0.4q-1.3-0.6-2.6-1.2-0.3-0.2-0.6-0.5c0-1-0.4-1.6-1.3-1.7-0.4-0.3-0.8-0.4-1.3-0.3q-0.5-0.3-1-0.5c0.8-0.8 0.8-0.9 0-1.4v0.1q0 0 0 0 0 0 0-0.1c0.2-0.3 0.2-0.6-0.3-0.7-1-0.3-2.1-0.7-3.2-0.7-0.2 0-0.5 0-0.7-0.3q-0.2-0.3-0.5-0.3c-2.1-0.5-4.1-0.8-6.2-0.8-0.9 0-1.8-0.6-2.7-0.2q0.2 0.3 0.4 0.5-0.3 0.1-0.6 0.1-0.4 0-0.7 0c-0.6 0.2-1.3 0.3-1.9 0-0.4-0.4-0.8-0.4-1.3-0.3-0.2-0.1-0.6 0.1-0.6-0.3 0.1-0.3 0.4-0.1 0.6-0.2q0.5 0.1 1 0.1c0.2 0 0.5-0.1 0.6-0.4 0.3 0.1 0.7 0.4 0.8-0.1 0.2-0.5-0.2-0.5-0.6-0.6-0.2 0-0.4 0-0.6 0-1.9-0.1-2.4-0.5-2.8-2.4-0.3-0.7-0.6-1.2-1.4-1.1-0.4 0-0.7-0.3-0.9-0.7-0.3-0.3-0.6 0-0.8 0.1 0.2-0.1 0.6-0.1 0.8-0.1q0-0.2 0-0.3c0.4 0 0.8 0 1.5 0-0.6-0.5-1-0.8-1.5-0.7q0 0.1 0 0.2c0.1-0.1 0.1-0.2 0-0.2-0.7-0.6-1.4-1-1.9-1.8q-0.3-0.2-0.7-0.4-0.1 0-0.3 0.1-0.3 0-0.6 0-0.3 0-0.3 0.2-0.2 0-0.3 0 0-0.3 0-0.7c0.2-0.8-0.6-0.7-1-1-0.2 0.1-0.4-0.2-0.7 0-0.5 0.6-1.3 0.2-1.9 0.4-0.9-0.8-1.7-0.1-2.6 0.2q0-0.1 0-0.2 0.2-0.2 0.3-0.4-0.3-0.3-0.6 0-0.3 0-0.6 0c-0.2-0.3-0.4-0.3-0.7-0.3q-0.2-0.2-0.3-0.4c-0.1-0.1-0.2-0.2-0.3-0.4-0.2-0.5-0.6-0.9-1-0.6-0.5 0.5-1.2-0.2-1.6 0.5-0.7-0.8-1.6-0.4-2.4-0.8-0.7-0.4-1.3-0.1-1.8 0.6-0.4-0.4-1-0.9-1.3-0.5-1 1.2-2-0.4-2.9 0.3-0.5-0.7-1.1-0.2-1.6-0.1v-0.1c-0.3-0.1-0.7 0.1-1-0.3q-1.3 0-2.5 0c-0.7-0.1-1.3-0.2-2 0.1q-0.5-0.1-0.9-0.1c-0.9-0.1-1.7-0.2-2.6 0q-0.2 0-0.3-0.1-0.4-0.2-0.7 0-0.5 0.1-0.9 0.1c-1.8-0.4-3.5-0.2-5.2 0-1-0.5-2.1-0.3-3.1-0.2q-3.9 0.2-7.9 0.2c-0.6-0.3-1.2 0-1.9 0.1q0 0 0 0 0 0 0 0c-0.2-0.2-0.4-0.1-0.6-0.1-0.8-0.1-1.5-0.2-2.3 0-1.1 0-2.1-0.3-3.2 0q-0.2 0-0.3 0-0.2 0.2-0.3 0.3c-0.2 0.6-0.5 1.1-0.9 0.3-0.3-0.6-0.5-1-1.1-0.6-0.8-0.3-1.5-0.5-2.3 0-0.3-0.2-0.6-0.5-1-0.3-0.9 0-1.8-0.3-2.7 0-0.8 0.2-1.7 0.5-2.5 0.5-0.2 0-0.4 0.2-0.5 0.4q-0.3-0.1-0.6-0.3c-0.2-0.1-0.2-0.3-0.5-0.3q-0.2 0.2-0.5 0.3-0.1-0.1-0.3 0c-0.2-0.1-0.3-0.1-0.5-0.1-0.4 0-0.7 0.2-1.1 0.2-1.7-0.1-3.3-0.2-4.8 0.9 0-0.3-0.1-0.8-0.1-0.8-0.9 0-1.4-0.9-2.2-0.9q-0.1 0-0.2 0-0.1-0.1-0.2 0v0.1c-0.7 0-1.6-0.2-1.8 1-0.1 0.4-0.4 0.3-0.7 0.3 0.6-1-0.2-1.2-0.7-1.1-1.5 0.1-3-0.4-4.5-0.2-1.2 0.2-2.4-0.2-3.6 0.3-0.6 0.1-1.2-0.4-1.9-0.3 0-0.4 0-1-0.6-0.4q-0.3 0.3-0.7 0.7c-0.2 0.1-0.4 0.7-0.8 0.3-0.2-0.3-0.6-0.5-0.9-0.5-0.3 0.1-0.6 0.2-0.2 0.6-0.2 0.4-0.6 0.4-0.9 0.2q0 0 0 0c-0.2-1-0.3-1.1-1.4-0.9-0.7 0.1-1.4 0.5-1.9 1.1-0.4-0.1-0.5-0.6-0.9-0.5-0.3-0.2-0.7-0.1-1-0.2q-0.3 0-0.7 0c-0.8-0.2-1.7 0.8-2.4-0.4-0.1-0.1-0.4 0.3-0.5 0.5 0 0.1 0 0.1 0 0.1-0.5 0.2-0.8-0.6-1.3-0.3-0.5 0.1-1.1 0.7-1.7-0.1-0.1-0.2-0.4-0.2-0.6-0.1-0.7 0.3-1.4 0-2.1 0-0.7-0.6-1.1 0.2-1.7 0.3q-0.1 0-0.3-0.1-0.3-0.1-0.7 0.1c-0.3 0.1-0.5 0.3-0.9 0.2-0.1-0.4-0.4-0.4-0.6-0.2-0.5 0.3-1.1 0.2-1.7 0.1-0.8-0.3-1.7-0.6-2.6 0q-0.5 0.2-0.9-0.1c-0.6-0.3-1.1 0-1.7 0.3-0.6 0-1.3 0-2 0-1.4-0.1-2.7 0.3-4 0.7-0.4-0.1-0.5 0.8-1 0.3-0.5-0.9-1.3-0.4-2-0.6q-0.1-0.1-0.3 0-0.1 0-0.3-0.1c-0.4 0-0.7 0-1 0.3q-0.2 0-0.3 0.1c-0.5-0.2-0.8 0.4-1.3 0.4q-0.1-0.2-0.3-0.4c-0.6-0.9-0.6-0.9-1.3-0.1-0.4 0.2-0.8 0.4-1.4 0.2-0.5-0.2-0.9 0-1.2 0.5q0 0.1 0.1 0.1 0 0 0 0l-0.1-0.1c-1.6 0.1-3.2 0-4.9 0.4q-0.4 0-0.8 0.1c-0.8-0.1-1.6-0.3-2.4 0.2q-0.1 0-0.2 0.1c-0.5 0.3-0.9-0.2-1.4-0.1q-0.1 0-0.2 0c-0.4-0.3-0.9-0.4-1.4-0.2-1.6 0.4-3.3 0.5-4.8 1.3-0.8 0.4-1.5 0.3-2.2-0.2-0.7-0.5-1.1-0.4-1.6 0.4-0.4 0.6-0.3-0.4-0.6-0.2q-0.2-0.1-0.1-0.3 0-0.3-0.3-0.5c-0.2-0.1-0.4-0.1-0.6 0.1h-0.1c-0.3 0.3-0.7 0.1-0.9 0.3h-0.1c-0.8 0-1.6 0-2.5 0.3-0.7 0.3-1.7 0.4-2.5 0.3-1.8-0.2-3.7-0.3-5.5-0.2-1 0-2.1 0.3-2.9 0.1-1.7-0.5-3.4 0-5.2 0-1.2 0-2.6-0.2-3.8 0.2-0.2-0.1-0.5-0.3-0.6-0.2-1.2 0.3-2.4 0.1-3.6 0.3-0.7-0.1-1.3-0.8-2-0.1q0 0 0 0c-1.6-0.1-3.2-0.3-4.7 0.7-0.3 0.2-0.5-0.2-0.8-0.4-0.5-0.2-1-0.7-1.5-0.1-0.3 0.3-0.8-0.2-1.1 0.2q-0.2 0-0.5 0.1-0.4-0.2-0.7-0.4c-0.8-0.3-1.5-0.7-2.3-0.3-0.9-0.2-1.7 0-2.5 0.2-0.7-0.7-1.2 0.1-1.7 0.4q-0.3-0.3-0.6-0.6-0.2 0.1-0.4 0c-0.5 0.2-1 0.4-1.5 0.3-0.7-0.3-1.5 0-2.2-0.4-0.2-0.1-0.6-0.1-0.8 0.3-0.2 0.4-0.4 0.3-0.6 0v0.1q-0.1-0.2-0.3-0.3-0.2 0-0.4 0c-1.5-0.2-3-0.2-4.5 0-0.3-0.1-0.7-0.6-1.1 0.1-0.1 0.2-0.3 0.2-0.5 0.1-1.5-0.9-3.1-0.6-4.7-0.3-0.3-0.2-0.6-0.1-0.8-0.3-0.6 0.2-1.3-0.4-1.9 0.4-0.6 0.9-0.7 0.9-1.2-0.2-0.2-0.4-0.3-0.8-0.7-0.2q-0.2-0.1-0.3 0-0.2 0-0.4-0.1c-0.2-0.2-0.4-0.3-0.6 0q-0.2 0.1-0.4 0.2-0.2 0.1-0.4 0.2c-0.1-0.2-0.2-0.4-0.5-0.3q0 0.1-0.1 0.1 0 0 0 0 0 0 0.1-0.1-0.2 0-0.3 0c-1.2-0.2-2.4-0.6-3.6 0.1-0.1 0-0.2 0.1-0.2 0.2 0 0-0.1 0-0.1 0q0.2-0.1 0.3-0.2-0.2-0.1-0.3-0.1 0 0 0 0 0 0 0 0-0.2-0.2-0.3-0.3 0 0 0 0 0 0 0 0 0 0 0 0c-0.1-0.1-0.1-0.2-0.1-0.2q-0.1-0.1-0.2 0.1c-1 0.6-2-0.1-3-0.1-1.3-0.1-2.6-0.4-3.8 0.2q-0.2 0.1-0.3 0-0.2 0-0.4-0.1 0 0 0 0 0 0 0 0c-0.7-0.1-1.4-0.7-2.1 0.3-0.1 0.3-0.5 0-0.7-0.3-0.8-0.8-0.9-0.7-1.7 0.3-0.7-0.3-1.3-1.2-2.2-0.6-1-0.4-0.8 0.8-1.3 1.1q0 0 0 0 0 0 0 0-0.1-0.1-0.3-0.1 0-0.2-0.1-0.3c0.1-0.3 0.2-0.7-0.3-0.7q0 0 0 0c-0.5-0.3-1-0.6-1.6-0.3-1.5 0-3-0.5-4.5 0-1.2-0.3-2.5 0-3.7-0.1-0.5 0-0.7 0.4-1.1 0.6 0 0-0.2 0-0.3 0.1-0.2 0.2-0.5 0.2-0.7 0.4-0.8-1-1.8-1.4-2.9-1.1-0.9 0.1-1.7 0.1-2.6 0q0 0 0 0c-0.8-0.2-1.4 0.1-1.5 1.1-0.2-0.1-0.5 0-0.6-0.1-1.5-1.3-3.2-1.4-5-0.9-0.9-0.2-1.8-0.1-2.7-0.1-0.8 0-1.5-1-2.3-0.1-0.1 0.1-0.3-0.1-0.4-0.2-0.3-0.4-0.5-0.4-0.8-0.1-0.7 0.8-1.5 0.6-2.3 0.5-0.9-0.1-2-1-2.7 0.3q-0.3-0.1-0.6-0.1-0.2-0.2-0.3-0.3c-1.3-1-2.7-0.4-4-0.3-0.5 0.1-1 0.4-1.5 0.2-0.9-0.4-1.8-0.3-2.7-0.1-0.6 0.1-1.2 0-1.8-0.2h-0.1c-0.4-0.5-1-0.3-1.6-0.2 0 0.1 0 0.2 0.1 0.3q0 0-0.1 0 0-0.2 0-0.3-0.1 0-0.3 0.1c-0.2-0.1-0.5-0.1-0.6 0.1-0.9 0-1.8-0.1-2.6 0.4-0.7 0-1.3 0-1.9 0.2q-3.3 0.6-6.5 1.7c-0.5 0.2-1.2 0.3-1.2 0.9-0.1 1.4-0.8 2.5-0.8 3.9-0.9 1.6-1.4 3.5-1.9 5.3-0.2 0.4-0.5 0.9-0.6 1.4-0.4 1.4-1.4 2.6-0.9 4.2q0 0.2 0 0.4 0 1 0 2.1c-0.9 0.5-2 0.8-2.3 2.1-0.4 0.8 0 1.7-0.1 2.5q0 0.2-0.2 0.3c-0.3 0.5-0.5 0.9-0.3 1.5q0 0.2 0 0.3c-0.1 0.6 0.2 1.2-0.4 1.8-0.4 0.3-0.3 0.9-0.3 1.4l-0.1 0.1v0.1c-0.4 0.5-0.5 1-0.2 1.6 0.1 0.2 0.2 0.3 0.2 0.5 0 0.3-0.1 0.4-0.3 0.5q-0.1 0.1-0.3 0.2h-0.1l-0.1 0.2q-0.1 0.1-0.1 0.3c-1.2 1.6-1.4 3.3-0.4 5.1v0.1l0.1 0.1c0.3 0.3 0 0.8 0.3 1.1v0.2 0.1c-0.2 0.3-0.4 0.5 0 0.8 0.9 0.6 1.9 0.1 2.9 0.3q0.3 0 0.5 0.1c0.2 0 0.3 0.1 0.5 0.2q0 0.2 0.2 0.1c0.2 0 0.3 0.2 0.4 0.4v-0.1c0.2 0.4 0.1 0.7 0 1.1v-0.1q-0.2 0.1-0.4 0.2v0.2q0 0 0 0 0 0.2 0.1 0.4 0.1 0 0.2 0c-0.1-0.1-0.2-0.2-0.2 0-0.5 1.1-0.2 2.4-0.7 3.5-0.9 0.8-0.4 1.9-0.3 2.9-0.9 0.7-1.1 1.7-1.2 2.8-0.1 0.6-0.1 1.1-0.4 1.6q-0.4 0.3-0.5 0.7c-0.7 2-0.7 3.9 0.4 5.9 0.7 1.2 0.6 1.3 2.1 1.2q0.1 0.1 0.3 0c1.3 0.2 2.5 0.1 3.8 0.1 1.7 0.2 3.4 0.4 5.1 0.4 0.5 0.3 0.9 0.3 1.4 0.2 0.7-0.1 1.3-0.2 1.9 0q0.2 0.1 0.4 0.1c0.4 0.1 0.9 0.2 1.3 0.2 1 0.1 1.9 0.2 2.8-0.4 0 0.3 0.1 0.6 0.5 0.5 1-0.3 2 0.1 3 0.3 0.4 0.1 0.8 0.1 1.1-0.2 0-0.4 0.5-0.2 0.6-0.4 0.4-0.3 0.6 0.1 0.8 0.3 0.3 0.2 0.5 0.5 0.8 0.1 0.6-0.6 1.3-0.2 1.9 0q0 0 0 0c0.4 0.5 0.9 0.1 1.3 0q0.2 0.1 0.4 0 0.2 0 0.3-0.3c0.5-0.1 0.9-0.1 1.3 0.3 0.8 0.6 1.9 0.6 2.6 0.3 0.8-0.4 1.3-0.2 2 0 0.5 0.2 1 0.7 1.6 0.1q0 0 0 0c0.5 0 0.9-0.5 1.5-0.2 0.9 0.6 1.9 0.4 2.8 0.5 1.9 0.1 3.7-0.2 5.6 0.3 0.4 0 0.5-0.3 0.6-0.6q0.3-0.1 0.6-0.1 0.3 0.2 0.7 0.4c0.8 0.7 1.5 0.6 1.9 0 0.4 0 0.6 0.1 0.9 0.4 0.6 0.5 1.1 0.3 1.4-0.4 0.8-0.4 1.7-0.1 2.5 0.1 0.7 0.1 1.5 0.4 1.7-0.8 0.4 0.1 0.7 0.5 1.2 0.4 0.5-0.1 0.1-1 0.6-1.2 0.4 0.2 0.4 0.6 0.6 0.8 0.5 0.8 2 0.8 2.8 0 0.1-0.1 0.4-0.3 0.5-0.1 0.5 0.8 1.2 0.8 1.8 1 1.1 0.4 2.1-0.1 3.1-0.2q0.5 0.3 1 0.5c0.3 0.1 0.5 0.2 0.6-0.2q0.2-0.2 0.3-0.4c0.2-0.4 0.6-0.3 1-0.3q0.4 0.1 0.6 0.4c0.4 0.5 0.9 0.3 1.4 0.2q0.6-0.2 1.2 0c1-0.5 2-0.5 3 0 1.3 0.7 2.7-0.1 4 0.4 0.8-0.8 1.6-0.2 2.4-0.1 0.7 0.1 1.1-0.4 1.9 0 1.2 0.5 2.6 0.6 3.9 0.2 0.4-0.5 0.9 0.1 1.3-0.1q0.3 0 0.6 0c0.7 0.2 1.3 0.2 1.7-0.6q0.1 0 0.2 0c0.6-0.1 0.9 0.5 1.3 0.6q0.2 0 0.3 0.1c0.2 0.1 0.3 0.3 0.4 0.3 1.5-0.7 3-0.3 4.4 0.2 0.3 0.1 0.5 0.1 0.7-0.2 0.5 0.2 0.7-0.3 1-0.5 0.5 0.3 1 0.7 1.6 0.5 0.5 0 1.1 0.4 1.6 0 0.8 0 1.7-0.2 2.5 0.3 0.3 0.3 0.7 0.1 0.8-0.4 0.1-0.8 0.5-0.7 0.8-0.2 0.4 0.6 0.7 0.6 1.2 0.1 0.3-0.4 0.7-0.7 1.2-0.2 0 0.3 0 0.6 0.3 0.6 0.4 0 0.5-0.2 0.6-0.6 0.4-0.6 0.8-0.5 1.1 0.1q0 0.2 0.2 0.2c0 0 0.1 0.1 0.1 0q0.2 0 0.3-0.1 0.2 0 0.4-0.1c0.2 0.1 0.6 0 0.6-0.2 0-0.8 0.7-0.7 0.9-1.2 0 0 0 0-0.1-0.1q0 0 0.1 0 0 0 0 0v0.1q0.3 0 0.5 0 0.1 0.4 0 0.7c0 0.4 0.1 0.5 0.5 0.4 0.2 0.2 0.5 0.3 0.6-0.2q0-0.4 0-0.8c0.6 0.2 1.2 0.4 1.6 0.9 0.8 1.1 0.8 1.1 1.6 0.4 1.2 0.2 0.7-1.1 1-1.5 0.4-0.4-0.4-0.9-0.6-1.4-0.2-0.2-0.6-0.4-0.9-0.2-0.3 0.2-0.1 0.6-0.2 0.9q-0.7 0-1.4 0c-0.2-0.5 0.1-1-0.2-1.5-0.6 0-1 0.3-1.3 0.8-1 0.6-2.1 0.1-3.1 0.5-0.4 0.2-0.6-0.2-0.8-0.5q0 0 0 0 0 0 0 0c0.3-0.8 0.4-1.6 0.4-2.4 0.4-0.4 0.8-0.7 1-1.3 0.5 0 0.9-0.3 1.3-0.2 0.2 0.8 1 1.2 0.6 2.1-0.4 0.1-0.7 0-1.1 0.2 0.3 0.8 0.7 0.5 1.2 0.2 1-0.6 0.9-1.7 0.9-2.7 0.3-0.2 0.6-0.4 0.6-0.8 0.1-0.2 0.1-0.4 0.2-0.5 0.3-0.2 0.4 0.1 0.4 0.3 0 0.7 0.1 0.9 0.8 0.7 0.2-0.1 0.6 0.1 0.9 0.2h0.1c0 0 0-0.2 0-0.2 0 0 0.1 0.1 0.1 0.2q-0.1-0.1-0.2 0c-0.2 0.7-0.3 1.3 0.4 1.8q-0.2 0.1-0.3 0.2c-0.2 0.1-0.5 0.2-0.3 0.6 0 0.1 0.2 0.2 0.3 0.3 0.3 0.1 0.5-0.1 0.5-0.4 0.1-0.3 0-0.5 0-0.7 0.2-0.4 0.6-0.7 0-1-0.3-0.2-0.1-0.6-0.3-0.8q0 0 0 0c0.3-0.5 0.7-0.9 1.3-1 0.1 0.2 0.3 0.4 0.2 0.7-0.5 0.5-0.3 0.9 0.1 1.4 0.5 0.1 0.5 0.7 0.7 1q0.1 0.1 0.3 0 0.1-0.2 0.3-0.3c0.1-0.1 0.2-0.3 0.4-0.3 0.5-0.7 0.1-0.8-0.4-0.7q-0.2-0.1-0.3-0.2 0 0 0 0 0-0.3 0-0.6c0.5-0.6 1-0.4 1.5 0 0.6 0.3 0.8-1.2 1.4-0.4q0.3 1.1 0.7 2.2c-0.2 1 0.5 2.1 0.2 3.1q0.1 0.1 0.1 0.1 0 0 0 0l-0.1-0.1q-0.2 0.2-0.2 0.5l-0.1 0.1 0.1 0.1c0 0.7 0.2 1 0.8 1.3 0.1-0.5 0.1-0.9 0.1-1.2q0-0.1 0.1-0.1 0.1-0.1 0.2 0.1c0.5 0.6 0.9 0.4 1.4 0q0-0.1 0-0.2c0 0.1-0.1 0.1 0 0.2 0.2 0.3 0.6 0.6 0.7 1 0.2 0.9 0.7 0.8 1.2 0.4 0.3-0.2 0.5-0.4 0.6-0.8 1.4-0.1 2.9-0.9 4.4-0.2 0.1 0 0.3-0.3 0.4-0.4 1.2 0.4 2.4 1.1 3.6 0q0.3-0.1 0.6-0.1c0.8 0.3 1.5-0.2 2.3-0.3q0.1 0.2 0.3 0.4c0 0.3-0.1 0.7 0.2 0.8 0.4 0.2 0.4-0.2 0.4-0.5q0.1-0.1 0.1-0.3c0.3 0 0.5-0.1 0.6-0.4 0.6-0.1 1.2 0.2 1.8 0.2 1.4 0.2 2.8 0.3 4.2 0.3 0.1 0 0.1 0 0.1-0.1 0.5-0.4 0.9-0.8 1.7-0.2 0.4 0.4 1.4 0.3 1.9-0.5h-0.2q0-0.1 0-0.1 0.1 0 0.2 0.1 0.3-0.2 0.6-0.4 0 0.3 0 0.5c0 0.4 0.2 0.7 0.6 0.8 0.3 0 0.4-0.3 0.5-0.6 0.1-0.2 0.1-0.4 0.2-0.6 0.3-0.6 0.6-0.3 0.9-0.1q0.2 0.2 0.3 0.4c0.2 0.9 0.8 1.3 1.6 1.3 0.6-0.1 1.1-0.2 1-1 0.4-0.3 0.7-0.4 1.2-0.1 0.4 0.5 0.9 0.2 1.4 0.1 0.7 0.5 1.3 0.2 2 0 0.8 0.6 1.6 0.2 2.4-0.3 0.4-0.6 0.7-0.3 0.8 0.3 0.1 0.3-0.2 0.8 0.2 0.8 0.5 0 1.3 0.4 1.4-0.7 0.5 0 0.9-0.6 1.2-0.5 1.3 0.3 2.7 0.3 3.9 0.8q0.2 0.3 0.4 0l-0.1-0.1q0 0 0 0 0.1 0 0.1 0.1c0.3 0 0.5-0.4 0.9-0.3 0.4 0.1 0.7 0.2 1-0.1q0-0.1 0-0.2c0 0.3 0.1 0.4 0.4 0.5 0.8 0.1 1.7-0.1 2.6 0.2 0.2 0.1 0.2-0.3 0.2-0.5q0.3-0.1 0.6-0.2 0.2 0.1 0.4 0.2c0.2 0.2 0.4 0.2 0.6 0.2q0.2 0 0.4 0 0.2-0.1 0.4-0.1 0 0 0.1-0.1c0.2 0.1 0.3 0.2 0.4 0.3 0.5 0.2 1.1 0.5 1.6 0.4 0.1-0.1 0.2-0.4 0.4-0.1 0.3-0.4 0.5-0.8 0.9-1q0.3 0.2 0.7 0.3c0.2 0 0.4-0.1 0.6-0.1-0.2 0-0.5-0.1-0.6 0.1 0.4 0.4 0.8 0.2 1.2 0.2 1 0.3 5.2 0.2 6.2-0.2q0.2-0.1 0.3-0.2 0.3 0 0.7 0c0.7 1.1 1.7 1.2 2.8 0.7q0.1-0.1 0.1-0.3c0.7-0.2 1.3-0.3 1.9 0.4 0.3 0.3 0.7 0.3 0.8-0.1 0.3-1.2 0.8-0.7 1.4-0.4 0.2 0.3 0.5 0.6 0.7 0.1h0.1c0.3-0.3 0.7-0.5 1.1-0.4 0.2 0 0.3 0.2 0.4 0.3q0.3 0.1 0.3-0.2c0.5-0.2 0.9 0.2 1.3 0.3q0-0.1 0-0.1c0.8 0.7 1.1 0.7 1.9-0.1 0.5 0.2 0.8 0.6 1.4 0.3 0.4 0.2 1 0.9 1.3-0.2q0.8 0 1.5 0.1c0.4 0.3 0.7 0.8 1.3 0.6 0.9-0.3 1.7 0.5 2.6 0 0.8 0.2 1-0.3 1-1 0.3 0.5 0.7 0.7 1.3 0.6 0 0 3.1-0.6 3.1-0.6 0.8 0.6 1.5 1.8 2.7 0.6 0.2-0.2 0.5 0 0.7 0.1 0.5 0.1 0.9 0.2 1.3-0.4 0.2-0.4 0.4-0.4 0.7-0.1 1.3 1.4 3 0.4 4.4 0.9 0.1 0 0.1 0 0.2 0 0.8-0.6 1.5-0.2 2.3 0 0 0.3 0.2 0.7 0.6 0.5 0.5-0.1 0.3-0.6 0.4-1 0.6-0.1 1.2 0.1 1.8 0.5 0.5 0.4 0.8 0.1 1.2-0.4 0.5-0.4 1 0.2 1.5 0.2 1.8 0.4 3.5 0.3 5.2-0.8 0.7 1.4 0.7 1.4 2.2 0.9-0.1-0.4 0.1-0.4 0.4-0.2 0.8 0.4 1.2-0.5 1.8-0.8 0.1 0.4 0.3 0.7 0.7 0.8 0.9 0 1.9 0 2.7 0.1 0.9 0.1 1.5 0 2.2-0.6q0.1 0.1 0.2 0.1c0.1 0.3 0.2 0.7 0.5 0.6 0.8-0.3 1.6 0.1 2.4-0.3 1 0.2 2.1-0.3 2.9 0.6q0.4 0 0.7 0.1c0-0.4 0.2-0.7 0.4-1 0.7 1 0.7 1 1.5 0.2q0-0.3 0.1-0.6c0.3-0.1 0.5-0.3 0.8-0.4 0.3 0 0.3 0.1 0.4 0.4 0.2 1.1 0.2 1.1 1.3 0.9 0.4 0 0.3-0.5 0.7-0.5q0.1-0.2 0.3-0.5c0.3 0.1 0.7-0.2 1 0.3 0.4 0.7 0.6 0.1 0.9-0.2 0.4-0.1 0.6 0.4 1 0.1 0.2 0.2 0.4 0.4 0.6 0.4 0.7 0.1 1.8 0.5 2.1 0.1 0.9-1 1.6 0.5 2.3-0.1 0.1-0.1 0.4-0.1 0.4-0.2 0.2-1.1 0.9-0.3 1.4-0.4 0 0.9 0.6 0.7 1.1 0.8 0.3 0 0.6 0 0.6-0.4 0.1-0.3-0.3-0.4-0.4-0.6 0.3-0.2 0.6-0.1 0.9 0 0 0.7 0.4 0.4 0.7 0.2 0.9 0.7 1.1 0.6 1.2-0.7q0.1-0.1 0.2-0.2 0.3 0 0.4 0.2l0.1 0.1c0.4 0.5 0.6-0.1 0.9-0.2 0.4 0.2 0.7-0.2 1-0.3 0.4 0.1 0.7 0.7 1 0q0.2-0.1 0.3-0.2 0.3 0 0.6 0c0.3 0.1 0.5 0.1 0.8 0q0.2 0 0.5 0c0.2 0.1 0.4 0.1 0.7-0.1 0.9 0 1.7 0.6 2.6 0q0 0 0 0 0.1 0.2 0.2 0.1 0 0 0 0 0 0 0 0c2 0.5 3.9 0.3 5.9 0.2 1.2 0.1 2.4 0.2 3.6 0 0.2-0.1 0.3-0.1 0.5 0q0.2 0.1 0.4 0.1 1.1 0 2.3 0 0.8 0 1.6 0h-0.1 0.1c0.3 0.2 0.6 0.2 0.9 0 2.3 0.1 4.5 0.4 6.8 0.3q0 0 0 0c1.3 0.2 2.5 0.3 3.8 0.1 1.5 0.6 3.1 0.1 4.6 0.2 0.3-0.1 0.5-0.3 0.5-0.6q-0.4-0.7-0.8-1.3c0.3-0.1 0.5-0.1 0.6-0.5 0.5-0.7 0.4-1.2-0.4-1.8-0.7-0.5-1.5-0.3-2.1-1 0.4 0 0.8 0 1.2-0.1 0.4-0.1 0.8-0.2 0.9-0.7 0.1-0.6-0.5-0.4-0.8-0.6-0.6-0.4-1.5-0.8-1.8-1.5-0.6-1.4-0.5-1.6-1.9-1.6-0.7-0.1-1.5-0.1-2.2-0.6 0.4-0.3 0.8-0.1 1.2-0.3 0.7-0.2 1.1-0.6 0.8-1.5q0.3-0.2 0.6-0.4 0.2 0.1 0.3-0.1 0.2 0 0.4 0 0.1 0 0.2-0.1c1.1-0.3 2.2 0.4 3.3-0.5 0.6-0.5 1.9-0.5 2.6 0.1 0.6 0.5 1.1 0.5 1.7 0.9 0.7 0.4 1.3 0.2 1.9-0.4 0.2-0.2 0-1.8-0.3-2.2-0.8-0.9-1.6-1.8-2.9-1.7-0.5 0-0.9-0.3-1.4-0.4q0-0.2 0-0.3c-0.1-0.1-0.2-0.3-0.4-0.3q-0.1 0-0.3 0c0.2-0.3 0.4-0.4 0.7-0.4q0 0 0 0 0 0 0 0c0.8-0.1 1.5 0 2.2 0.3 0.4 0.2 0.9 0.1 1.4-0.2 0.5-0.4-0.6-0.8-0.1-1.2q0.3 0.1 0.5 0.1c0.2 0.1 0.4 0.2 0.6 0 0.1-0.3-0.2-0.4-0.3-0.5q-0.2-0.1-0.5-0.3-0.1 0-0.2 0c-0.2-0.1-0.5-0.1-0.7-0.2-0.1-0.2-0.5-0.7 0.1-0.5 0.7 0.1 0.8-0.8 1.4-0.6 0.1-0.6-0.2-0.9-0.5-1.2-0.2-0.1-0.3 0.1-0.5 0.1q0.3-0.1 0.5-0.1c0.2-0.3 0.6-0.5 0.2-1.1q0-0.1 0-0.3c-0.7-0.9-1.4-1.8-1.8-3 0-0.2-0.3-0.3-0.4-0.4 0-0.6 0.4-0.8 0.7-1.1 0.2-0.2 0.6-0.4 0.1-0.7-0.3-0.3-0.4-0.6-0.3-1 0.1-0.1 0.4-0.1 0.3-0.4 0-0.1-0.2-0.1-0.3-0.1-0.2-0.1-0.3 0-0.5 0q-0.3-0.2-0.6-0.4v0.1c-0.1 0.1-0.1 0.2 0 0.3q0 0 0 0 0-0.1 0-0.3c-0.1 0-0.1 0-0.1 0q0-0.1 0.1-0.1 0.1-0.3 0.3-0.6c0.3-0.1 0.7-0.1 1-0.4 0.6 0.2 1.2-0.1 1.8-0.4q0.8-0.3 1.5-0.6c0.3 0.4 0.3 0.4 0.8 0.1 0.2-0.1 0.4-0.1 0.6-0.1 0.4 0 0.8 0 1.1-0.3q0.6-0.1 1.2-0.1c0.9 0.1 1.8-0.1 2.7-0.4q0.4 0 0.9 0.1c-0.1 0.3-0.4 0.6-0.1 0.8 0.4 0.3 0.4-0.3 0.6-0.5 0.1-0.1 0.1-0.2 0.2-0.3q0.3 0 0.6 0c0.2-0.3 0.4-0.3 0.6-0.1 0.1 0.1 0.3 0 0.3 0.1 0.4 0.8 0.7 0.6 1.2 0.2 0.6-0.5 0.8-0.7 0.5-1.3q-0.2-0.3-0.4-0.6c0.2-0.1 0.4-0.2 0.4-0.3 0-0.2-0.2-0.2-0.3-0.2q-0.3 0-0.6 0.1-0.2 0-0.4-0.1 0 0.1-0.1 0.1-0.2 0.1-0.3-0.1-0.1 0-0.3 0c-0.3-0.5-0.8-0.3-1.3-0.3-0.3 0-0.5-0.1-0.6-0.4q0-0.1 0.1-0.2 0.3 0.1 0.6 0.2c2.1 0.1 4.3-0.3 6.3 0.3 0.2 0 0.3-0.2 0.4-0.2 0.2 0 0.5 0.2 0.5-0.1 0.1-0.4-0.3-0.3-0.5-0.3q-0.6 0-1.1 0c-0.1 0-0.4 0-0.3-0.3 0.1-0.1 0.3-0.1 0.5-0.2q1.4 0.1 2.8 0.3 0.2 0.1 0.3 0.2c-0.3 1.2 0.7 0.8 1.1 1 0.2 0.1 0.4 0 0.3-0.2-0.1-0.2-0.2-0.3-0.3-0.4 0.3-0.3 0.7-0.4 1 0 0.2 0.1 0.4 0.2 0.6 0q0.1 0 0.2-0.1 0.2 0.1 0.3 0.1c0.4 0.3 0.9 0.2 1.4 0.3 0.2 0 0.2 0.2 0.3 0.3q-0.3 0.7-0.7 1.4-0.1 0-0.3 0-0.3 0-0.6 0.1-0.2 0-0.3 0c-0.6-0.6-1.3-0.7-2-0.8q0 0.1 0 0.2 0 0 0 0 0 0 0 0 0-0.1 0-0.2c-0.2-0.4-0.6-0.3-0.9-0.3-0.2 0.3-0.5 0.4-0.7 0.3q-0.2 0-0.3 0-0.3-0.3-0.6 0c0.1 0.2 0.3 0.3 0.4 0.5 0.1 1.3 0.9 1.4 1.8 1.3 0.4-0.3 0.8-0.2 1.3-0.1 1 0.7 1.2 0.7 1.3-0.3q0.3 0 0.6 0 0.2 0.1 0.3 0.1c-0.3 0.5-0.1 0.8 0.3 1q0.9 0.2 1.7 0.4c1 0.3 1.9 0.8 2.9 0.7 0.2 0.2 0.5 0.1 0.6 0.4 0.3 0.4 0.8 0.3 1.2 0.5 0.8 0.5 0.2-0.4 0.5-0.6q0.4 0 0.9 0c-0.3-0.5-0.6-1-1.3-1q-0.1-0.2-0.3-0.4zm-237.4 32q0 0-0.1 0 0.1 0 0.1 0zm119.8-1c0 0.2 0.1 0.1 0.2 0.1q0 0-0.1 0.1c0-0.1-0.1 0-0.1-0.2zm-13.1-1.1c-0.1 0-0.1-0.1 0-0.2-0.1 0.1 0 0.1 0 0.1 0 0.1 0 0.1 0 0.1zm-32.1 2.1q0.1 0 0.1 0 0 0 0 0 0 0-0.1 0zm-71.9-6.2q0 0 0 0 0 0 0 0 0 0 0 0zm-83.1 7c0 0 0 0.1 0 0.1q0-0.1 0-0.1 0 0 0 0zm-0.2 0.7q0 0-0.1 0.1c0-0.1 0-0.1 0-0.1q0 0 0-0.1c0.1 0.1 0 0.1 0.1 0.1zm-7.9-0.3q0 0 0 0 0 0 0 0c0.1 0 0 0 0 0zm-9.8-59.7q0 0 0.1 0c-0.4 0.3-0.8 0.5-0.8 1.1 0 0 0-0.1 0-0.1 0.4-0.2 0.5-0.6 0.7-1zm204.2-4.5c0 0-0.1-0.1-0.1-0.2q0 0 0.1 0.1c0 0 0 0.1 0 0.1zm100.6 28.7q0 0 0 0 0 0 0-0.1 0.1 0 0.1-0.1 0.1 0.1 0.1 0.1c0 0-0.1 0-0.2 0 0 0 0 0.1 0 0.1zm-270.7 33.8q0-0.1-0.1-0.1h0.1q0 0.1 0 0.1zm-48.5-42.2c0.1 0.1 0 0.2 0.1 0.2 0 0 0 0-0.1 0 0.1-0.1 0-0.1 0-0.2zm155.5-15c0-0.1 0 0 0-0.1q0 0 0 0 0.1-0.1 0-0.3 0 0 0 0c0 0 0 0.2 0 0.2 0 0 0 0.1 0 0.1 0 0.1 0 0 0 0.1zm37.7 2.4q0 0 0 0 0 0 0 0-0.1 0-0.1-0.1 0 0.1 0.1 0.1 0 0 0 0zm71.8-3.1q0 0.1 0 0.2c0-0.1 0-0.1 0-0.2zm61.5 8.4c0.1 0 0.1 0 0.1 0q0 0 0 0 0 0 0 0-0.1 0-0.1 0zm-158 49.3q0 0 0 0 0.1-0.1 0.1-0.2 0 0.1-0.1 0.2zm-67.2 1.2q-0.1 0.2 0 0.4 0-0.2 0-0.4zm-71.1-2.8q0 0-0.1-0.1 0 0 0 0 0.1 0.1 0.1 0.1 0 0 0 0zm-20.7-52.7c-0.2 0.1-0.2 0.1-0.4 0.1 0.2-0.1 0.3-0.2 0.4-0.4 0 0.1-0.1 0.2 0 0.3zm88 49.8c0 0.1-0.1 0-0.2 0.1q0.1-0.1 0.1-0.2c0.1 0 0.2 0 0.1 0.1zm-46.5 3.9q0.1 0 0.3 0c-0.1 0-0.2 0-0.3 0zm-51.5-12.5q0 0 0 0c0 0 0 0 0 0q0 0 0 0zm125.3-42.9q0 0 0.1 0-0.1 0-0.1 0 0 0 0 0zm35.1 0.7q0.2 0.1 0.4 0-0.2 0-0.4 0zm22.4-5h-0.1q0.1 0 0.1 0 0 0 0 0zm17.3 1.1q0 0 0 0 0 0 0 0.1 0-0.1-0.1-0.1 0.1 0 0.1 0 0 0 0 0zm100.9 1.8q0 0 0 0 0 0 0 0 0 0 0 0zm3.5 0.7q0 0 0 0 0 0 0 0 0 0 0 0 0 0 0 0zm28.2 18.9q0.1 0 0.1 0-0.1 0.1-0.1 0.1 0 0 0-0.1zm-28.5 28q0 0 0 0c0 0 0 0 0 0q0 0 0 0zm-20 1.8q0 0 0 0 0 0 0 0-0.1 0-0.1-0.1 0.1 0.1 0.1 0.1 0 0 0 0zm-13.4-1.1c0 0-0.1 0 0 0 0 0 0 0 0 0q0 0 0 0zm-174.1 8.1c0-0.2-0.1-0.3-0.2-0.5q0 0 0 0.1c0.1 0.1 0.3 0.2 0.2 0.5 0 0 0-0.1 0-0.1zm-45.5-3.1q0 0 0 0 0 0 0 0 0 0 0 0zm-34.1-46.3c0.1 0.1 0.2 0 0.3 0.1q-0.2 0-0.3 0.1 0-0.1 0-0.2zm14.8-3.8q0 0.1-0.1 0.2 0 0 0 0 0.1-0.1 0-0.2 0.1 0 0.1 0zm104.4 4.2q0 0 0 0 0 0 0 0 0 0 0 0zm20.3-4.6q0 0 0 0 0 0 0 0 0 0 0 0zm153.8-1c-0.1 0 0 0.1 0 0.2q-0.1-0.1-0.1-0.2 0 0 0.1 0zm-156.3 48.7q0 0 0 0 0 0 0 0zm-14.2-1c-0.1 0-0.1 0.2-0.2 0.2q0.1-0.2 0.2-0.5c0 0.1 0 0.2 0 0.3zm-39.6-41.6c0.1 0.2 0.1 0.4 0.3 0.5q0 0-0.1 0.1c0-0.3-0.1-0.4-0.2-0.5q0-0.1 0-0.1 0 0 0 0zm33.1 0.5q0 0 0 0 0 0 0-0.1 0 0.1 0 0.1zm61.8 0.5c-0.1 0.2-0.2 0.4-0.3 0.6q-0.2-0.4 0.3-0.6zm8.1-7.4q0-0.1-0.1-0.1 0.1 0 0.1 0 0 0 0 0.1zm32.5-0.7q0 0.2 0.1 0.4c0-0.1 0-0.2-0.1-0.4zm49.9 3.2q0 0 0 0 0 0 0 0.1 0-0.1 0-0.1zm34.4 3.3q-0.1 0-0.2 0c0.1 0 0.1-0.1 0.1-0.1 0.1 0 0.1 0 0.1 0.1zm-64 33.7c0 0 0 0 0-0.1q0 0 0 0 0 0.1 0 0.1zm-91.8 7q0 0 0 0 0 0 0 0c0.1-0.1 0.1-0.1 0.1-0.1q0 0 0 0 0 0 0 0 0 0 0 0.1-0.1 0-0.1 0zm-108.6-43.1q0-0.1 0-0.1 0 0 0 0.1zm172.5 3.9q0 0 0 0 0 0 0 0 0 0 0 0zm13.8 10.6q0 0 0 0.1 0-0.1 0-0.1c0 0 0 0 0 0zm68.1 11.3c-0.2 0-0.3 0.1-0.5 0.2 0.1-0.1 0.3-0.1 0.3-0.3 0.1 0 0.1 0 0.2 0.1zm-61.1 14.2q0.1-0.2 0-0.3 0 0 0 0 0 0 0 0.1 0.2 0.1 0 0.2zm-84.5 2.4q0 0 0 0 0-0.1 0-0.1 0 0 0 0.1zm-122.5 1.3q0 0 0 0-0.1 0-0.1 0.1 0 0 0 0 0-0.1 0.1-0.1zm4.7-43.2c0.1 0.2 0.1 0.3 0.2 0.4 0-0.1 0-0.3-0.2-0.4zm231.7 8.3q0 0 0 0.1 0 0 0 0c0 0 0 0 0-0.1zm-77 28q0 0 0-0.1c0 0 0-0.1 0.1-0.1q0 0.1-0.1 0.2zm-56.9 0.4c0 0 0 0-0.1-0.1 0.2 0.1 0.3 0 0.4-0.1 0 0.1-0.1 0.1-0.2 0.2 0 0 0 0.1-0.1 0zm-3.3-28q0 0 0 0 0 0 0 0zm23.5-5.9c0 0 0.1 0.1 0.2 0.2q-0.2 0.1-0.4 0.3c-0.1-0.3 0.1-0.4 0.2-0.5zm3.6 15.4q0 0.1 0 0.1 0 0 0 0 0-0.1 0-0.1zm9.4-1.4c0 0 0 0 0 0-0.1 0-0.1 0.1-0.3 0 0 0 0-0.1-0.1-0.1 0.2 0.1 0.3 0 0.4 0.1zm38.8 5.6q0 0 0 0c0 0 0 0.1-0.1 0.1 0.1 0 0.1-0.1 0.1-0.1zm-82.2-14.4q0.1 0 0.1-0.1 0 0.1 0 0.1 0 0 0 0-0.1 0-0.1 0 0 0 0 0 0 0 0 0c0 0 0 0 0.1 0q0 0-0.1 0zm54.5 2.8q0 0 0 0 0 0 0 0 0 0 0 0zm25.8 3.9q0 0 0 0 0 0 0 0-0.1-0.2-0.3-0.3 0 0 0 0c0.1 0.1 0.2 0.2 0.3 0.3zm-5.2 10.4q0.1 0 0.1 0 0 0-0.1 0zm-101.9 6.6c0 0-0.1 0-0.2 0q0 0 0 0 0-0.1 0-0.1c0 0 0 0.1 0 0 0.1 0 0.1 0 0.1 0 0.1 0 0.1 0.1 0.1 0.1zm-25.9 7.2c-0.3-0.1-0.3-0.1-0.5-0.2 0.1 0 0.3 0 0.4-0.1 0 0.1 0 0.2 0.1 0.3zm-4.9 4.4q0 0 0 0 0 0 0 0 0 0 0 0zm-22.8-3.3q0-0.1 0-0.1 0 0 0 0 0 0 0 0.1zm-5.6-29c0.1 0 0.2-0.1 0.2-0.2-0.1 0.1-0.1 0.2-0.2 0.2zm4.3 19.9c0 0 0 0.1 0 0q0 0 0 0 0 0 0 0zm-10.8 4.7q0 0.1-0.1 0.1 0 0 0.1-0.1 0 0 0 0zm28.5-22.8q0 0-0.1 0c0 0 0.1 0 0 0q0.1 0 0.1 0zm16.2-5.2c0.1 0.1 0.1 0.3 0.2 0.3q0 0.1 0 0.1c0-0.2-0.1-0.2-0.2-0.4zm18.2 1.5q0 0 0 0 0 0.1-0.1 0.3 0-0.2 0.1-0.4c0 0.1 0 0 0 0.1zm-46.6 25.6q0 0 0 0 0 0 0-0.1c0 0.1 0 0.1 0 0.1zm-18.2-2.3q-0.1 0-0.1 0 0.1 0 0.1-0.2c0 0.1 0.2 0.2 0 0.2zm10.5-15.6q-0.1 0-0.1 0 0 0 0 0 0 0 0.1 0zm14.1 3.4q0.1 0.1 0.1 0.1c-0.1 0-0.1 0-0.1 0 0 0 0 0 0-0.1zm-22.3 10.4c0 0 0 0 0 0q0 0 0-0.1 0 0.1 0 0.1zm-21.8-10.5q0 0 0 0c0-0.1 0-0.1 0-0.1q0 0 0 0.1zm38.4 0c0-0.2-0.1-0.2-0.2-0.3q0 0 0 0c0.1 0.1 0.2 0 0.2 0.3zm33.5-6.2q0 0 0 0 0 0.1-0.1 0.1c0 0 0.1-0.1 0.1-0.1zm1.3 20.3c0 0 0 0 0 0q0 0 0 0zm-2.8-8.5q0 0 0-0.1 0 0 0 0 0 0.1 0 0.1 0 0 0 0zm0-0.1q0 0 0 0 0 0 0 0 0 0 0 0 0 0 0 0zm-11.9 3.3q0 0.1 0 0.1 0-0.1 0-0.1 0 0 0 0zm-2.2 4.5q0 0 0 0-0.1 0-0.2 0 0 0 0 0 0.1 0.1 0.2 0zm-1.1-13.1q0-0.1 0.1-0.1c0.1 0 0.1 0 0.2 0-0.1 0.1-0.1 0.1-0.1 0.2q-0.1 0-0.1 0-0.1-0.1-0.1-0.1zm12.4-7.4q-0.1 0-0.1 0 0 0 0 0 0 0 0.1 0zm0 0q0 0.1 0 0.1 0 0-0.1 0c0 0 0.1 0 0.1-0.1zm-12.3 7.5q0 0 0 0 0 0 0.1 0-0.1 0-0.1 0zm1.5 4.5c0-0.4 0-0.7 0.6-0.6-0.2 0.1-0.4 0.4-0.6 0.6zm12.8-1.7q0.1 0 0.2 0c-0.1 0-0.1 0-0.2 0zm-5.4-3.4q-0.1 0.1-0.2 0.1c0 0 0.1-0.1 0.2-0.1zm-7.5-1c0 0.1 0.1 0.2 0.2 0.4q-0.1-0.2-0.2-0.4zm-0.7 0.5c0 0-0.2 0-0.2 0q0 0 0 0c0.1 0 0.1 0 0.2 0 0-0.1-0.1-0.2-0.1-0.3 0.1 0 0.1 0.1 0.1 0.2 0 0 0 0.1 0 0.1zm7.9 5.8q-0.1-0.1-0.2-0.2c0 0 0 0.1 0.1 0q0 0.1 0.1 0.2zm-3.3-10.5c0-0.1 0.1-0.2 0.1-0.3 0 0.1-0.1 0.2-0.1 0.3zm-19.8 12.1c0-0.1 0-0.1 0-0.1 0 0 0 0 0 0.1zm-1.8 2.5q0 0 0 0 0 0 0 0 0 0 0 0zm-26.1-6.6q0-0.1-0.1-0.1c0 0 0-0.1 0.1-0.1q0 0.1 0 0.2zm-3.5-1.8q0 0 0 0 0 0 0 0 0 0 0 0zm-1.6 7.2q0 0 0.1 0-0.1 0-0.1 0 0 0 0 0zm12.4-1.3q0-0.1 0-0.1c0.1 0 0.1 0.1 0.2 0.1q-0.1 0-0.2 0zm-10.8-13.3q0 0 0 0 0 0.1 0 0.1 0 0 0-0.1zm32.6 8.6c0 0 0 0 0-0.1q0 0 0 0c0 0.1 0.1 0.1 0 0.1zm-19.9-3.7q0 0 0 0 0 0 0 0 0 0 0 0zm3.1 3.2c0 0.1 0 0.2 0 0.4-0.1-0.1-0.1-0.3-0.2-0.4q0.1 0 0.2 0zm5.3 1.2c0-0.1 0.1-0.1 0-0.2q0.1 0 0.1 0c0 0.1 0 0.1-0.1 0.2zm5 0.7q0 0 0 0 0 0 0 0zm2.4-1.3c0.1 0 0.2-0.1 0.3 0q-0.1 0-0.3 0zm-1.9-2.1q0 0 0 0 0 0 0 0 0 0 0 0zm-0.6 1.3q0 0.1 0 0.1 0 0 0 0 0 0 0-0.1zm-0.1-4.1c0.1 0 0.1-0.1 0.1-0.1q0 0.1 0 0.1 0 0-0.1 0zm-3.8 3.9c0 0 0 0 0 0q0 0 0.1 0-0.1 0-0.1 0zm2.9-1.4q0 0 0 0 0 0 0-0.1 0 0 0 0.1zm-11.2-5.3c-0.1 0.1-0.2 0.2-0.4 0.3 0.3 0 0.3-0.2 0.4-0.3zm-9.2 20.5c-0.2 0.1-0.3 0-0.4 0.1 0-0.1 0-0.1 0-0.2 0.1 0.1 0.2 0.1 0.4 0.1zm12.9-8.8c-0.3-0.2-0.5-0.4-0.7-0.7 0.2 0.3 0.4 0.5 0.7 0.6q0 0 0 0.1zm13.8 3.7c0 0.1 0 0.1 0 0.1q-0.1 0-0.1-0.1 0 0 0.1 0zm30.4 7.4c0 0-0.1 0-0.1 0 0 0-0.1-0.1-0.1-0.1 0.1 0 0.2 0 0.2 0.1zm6.7-14.6q0 0 0 0 0 0 0 0 0 0 0 0zm5.2-0.8q0 0 0 0 0.1 0 0.1 0 0 0 0 0-0.1 0-0.1 0 0 0 0 0zm0.1-0.1c0.1-0.3 0.3-0.7 0.3-1.1 0-0.2 0.1-0.4 0.2-0.3 0 0 0 0 0.1 0-0.3 0.4-0.7 0.8-0.6 1.4zm2.3-2c-0.1 0-0.2 0-0.4 0 0.1-0.1 0.2-0.2 0.3-0.3 0.1 0.1 0 0.2 0.1 0.3zm-7.4 4.5q0 0 0 0c0 0 0 0.1 0 0.1 0.1 0 0.1 0 0.1-0.1q0 0 0 0-0.1 0.2-0.1 0.3c0-0.2 0-0.3-0.1-0.4q0.1 0.1 0.1 0.1zm1.1 0.2q-0.1 0-0.3 0 0.2 0 0.3 0zm2.1 1.9q0 0.1 0 0.2c0 0 0 0.1-0.1 0.2 0.1-0.1 0.1-0.2 0.1-0.2q0-0.1 0-0.2zm-0.1 0.4q0 0 0 0 0 0 0 0 0 0 0 0zm1.8-3c0-0.1 0.1-0.1 0.1-0.1 0.1 0.1 0.1 0.1 0.2 0.2-0.1 0-0.2-0.1-0.3-0.1zm-11-10q0 0.1 0 0.1 0 0 0-0.1 0 0 0 0 0 0 0 0zm-3-4.3q0-0.1 0-0.1c0 0-0.1 0 0 0.1zm-39 7.9c0 0.1 0.1 0.2 0.1 0.3q-0.1-0.1-0.1-0.3zm-31 16.1q0.1 0 0.1 0 0.1 0.1 0.1 0.2c-0.1 0-0.1 0-0.2 0 0-0.1 0-0.1 0-0.2zm27.1-3.3q0 0.1 0 0.1 0 0 0-0.1c0 0 0 0 0 0q0 0 0 0zm9.9 2.7q0 0.1 0 0.1 0 0 0 0 0 0 0-0.1zm1.7 1.2q0 0.1 0 0.1c0 0 0 0.1 0 0.1 0 0 0 0 0 0q0-0.1 0-0.1-0.1 0-0.1 0c-0.1 0-0.2 0.1-0.2 0 0.1 0.2 0.2 0 0.3-0.1zm4.9 0.1q0 0.1 0 0.1 0 0-0.1 0 0.1 0 0.1-0.1zm0.2 0.3q0 0.1 0 0.1c0.2 0.4-0.1 0.3-0.3 0.3 0.2-0.1 0.3-0.1 0.3-0.4zm1.2-9.2c0 0.2 0 0.2 0 0.3 0 0-0.1-0.1-0.2-0.1q0.1-0.1 0.2-0.2zm5 0.3c0.1 0 0.1 0 0.1 0 0.2 0.2 0.2 0.4 0.2 0.7q0 0-0.1 0c0.2-0.4 0-0.5-0.2-0.7zm32.2-0.4c0 0.2 0 0.4 0 0.5 0-0.1 0-0.3-0.1-0.4q0.1 0 0.1-0.1zm11.5-10.8c-0.2 0-0.3 0-0.4 0 0.2 0 0.4-0.1 0.5-0.2 0 0 0 0.1-0.1 0.2zm-2.2-1.4q0 0-0.1 0 0.1-0.1 0.1-0.1c0 0 0 0.1 0 0.1zm-9.1 1.2c-0.1 0.1-0.1 0.2-0.2 0.2 0.1 0 0.1-0.1 0.2-0.2zm-5.5 7.5q0 0 0 0 0 0 0 0 0 0 0 0zm-4.2-9.6q0-0.1 0.1-0.1-0.1 0-0.1 0.1zm-11.5-4.5q0.1 0 0.1-0.1 0 0.1-0.1 0.1zm-2.8 5.6q0 0.1 0 0.1c-0.1 0-0.1-0.1-0.1-0.1q0 0 0.1 0zm-24 4q0 0.1-0.1 0.1c0 0-0.1 0-0.1-0.1 0 0 0.1 0.1 0.2 0zm-29 2.2c-0.1 0.1 0 0.3-0.2 0.3 0 0 0.1-0.1 0.1-0.2 0 0 0-0.1 0.1-0.2q0 0.1 0 0.1zm-2.7-0.7q0 0 0 0-0.1 0-0.1 0 0 0 0 0 0 0 0-0.1 0 0.1 0.1 0.1 0 0 0 0zm23.1 10.2q0 0 0 0 0 0 0 0zm58.4 2.4q0 0 0.1-0.1-0.1 0.1-0.1 0.1zm8.6-12.3q0 0 0 0 0 0 0 0 0 0 0 0zm6.5-3.5c0 0 0.1-0.1 0.1-0.1q-0.1 0.1-0.1 0.1 0 0 0 0zm19.9-2.2q0 0 0 0 0 0 0 0 0 0 0 0zm50 3.4c0 0 0 0.2 0 0.2q0.1-0.1 0-0.2 0 0 0 0 0 0 0 0zm1.2 0.8c0 0.1 0 0.1 0 0.2-0.1-0.1 0-0.1 0-0.2zm22 2.1q0 0 0 0 0 0 0 0 0 0 0 0zm-14-1.7q0 0.1-0.1 0.2c0.1-0.1 0-0.2 0.1-0.2zm0.8 9.3q0 0 0 0 0 0 0 0 0 0 0 0 0-0.1 0-0.1c0 0 0 0.1 0 0.1q0 0 0 0zm1.5-5.8q0 0.2 0.1 0.3-0.2-0.2-0.3-0.3c0 0 0.1 0.1 0.2 0zm3.7-7q0 0.1 0 0.1 0 0 0 0 0 0 0-0.1 0 0 0 0zm1.9 1.2c-0.1-0.1-0.2-0.2-0.2-0.3 0.2 0 0.4 0 0.6 0-0.1 0.1-0.4 0.2-0.4 0.3zm-26.1 23.2q0 0 0-0.1 0 0 0 0 0 0.1 0 0.1zm5.2-26.1q-0.1 0-0.1 0 0.1-0.1 0.2-0.1-0.1 0-0.1 0.1zm-9.9 20.7c0.1 0 0.1 0 0.2-0.1 0 0.1-0.1 0.1 0 0.2-0.1 0-0.1-0.1-0.2-0.1zm7.1-15.3c0.1-0.1 0.1-0.1 0.1-0.2q0 0 0 0c0 0.1-0.1 0.2-0.1 0.3 0-0.1-0.1-0.2-0.1-0.3q0 0 0 0 0.1 0.1 0.1 0.2zm0.5 2.3q0 0 0 0 0 0 0 0 0 0 0 0 0 0 0 0zm4.2-0.7c0 0 0 0 0 0q0 0 0 0.1 0 0 0-0.1zm-1.9 7.9c-0.1-0.1 0-0.1 0-0.1q0-0.1 0-0.1c0 0.1 0 0.1 0 0.2 0 0.1 0 0.1 0.1 0.1-0.1 0.1-0.2 0.2-0.3 0.3 0.1-0.2 0.2-0.3 0.2-0.4zm0.3-10.3q0 0 0 0 0 0 0 0 0 0 0 0zm-0.1 0.1q0 0 0 0 0 0 0 0zm-4.4 2.3q-0.1 0-0.1 0 0.1 0 0.1 0 0 0 0 0zm1.5 6q0 0 0 0c0-0.4-0.3-0.6-0.6-0.6q0 0 0 0c0.6-0.3 0.6 0.2 0.6 0.6zm-8.9 5.7q0-0.1 0-0.1 0 0 0 0.1zm14.4-17q0 0 0 0 0.1 0 0.1 0 0 0-0.1 0zm-15.3 12.7q0 0 0 0 0 0 0 0 0 0 0 0zm9.5 9.2q0 0 0 0 0 0 0 0 0 0 0 0zm6.2-19q0 0 0 0c0 0 0.1-0.1 0.2-0.1-0.1 0-0.2 0.1-0.2 0.1zm-1.7-3.1c-0.1 0.1-0.3 0.2-0.3 0.1 0 0-0.1 0-0.1 0q0.2 0 0.4-0.1zm-1.7-1.3q0 0 0 0 0-0.1 0.1-0.1c-0.1 0-0.1 0-0.1 0.1zm-0.1 1.5c0.1 0.1 0.1 0.1 0.1 0.2q0 0-0.1 0c0 0 0-0.1 0-0.2zm-12.1 9.8q0.1 0 0.1-0.1c0 0.1 0 0 0 0.1q0 0-0.1 0zm-35.1 10.7q0 0 0 0zm-9.8-1.4q0 0 0 0 0 0 0 0zm4.2-9.8q0 0 0.1 0c0 0.1 0.1 0 0.1 0.1 0 0.1 0 0.2-0.1 0.2q-0.1-0.1-0.2-0.3 0.1 0 0.1 0zm-2.1-2.2q0-0.1 0-0.2c0 0.1 0.1 0.1 0.1 0.1q-0.1 0.1-0.1 0.1zm10 0.7q0 0 0 0 0 0 0 0 0 0 0 0c0 0 0-0.1 0.1-0.1q-0.1 0.1-0.1 0.1zm-3.5-1.6c-0.1-0.1 0-0.2 0-0.3q0.1 0.1 0.3 0.2c-0.1 0-0.2 0.2-0.3 0.1zm-6.1-0.8q0 0 0 0.1 0-0.1 0-0.1 0 0 0 0zm26.1 3.8q0 0 0 0 0 0 0 0 0 0 0 0zm-0.9 1.9q0.1-0.1 0.3-0.1-0.2 0.1-0.4 0.1c0.1 0 0 0 0.1 0zm2.8 0q0 0 0 0 0 0-0.1 0c0 0 0-0.1 0.1 0zm-8.2 1.6c0-0.1 0.1-0.1 0.1-0.1q0 0 0 0.1c0 0-0.1 0-0.1 0zm5.4-6.9q0 0 0 0 0 0.1 0 0.1 0-0.1 0-0.1zm-0.8-2.9q0 0 0 0 0 0 0.1 0-0.1 0-0.1 0zm-6-0.4c0 0 0 0 0 0q0 0 0 0 0 0 0 0zm0 0.1c0 0.1 0 0.2-0.1 0.3q0 0 0 0 0.1-0.1 0.1-0.4 0 0.1 0 0.1zm-16.8 10.4c0 0.1 0 0.1 0 0.1q0 0 0 0 0 0 0-0.1zm30.6-4.1c0-0.1-0.1-0.1 0-0.1 0 0 0 0 0 0.1q0 0 0 0zm-3.5-6.2c0 0-0.1 0.1-0.1 0q0 0 0 0 0.1 0 0.1 0zm-19.7-0.6q0 0 0 0c-0.1 0-0.1 0-0.1 0 0 0 0 0 0.1 0zm0.1-0.1q0 0 0 0c0 0-0.1 0-0.1 0q0 0 0 0 0 0 0.1 0zm-17.8 5.5q0 0 0 0 0 0 0 0 0 0 0 0zm32.2-5.8c0-0.1-0.1-0.2-0.2-0.4q0.2 0.3 0.4 0.5c0 0-0.1 0.1-0.2-0.1zm-1.7 0.1c0 0 0 0 0-0.2q0 0 0.1 0c-0.1 0-0.1 0.1-0.1 0.2zm-1.2 3.2c-0.2 0-0.1-0.1-0.2-0.2 0.1 0.1 0.1 0.1 0.2 0.2q0 0 0 0zm-5.8-5q0 0 0-0.1 0 0 0.1 0c0 0.1-0.1 0.1-0.1 0.1zm-16.5-2.4q0 0 0 0 0 0 0 0 0 0 0 0zm-5.4 8.4q0 0 0 0.1 0 0 0 0 0-0.1 0-0.1zm-4.9-0.7q0 0 0 0c0 0 0 0-0.1 0 0.1 0 0.1 0 0.1 0zm15.4 17c0.2 0.2 0.3 0.4 0.4 0.6q0 0 0 0c0.1-0.3-0.2-0.4-0.4-0.6zm9.4-5.2q-0.1 0-0.2 0c0.1 0 0.2 0 0.2 0zm1.2-6.4c0.2 0 0.1 0.1 0.2 0.2-0.1-0.1-0.1-0.2-0.2-0.2q0 0 0 0zm4.5 6.9q0 0 0 0 0 0 0 0 0 0 0 0zm31.4 6.8q0 0 0 0 0 0 0 0 0 0 0 0zm9.3-13.6q0 0 0 0 0 0 0 0zm1 0.3q-0.1-0.2-0.2-0.4 0 0 0 0 0 0 0 0 0.2 0.2 0.3 0.4c-0.1 0.1-0.1 0-0.1 0zm6 0.3q0 0.1 0 0.2c-0.1-0.1-0.1 0-0.1-0.1 0.1 0 0.1-0.1 0.1-0.1zm9.7-1.9c0.1 0 0.2 0 0.3 0 0 0 0.1 0 0.1 0.1-0.1-0.1-0.3 0-0.4-0.1zm8.2-4.2q0 0 0 0 0 0 0-0.1 0.1 0 0.1 0-0.1 0.1-0.1 0.2 0 0 0-0.1zm-39.1 1.7q0-0.1 0-0.2c0 0.1 0 0.1 0 0.2zm-11.9-8.7c0.1 0 0.1 0.1 0.2 0.2q-0.1-0.1-0.2-0.2 0 0 0 0zm-0.3-1.1q0 0 0 0 0 0 0 0c0 0.1 0.1 0.1 0.1 0.1q-0.1 0-0.1-0.1 0 0 0 0zm-35.6 2.7q0 0 0 0 0 0 0 0 0 0 0 0zm-5 2.5c0 0 0 0.1 0 0.1q-0.1-0.1-0.1-0.1c0 0 0.1 0 0.1 0zm-4.1-2.9c0-0.1-0.1-0.1-0.1-0.1 0.3-0.2 0.6-0.5 0.9-0.5 0.2 0.1 0.2 0 0.3-0.1-0.6 0.3-1 0.5-1.1 0.7zm-6.5-1.5q0 0 0 0 0 0 0-0.1 0 0 0 0 0.1 0 0.1 0 0 0.1-0.1 0.1zm-1.7-5c0 0 0 0 0 0q0 0 0 0c0 0 0 0 0 0zm-5.1 1.8q0 0 0 0 0-0.1 0-0.1 0 0.1 0 0.1zm-11.9 2.8q0 0 0 0 0 0 0 0 0 0 0 0zm-52.5-2.1q0 0 0 0 0 0 0 0 0 0 0 0zm-6.5 1.3c0.3 0.4 0.6 0.8 0.9 1.1-0.4-0.2-0.7-0.6-0.9-1.1zm-7.6-4.4c0 0 0 0.1 0 0.1q0-0.1-0.1-0.1 0.1 0 0.1 0zm-4.9 10.8q0 0 0 0 0 0 0 0 0 0 0 0zm-1.7 21.2q0 0 0-0.1c0 0 0 0.1 0.1 0.1q-0.1 0-0.1 0zm20-3.5q0 0 0 0 0 0 0 0 0 0 0 0zm26.8-6c-0.1 0.1 0 0.1 0 0.1q-0.1 0-0.1-0.1 0 0 0.1 0zm5 8.5c0 0 0 0 0 0q-0.1 0-0.1 0 0 0 0.1 0zm48.1-13.8c0 0 0 0.1 0 0.1q0-0.1 0-0.1 0 0 0 0zm4.8 0.7q0 0 0 0 0 0 0 0 0 0 0 0zm1.2 6.3q0 0 0 0 0 0 0 0 0 0 0 0zm36.7 5.6c0.2 0 0.3-0.2 0.4-0.2 0 0.2-0.2 0.2-0.3 0.5q0 0 0 0c0-0.1 0-0.2-0.1-0.3zm14.1 0.4c-0.1 0.1-0.1 0.1-0.1 0.1q0 0 0-0.1c0 0.1 0 0 0.1 0zm27.7-10.2q0 0 0 0c0.1 0 0.1-0.1 0.2-0.1-0.1 0.1-0.1 0.1-0.2 0.1zm12.3-5.7q0 0 0 0 0 0 0 0 0 0 0 0zm1.4-3.5c0-0.1-0.1 0-0.1 0 0 0 0.1-0.1 0.1-0.1 0 0.1 0 0.1 0 0.1zm0 1.8c0 0.1 0.1 0.3 0.2 0.5q0 0 0 0.1c-0.1 0.1-0.2 0.3-0.4-0.1q0.1-0.2 0.2-0.5zm0.5 2.1c-0.1 0-0.2 0.1-0.2 0.1q0.1 0 0.1-0.1 0.1 0 0.1 0zm-12.6-9.2q0 0 0 0 0 0-0.1 0c0.1 0 0.1 0 0.1 0q0 0 0 0zm-6.5-3.8q0-0.1 0-0.1c0-0.1-0.1-0.2 0-0.2-0.1 0.1 0 0.2 0 0.3zm-10.4 3c0.1-0.2 0.3-0.3 0.1-0.6 0 0.2 0 0.4-0.1 0.6zm-9.9 8.6q0 0 0 0 0 0 0 0 0 0 0 0zm-9.3 2q0-0.1 0-0.1 0 0 0 0 0 0 0 0.1zm-2.9 1.2q0 0 0 0 0 0 0 0 0 0 0 0zm-1-4.7q0.2 0 0.4 0c-0.2 0-0.3 0-0.4 0zm-33.8-8.4q0 0 0 0 0 0 0-0.1 0 0.1 0 0.1 0 0 0 0zm-5.5-0.6c0 0 0 0.1 0 0.1q0 0 0 0 0 0 0-0.1zm-15.8 0.9q0 0 0-0.1 0 0 0 0c0 0.1-0.1 0.1 0 0.2q0 0 0 0.1c0-0.1 0-0.2 0-0.2zm-0.6-3.3c0 0 0 0 0 0q0 0 0 0 0 0 0 0zm-75.2 2.3q0.1 0.1 0.1 0.1 0 0-0.1-0.1zm-2.7-3.2c0.2 0 0.4 0 0.5 0.1 0 0.1 0 0.2 0.1 0.2q-0.3-0.2-0.6-0.3zm-3.3 0c0.3 0.1 0.5 0 0.7-0.2-0.2 0.1-0.5 0.1-0.7 0.2zm-8.7 33.3q-0.1 0-0.1-0.1 0 0 0.1 0 0 0 0 0.1zm33.6-7c0 0.1-0.1 0.1-0.2 0.1q0-0.1 0-0.1c0 0 0.1 0 0.2 0zm0.3 7.6q0 0 0 0.1-0.1 0-0.1-0.1 0 0 0 0 0 0 0.1 0zm2.3-1.8c-0.1 0.1 0 0.2 0 0.3q0 0 0-0.1c-0.1-0.1-0.1-0.1 0-0.2zm16.9 4.7c0 0 0 0 0 0q0 0 0-0.1 0 0 0 0.1zm5.3 0.5zm20.3-5.1q-0.1 0-0.2 0 0 0 0 0 0.1 0 0.2 0zm4.7-1.1q0.1-0.1 0.2-0.2-0.1 0.1-0.2 0.2 0 0 0 0zm5-12q0 0.1 0 0.1c-0.1 0-0.1-0.1-0.1-0.1 0 0 0 0 0.1 0zm14.2 0.7c0.1-0.1 0.2-0.2 0.3-0.2-0.1 0-0.2 0.1-0.3 0.2zm16.6 10.6c0 0.3 0.2 0.5 0.5 0.5q-0.2-0.3-0.5-0.4c0 0 0-0.1 0-0.1zm0.3-0.9c0.1-0.3 0.1-0.5 0.4-0.6-0.2 0.2-0.3 0.4-0.4 0.6zm24.5 0.9q0 0 0 0 0 0 0 0 0 0 0 0zm4.7 0c0 0.1 0 0.2-0.1 0.3 0-0.1 0-0.3 0-0.4 0 0 0.1 0 0.1 0.1zm19-0.6q0 0.1 0 0.1 0 0 0 0 0 0 0-0.1zm4.9-8.7q0 0 0 0 0 0 0 0 0 0 0 0zm26.2-10.8q-0.1-0.1-0.2-0.2c0 0 0.2 0 0.2-0.1 0.1 0.1 0 0.2 0 0.3zm-1.9-1.4q0-0.1 0-0.1 0 0 0 0 0 0 0 0.1zm-3.3 0.3q0 0 0 0 0 0 0 0 0 0 0 0zm-0.3-8.7q0 0 0 0 0 0 0 0 0 0 0 0zm-3.5-3.5c-0.2-0.2-0.1-0.3-0.1-0.4q0.1 0.3 0.4 0.4c-0.1 0-0.2 0.1-0.3 0zm-5.8 2.8c0 0 0 0 0 0 0 0 0 0 0 0q0 0 0 0zm-32.6 13.4q0 0 0 0 0 0 0 0 0 0 0 0zm-11.6-13.2c0 0.1 0.1 0.1 0 0.2q0-0.1 0-0.2 0 0 0 0 0 0 0 0 0 0 0 0 0 0 0 0 0 0 0 0 0 0 0 0zm-1.3 4.3c0 0 0 0.1 0 0.1 0 0 0-0.1 0-0.1q0 0 0 0zm-34.5 0.3c0 0.1 0 0.2 0.1 0.3q0 0 0 0c-0.1-0.1-0.2-0.2-0.2-0.3 0 0 0 0 0.1 0zm-4.5 1.4q0 0 0 0 0.1 0 0.1 0 0 0-0.1 0zm-9-1.7q0-0.1 0-0.2c0 0.1 0.1 0.1 0.1 0.1q0 0-0.1 0.1zm-0.1-0.8q0 0 0 0 0 0 0 0 0 0 0 0zm-5-3.1q0 0 0 0 0 0 0 0 0 0 0 0zm-29 0q0 0 0-0.1 0 0 0 0.1 0 0 0 0zm-8.1 0q0 0 0 0 0 0 0 0 0.1 0.1 0.1 0.2c0 0.1 0 0.1-0.1 0.2 0.1-0.2 0-0.3 0-0.4q0 0 0 0zm-7.5 5.2c0-0.1 0-0.2 0-0.3q0 0 0 0 0 0.2 0 0.3zm-35.7-6.8c-0.1 0-0.1 0-0.2-0.1q0.1 0 0.2 0 0 0 0 0.1zm-8.7 10.7q0 0.1 0 0.1c-0.1 0-0.1 0-0.2 0q0.1 0 0.2-0.1zm-5.8-3c0 0 0.1 0.1 0.1 0.1-0.2 0.3-0.4 0.6-0.6 1q0 0 0-0.1c0.2-0.2 0.4-0.6 0.5-1zm-0.3 2.6q0 0.1 0 0.1 0 0 0 0 0 0 0-0.1zm13.7 25.6c0.2-0.1 0.4-0.1 0.5-0.2 0.1 0 0.1 0.1 0.1 0.2-0.2-0.1-0.4 0-0.6 0zm-0.5-1.8q0 0 0 0 0 0 0 0 0 0 0 0zm43.5 4.4q0 0 0 0c0.1 0 0.1 0.1 0.1 0.2 0-0.1-0.1-0.1-0.1-0.2zm13.6-0.9q0 0 0 0 0 0 0 0 0 0 0 0zm4.8 0.7q0.1 0.2 0.3 0.3 0 0 0 0c-0.1-0.1-0.2-0.2-0.3-0.3q0 0 0 0zm25.1-19.7q0 0 0 0c0-0.1 0 0 0-0.1q0 0 0 0c0 0.1 0 0.1 0 0.1zm29.4 13.7q0 0 0 0 0 0 0 0 0 0 0 0zm0.6-0.6c-0.1 0.1-0.2 0.1-0.3 0.1q0.1-0.1 0.3-0.1zm21.3 4.8c0-0.1-0.1-0.2-0.2-0.2 0.1 0 0.2 0.1 0.2 0.2zm54.4-15.3q0 0.1 0 0.2c0 0 0-0.1-0.1-0.1 0.1 0 0.1-0.1 0.1-0.1zm21.5-6.3h-0.1 0.1q0 0 0.1 0.1 0 0 0 0-0.1 0-0.1-0.1zm9.8 1.2q0 0 0 0-0.1 0.1 0 0.1 0 0 0 0 0 0 0-0.1zm15.8-13.5q0 0 0 0v0.1q0 0-0.1 0 0 0 0.1-0.1 0 0 0 0zm0.3 2.5c0 0 0 0 0 0q0 0 0 0c0 0 0 0 0 0q0 0 0 0zm-0.1 0.1q0 0 0 0c0.1-0.1 0.1-0.1 0.1-0.1-0.1 0.1 0 0.1-0.1 0.1zm34.3-3.6q-0.1 0-0.1 0 0 0 0.1 0zm-63.9 15.9q0 0 0 0 0 0 0 0 0 0 0 0zm-4.3 14.8c0.1 0 0.1-0.1 0.2-0.1 0.1 0 0 0.1 0 0.2q-0.1-0.1-0.2-0.1zm1.4-10.9q0-0.1 0-0.1 0 0 0 0 0 0.1 0 0.1zm6.8 7.6q0 0.1 0 0.1 0 0 0 0 0 0 0-0.1zm0.3 4.4q0 0 0.1 0-0.1 0-0.1 0 0 0 0 0zm25.2-22.3c0 0 0 0.1 0.1 0.1-0.1 0-0.1-0.1-0.1-0.1q0 0 0 0zm-6.2 9.3q0 0 0 0c-0.1 0.1-0.1 0.2-0.1 0.3q0 0 0 0c0.1 0 0.1-0.2 0.1-0.3zm6.5-0.5q-0.1 0-0.2 0c0.1 0 0.1-0.1 0.1-0.1 0.1 0 0 0.1 0.1 0.1zm0.3 2.1q0 0 0 0 0 0 0 0zm-12.9 6.1q0 0 0 0.1c0 0 0 0-0.1 0 0.1 0 0.1-0.1 0.1-0.1zm4.8-18.1q0 0 0 0.1 0 0 0 0 0-0.1 0-0.1zm-22.8 2.9q0 0 0 0 0 0 0 0 0 0 0 0zm-1.2-3.9c0-0.1-0.1-0.1-0.1-0.2 0 0.1 0.2 0.1 0.2 0.2-0.1 0-0.1 0.1-0.1 0zm-4.1 24q0 0 0 0 0 0 0 0 0 0 0 0zm10.1 0.7q0 0 0 0 0 0 0 0 0 0 0 0zm10.6-8.1q0 0 0 0 0 0 0 0 0 0 0 0zm47.1-8.2c0-0.1 0.1-0.2 0-0.3q0 0 0 0 0 0.2 0 0.3zm3.8 1.7c0-0.1-0.1-0.2-0.1-0.4 0.2-0.3 0.4-0.2 0.5 0-0.2 0.2-0.3 0.3-0.4 0.4zm0.4 2.4c0.1 0.4 0.1 0.5 0.1 0.8q-0.1-0.2-0.4-0.4c0.1-0.2 0.1-0.4 0.3-0.4zm1.3-5.8q0 0 0 0 0 0 0 0 0 0 0 0zm3.6-13.9q0 0 0 0c0 0 0-0.1 0-0.1 0 0 0 0.1 0 0.1zm-18.5 21.8q0 0 0 0c0 0 0 0 0 0.1q0-0.1 0-0.1zm-3.8-8.5q-0.1 0-0.1 0.1 0-0.1 0-0.1 0 0 0 0 0 0 0.1 0zm-5.8-1.7c0 0 0.1 0 0.1 0-0.1 0-0.1 0-0.1 0.1 0-0.1 0-0.1 0-0.1zm0.9 3.7q0 0 0 0 0 0 0 0 0 0 0 0zm8.9 6.3c-0.1 0-0.1 0.1-0.1 0.1 0 0 0 0 0 0q0 0 0 0c0 0 0-0.1 0.1-0.1zm3.4-6.6q0 0 0 0.1c-0.1 0-0.1 0-0.2 0 0.1 0 0.1-0.1 0.2-0.1zm-5.5 7q0 0 0 0 0 0 0 0 0 0 0 0.1 0-0.1 0-0.1 0 0 0 0 0 0 0 0zm1.2 2.1q0.1 0.1 0.2 0.2c0 0 0.2 0.1 0.2 0.1 0 0-0.2 0-0.2 0q-0.1-0.3-0.3-0.3 0 0 0.1 0zm23-20c0 0 0 0 0 0q0 0 0 0.1 0-0.1 0-0.1zm-3.1-8.6q0 0 0 0 0 0 0 0c0 0 0 0 0 0zm-11.8 13.7c0 0 0 0 0 0q0 0 0 0 0 0 0 0zm-1.8-2.8q0-0.1 0-0.1c0 0 0 0.1 0 0.1q0 0 0 0zm-12.8-1.6q-0.2 0-0.4 0c0.1-0.3 0.2-0.2 0.4 0zm-20.6 4.5c-0.1-0.1-0.2 0-0.2 0q0 0 0 0c0 0 0.1-0.1 0.2-0.1q0 0 0 0.1zm-4.1-8.4c0.1 0 0.1-0.1 0.2 0-0.1-0.1-0.1 0-0.2 0q0 0 0 0zm-16.3 12.4q0 0 0 0-0.1-0.1-0.1-0.1 0 0 0 0 0 0 0.1 0.1zm-9.6 22.7q-0.1 0.1-0.1 0.1c0 0 0 0-0.1 0 0.1 0 0.1-0.1 0.2-0.1zm3.4-15q0 0 0 0 0 0 0 0 0 0 0 0zm43.8-2.9q0 0 0 0.1 0-0.1 0-0.1 0 0 0 0zm0.3 1.8q0 0 0 0 0 0 0 0 0 0 0 0zm9.4 4.2q0 0 0 0 0 0 0 0 0 0 0 0zm5.8-3.4c0 0.1 0 0.1 0 0.1q0 0-0.1 0 0.1 0 0.1-0.1zm19.2-10.2q0 0 0 0 0 0 0 0zm-38.7-9.3q0 0 0 0 0 0-0.1 0 0 0 0 0 0.1 0 0.1 0zm-3.6 1.3c0 0 0.1 0.3 0.1 0.4-0.1-0.1 0-0.3-0.1-0.5q0 0.1 0 0.1zm-10.1 6.8q0 0 0 0 0 0 0 0zm-1.3-4.2c0.1-0.1 0.2-0.2 0.2-0.3 0 0.1-0.1 0.2-0.2 0.3zm-13.2 14.1q0 0 0 0c-0.1 0-0.1-0.1-0.1-0.2 0 0 0 0.1 0.1 0.1q0 0 0 0.1 0 0 0 0zm-16.4-19.8q0 0 0 0 0 0 0 0 0 0 0 0zm-2.9 6.8c-0.1 0-0.2 0-0.2 0q0 0 0-0.1c0.1 0.1 0.1 0.1 0.2 0.1zm-9.7-8.9q0 0 0 0 0 0 0 0 0 0 0 0zm-0.4-0.4q0 0 0 0 0 0 0 0zm-23.5 7.8q0 0 0 0 0.1 0 0.1 0 0 0-0.1 0zm-6.6-9.4c0 0 0.1 0 0.1-0.1q0 0 0 0.1c0 0-0.1 0-0.1 0zm-18.5-0.8q0 0 0 0 0 0 0 0zm-6.6 5.8c-0.1 0-0.1 0.1-0.1 0.2 0-0.2 0.1-0.4 0-0.6q0 0 0 0c0 0.2 0.1 0.3 0.1 0.4zm-7.5 0.1q0.2 0.3 0.5 0.4-0.4 0.1-0.5-0.4zm-17.8-0.3c0.1 0 0.3-0.1 0.5 0-0.2-0.1-0.4-0.1-0.5 0zm-23.1-1q-0.1 0-0.1 0c0 0-0.1-0.1 0-0.1 0.1 0 0 0 0.1 0.1zm-19.8-2.5q0 0 0-0.1 0.1 0.1 0.1 0.1 0 0-0.1 0zm0-3.2c0 0 0-0.1 0 0q0-0.1 0-0.1 0 0 0 0.1zm-24.1 1.8c0 0 0 0 0 0q0 0 0 0 0 0 0 0zm-23.3-0.9c-0.1 0-0.2-0.1-0.2-0.1q0.1 0 0.1 0c0 0 0.1 0.1 0.1 0.1zm-20.9 2.7q0 0 0 0 0 0 0-0.1 0 0.1 0 0 0 0.1 0 0.1zm-1.6 2.1q0 0-0.1 0.1c0-0.1 0.1-0.1 0.1-0.1q0 0 0 0zm8.1 34.2q0 0 0 0 0 0 0 0 0 0 0 0.1 0 0 0 0 0-0.1 0-0.1zm82.1-15.4c0.1 0.2 0.2 0.2 0.2 0.3-0.1 0-0.2-0.2-0.3-0.2 0.1 0 0.1 0 0.1-0.1zm5.1 0.2q0 0.1 0 0.1 0 0 0 0 0 0 0-0.1zm9.8 12.7q0 0.1 0 0.1 0 0 0 0 0 0 0-0.1zm2.2 3.7q-0.1 0-0.3-0.1 0.2 0.1 0.3 0.1zm2.9 0.6c0-0.1 0-0.1 0-0.2 0 0 0 0 0.1 0-0.1 0.1 0 0.2-0.1 0.2zm45.1 1q0 0.1 0 0.1 0-0.1 0-0.1 0 0 0 0zm0.7-0.7q0 0 0 0-0.2 0.1-0.3 0.3c0.1-0.1 0.3-0.1 0.3-0.3zm13.6-6.4c0 0.1 0 0.2 0 0.2 0.2 0.1 0.4 0 0.6 0.1 0 0.1 0 0.2-0.2 0.2-0.1-0.4-0.4-0.3-0.6-0.3q0.1-0.1 0.2-0.2zm2.1 0.7q0 0 0 0 0 0 0 0 0 0 0 0zm1.3 0.2q-0.1 0-0.2 0 0.1 0 0.2 0zm4.7-1.3c0.1 0.1 0 0.1 0 0.2-0.1 0-0.1-0.1-0.2-0.1q0.1 0 0.2-0.1zm11.1 3.5c0-0.1 0-0.1 0.1-0.1q-0.1 0-0.1 0.1zm2.7 4.3c0.6-0.1 1-0.5 1.1-1.2q0 0 0 0c-0.3 0.5-0.9 0.7-1.1 1.2zm8.1-18.2c0 0.1 0 0.1 0 0.1q-0.1 0-0.1 0.1c0-0.1 0.1-0.1 0.1-0.2zm31.1 14.4q0 0 0 0 0 0 0 0 0 0 0 0zm17.1-13.8c0-0.1 0.1-0.2 0-0.3q0 0 0 0c0 0.1 0 0.2 0 0.3zm27.1-25.7q0 0 0 0 0 0 0 0 0 0 0 0zm-0.5 10.9c0 0 0 0 0-0.1q0 0.1 0 0.1 0 0 0 0zm-2.1-7.8q0 0 0 0 0.2 0.1 0.5 0.2c-0.2 0-0.4 0-0.5 0 0 0 0-0.1 0-0.2q0 0 0 0zm-3.7 8.7q-0.1 0-0.1-0.1 0 0 0.1 0 0 0 0 0.1zm-35.9-4.4q0 0 0 0c-0.1-0.1 0-0.1 0-0.2q0 0 0 0c0 0.1-0.1 0.2 0 0.2zm-11.2 9.9c0-0.2-0.2-0.4-0.1-0.6 0.1 0.1 0.2 0.2 0.3 0.3q-0.1 0.1-0.2 0.3zm-23.9-6.3q0 0 0 0 0 0 0 0c0 0 0 0 0 0zm-0.7-0.3q0-0.1 0-0.1 0 0 0 0.1zm-16.4-10.3q0 0 0 0 0 0 0 0 0 0 0 0zm-32.3 19.1q0 0 0 0c0 0 0 0 0 0q0 0 0 0zm-0.5-4.3q0 0 0 0c0-0.1 0-0.1 0-0.1 0 0 0 0.1 0 0.1q0 0 0 0zm-39.7-12.7q0-0.1 0-0.1 0 0 0 0 0 0.1 0 0.1 0 0 0 0zm-6.7 5.6c0 0 0.2-0.1 0-0.2q0 0 0 0.1 0 0 0.1 0-0.1 0-0.1 0.1zm-11.7-5c0 0 0 0 0-0.1q0 0.1 0 0.1c0 0 0 0 0 0zm-17.7 0q0 0 0 0 0 0 0 0 0 0 0.1-0.1-0.1 0.1 0 0.2-0.1 0-0.1-0.1zm-0.7-3.4c0.1 0 0-0.1 0.1-0.2 0.1 0 0.1 0.1 0.1 0.2q-0.1 0-0.2 0zm-2.5-1.5q0 0 0 0.1 0 0 0-0.1 0 0 0 0zm-22.9 3.9q0 0 0 0 0 0 0 0 0 0 0 0zm-0.6 0.5q0 0.5 0 1c0 0.1 0 0.2-0.1 0.3 0.3-0.6 0.3-0.9 0-1.3q0.1 0 0.1 0 0 0 0 0zm-7.8 4.8q0 0 0 0 0 0 0 0c0-0.1 0-0.1 0-0.1 0 0 0.1 0 0.1 0q0 0-0.1 0.1zm-11.9-7.1h-0.1c0 0.1-0.1 0.1-0.2 0.1 0-0.1-0.1-0.1-0.2-0.2 0.2 0 0.3 0.1 0.4 0.1q0.1 0 0.1 0zm-34.2 40.6q0 0 0 0 0 0.1 0 0.1c0 0 0 0 0-0.1zm4.4-0.5q0.1 0 0.1 0.1 0-0.1-0.1-0.1 0 0 0 0zm19.1 4.1c0.3 0.2 0.2 0.5 0.1 0.8q0 0 0 0 0 0.1 0 0.2c0.1-0.4 0-0.7-0.1-1q0 0 0 0zm17.4-0.8c-0.1 0-0.1 0-0.1 0.1q0-0.1 0.1-0.1zm12 2.5q0 0 0 0c0 0 0 0.1 0 0q0 0 0 0 0 0 0 0 0 0 0 0zm16.1-1.4q0 0 0 0 0 0 0 0c0 0.1 0.1 0.1 0.2 0.2q-0.1-0.1-0.2-0.1c0 0 0-0.1 0-0.1zm10.3-0.7c0.1 0.1 0.3 0.1 0.4 0.2q-0.1 0-0.1 0c-0.1-0.1-0.2-0.1-0.3-0.2zm5-1.7c0 0.1 0.1 0.1 0.2 0.1-0.1 0-0.2 0.1-0.2-0.1zm19.3-10.2c0 0.1 0.1 0.2 0 0.3 0-0.1 0-0.2-0.1-0.2 0 0 0.1-0.1 0.1-0.1zm74.6 9q0 0 0 0-0.1 0-0.2 0c0.1 0.1 0.1 0 0.2 0zm2.1 1.6c-0.1-0.3-0.3-0.4-0.4-0.6 0.2 0.2 0.4 0.4 0.6 0.5-0.1 0.1-0.2 0-0.2 0.1zm1.7-0.8c0 0.1 0 0.2 0 0.3-0.1 0-0.3-0.1-0.4-0.1 0.1-0.1 0.3 0 0.4-0.2zm17.9-2.8q-0.1 0-0.1 0 0 0 0 0 0 0 0.1 0zm18.9 6q0 0 0 0 0 0 0 0 0 0 0 0 0 0 0 0 0 0 0 0zm3.4-4c0 0 0 0 0 0.1q0 0 0 0c0-0.1 0-0.1 0-0.1zm7.6 1.5q0 0 0 0 0 0 0 0zm5.8 1.2q0 0 0 0 0 0 0 0 0 0 0 0zm49.6-7.2q0 0.1 0 0.1c0 0 0 0-0.1 0q0.1-0.1 0.1-0.1zm8.7-6.4c-0.1 0.1 0 0.2-0.1 0.3q0-0.2 0.1-0.3 0 0 0 0zm7-14.3c-0.1 0-0.3 0-0.3-0.2 0 0 0-0.1 0-0.1q0.2 0.1 0.4 0.3c0 0 0 0-0.1 0zm-3.5-17.8q0 0 0-0.1 0 0.1 0 0.1 0 0 0 0zm-9.7 4q-0.1 0-0.1-0.1 0.1 0.1 0.1 0.1c0 0 0 0.1 0 0zm-2.1-1.9c0-0.1 0.1-0.1 0.1-0.2q0.1 0.2 0.3 0.4c-0.2-0.1-0.3-0.2-0.4-0.2zm-2.1-0.7c-0.2-0.3-0.3-0.1-0.5 0q0.2-0.2 0.5 0 0 0 0 0zm-8.9 0.4c0-0.1-0.1-0.1-0.1-0.1 0.1 0 0.1 0 0.2 0q-0.1 0-0.1 0.1zm-3.7 6.7q0 0 0-0.1 0 0.1 0 0.1 0 0 0 0zm-6.3-6.7c-0.1 0.1-0.2 0-0.2 0.1-0.1-0.1 0-0.2 0-0.3 0 0.1 0.1 0.2 0.2 0.2zm-8.1 5.9c0-0.1 0-0.2 0-0.3 0.1 0.2 0.2 0.3 0.2 0.4 0 0-0.1-0.1-0.2-0.1zm-24.7 15.3q0.1 0 0.1-0.1c0 0.1-0.1 0.1-0.1 0.1zm-14.3-17.7q0 0 0 0 0 0 0 0 0 0 0 0zm-9.6 2.8q0 0 0 0 0 0 0 0 0 0 0 0 0 0 0 0zm-18.6-9.6q0 0.1 0.1 0.2c-0.1 0-0.1-0.1-0.2-0.1 0 0 0 0 0.1-0.1zm-4 4.8q-0.1 0-0.1 0 0 0 0.1 0 0 0 0 0zm-10.3 1.7c-0.1-0.1-0.3-0.2-0.5-0.2 0.2-0.1 0.4 0 0.5 0.1q0 0 0 0 0 0.1 0 0.1zm-11.3 8.2q0 0 0 0c-0.3 0.3-0.4 0.6 0 0.9-0.5-0.3 0-0.6 0-0.9zm-13.1-12.1q-0.1 0.1-0.1 0.1 0.1 0 0.1-0.1zm-72.9-1.4q-0.1 0.2-0.2 0.3c0.1 0 0.1-0.2 0.2-0.3q0 0 0 0zm-29.4 8.8c-0.1 0.1-0.2 0.1-0.3 0.2-0.1-0.1-0.1-0.1-0.1-0.2 0.1 0 0.3 0 0.4 0zm-20.6-2.9q0 0 0 0 0 0 0 0zm-25.1 5.4c0 0.1 0.1 0.1 0 0.2q0 0-0.1 0c0-0.1 0.1-0.1 0.1-0.2zm-7.4 29.6q0 0 0 0 0 0 0 0zm5.7 3.3q0 0 0 0 0 0 0 0 0 0 0 0zm22.6 3.4c0.1 0.2 0.2 0.4 0.3 0.6q0 0 0 0c-0.1-0.2-0.1-0.4-0.3-0.6q0 0 0 0zm3.9-2.4q0 0 0 0 0-0.1 0-0.1 0 0 0 0v0.1q0 0 0.1 0-0.1 0-0.1 0zm20.3 2q0 0 0 0.1 0 0 0 0 0 0 0 0 0-0.1 0-0.1zm29.8 0.1c0 0.3 0.2 0.4 0.2 0.5-0.2 0-0.3 0-0.5 0.1 0.1-0.2 0.2-0.4 0.3-0.6zm16.9-2.5q0 0 0 0 0 0 0 0 0 0 0 0 0 0 0 0zm27.8 1.4c0 0.2 0.2 0.3 0.3 0.5-0.2 0-0.3 0.1-0.5 0.1 0.1-0.2 0.2-0.4 0.2-0.6zm23.2 1.4q0 0 0 0 0 0 0 0 0 0 0 0zm8.7-2c-0.1 0 0 0.1-0.1 0.1 0-0.1 0 0 0-0.1q0 0 0.1 0zm5.4 0.3q0 0 0 0 0 0 0 0zm2.6 0.3c0.1 0 0.1 0.1 0.2 0.1-0.1 0-0.1 0-0.2 0q0 0 0-0.1zm51.7 1.1c0 0-0.1 0-0.1 0 0 0 0 0 0 0 0 0 0.1 0 0.1 0zm4.4 2.1q0 0 0 0 0 0 0 0 0 0 0 0zm22.4-4.7q0 0 0 0 0 0 0 0zm12.3-1.8c0.1 0 0.2 0.2 0.3 0.2-0.2 0-0.4 0.2-0.6 0.2 0.1-0.1 0.3-0.1 0.3-0.4zm14.6-6.4q0 0 0 0 0 0 0 0 0 0 0 0zm-0.2 2.5q0 0 0 0c0.1 0 0.1 0.1 0.1 0.1q0 0 0 0 0.1 0 0.1 0.1-0.1 0-0.1 0c0 0 0-0.1-0.1-0.2zm6 0.5q0 0 0 0 0 0 0 0 0 0 0 0 0 0 0 0zm27.4-25.1q0 0 0 0 0 0 0 0.1 0-0.1 0-0.1zm2.2-1.5c0 0 0.1 0 0.1 0.1q-0.1-0.1-0.2-0.1 0.1 0 0.1 0zm-15.8-14q0 0 0 0 0 0 0 0 0 0 0 0zm-21.4 2.9c0.1-0.1 0.1-0.1 0.1-0.1q0.1 0 0.1 0-0.1 0-0.2 0.1zm-2.3 2.1q0 0 0 0-0.1 0-0.1 0c0-0.1 0 0 0.1 0zm-13.1 3.2q0 0 0 0.1c0-0.3-0.1-0.3-0.1-0.5 0 0.2 0.1 0.3 0.1 0.4zm-18.3-5q0 0 0 0 0 0 0 0 0 0 0 0 0 0 0 0 0-0.2 0-0.3 0 0 0 0 0 0.1 0 0.3zm-8.9-3.3c0.1 0 0.1 0.1 0.1 0.1-0.1 0.1-0.1 0.1-0.2 0.1q0-0.1 0.1-0.2zm-1.9 0.2c0.1-0.1 0.2-0.3 0.3-0.2 0.2 0 0.1 0.1 0.2 0.2-0.2 0-0.4 0-0.5 0zm-19.1-1.6q0 0 0 0 0-0.1 0-0.1 0 0 0 0zm-3.4 0.6q0 0 0 0c-0.4 0.2-0.8-0.1-1.2-0.1q0 0-0.1-0.1c0.4 0.4 0.9 0.5 1.3 0.2zm-7.3 0.2q0 0 0 0 0 0 0 0.1 0 0 0-0.1zm-21.2 2.4c0-0.1 0-0.1 0-0.1q0 0 0.1 0 0 0-0.1 0.1zm-9.7 14.9q0 0 0 0.1 0 0 0 0 0-0.1 0-0.1zm-7.1-14q0 0 0 0 0 0 0 0 0 0 0 0zm-31.2 3.8c0-0.1-0.1-0.1-0.1-0.1q0 0 0.1 0 0 0.1 0 0.1zm-1-1q0.2 0.1 0.3 0.3 0 0 0 0-0.1-0.2-0.3-0.3 0 0 0 0 0-0.1 0-0.1 0 0 0 0.1zm-4.5-0.4q0 0 0 0 0 0 0 0 0 0 0 0zm-19.3-1.8q0 0 0 0 0 0 0 0zm-22.3-3.6q0 0.1 0 0.1c-0.2-0.5-0.6-0.4-1-0.5 0.1 0 0.1 0 0.2 0 0.2 0.2 0.5 0.4 0.8 0.4zm-5.8 4q0 0 0 0 0 0 0 0 0 0 0 0zm-21.6 0.7q0 0 0.1 0 0 0-0.1 0zm-2.8-1.7c-0.1 0.1-0.3 0.2-0.4 0.1 0.1 0 0.2 0 0.4-0.1zm-29.1-0.8c0 0-0.1 0 0 0q0 0 0 0 0 0 0 0zm-23.8 7.9c0.1-0.1 0.1-0.2 0.2-0.3-0.1 0.2 0 0.3 0 0.5q0-0.1-0.2-0.2zm3.2 33.7q0 0.1 0 0.1-0.2 0-0.3 0 0 0 0 0c0.1 0 0.2 0 0.3-0.1zm4.5 4.7q0 0 0 0 0 0 0 0zm6.4 1q0 0 0.1 0c-0.1 0.1-0.1 0.1-0.1 0.1 0 0 0 0 0-0.1zm47.8 3.1q0 0 0 0 0 0-0.1 0 0.1 0 0.1 0zm9.2 0.8q0 0 0 0-0.2 0-0.4 0 0 0 0 0c0.1 0.1 0.2 0.1 0.4 0zm121.6-5.1q0 0 0 0c0 0 0 0 0 0q0 0 0 0zm64.4-3.4c0 0.1 0 0.1 0 0.1q0 0 0 0 0 0 0-0.1zm16.8-5.5q0 0-0.1-0.1 0.1 0 0.1 0c0 0-0.1 0.1 0 0.1zm11.5 9c-0.1 0 0 0-0.1 0.1-0.1 0-0.1-0.1-0.2 0q0.1-0.1 0.3-0.1zm3-5.9c0 0.1 0 0.1 0 0.1-0.1 0.1-0.1 0.2-0.1 0.3 0-0.1 0.1-0.2 0.1-0.4zm12.7 0.3q0.2 0 0.4 0.1c-0.2 0-0.3 0-0.4-0.1zm13-27.5q0 0 0-0.1 0.1 0.1 0.2 0.1 0 0 0 0-0.1 0-0.2 0zm13.1-5.7c0 0 0.1 0 0.1 0q-0.1 0-0.1 0zm-4 6.7q0 0 0 0-0.1 0-0.1 0 0 0 0.1 0zm-0.6 0.4q0 0.1 0 0.1 0 0-0.1-0.1 0.1 0 0.1 0zm1.5-3.9q0 0 0.1 0-0.1 0-0.1 0h0.1q-0.1 0-0.1 0 0 0 0 0 0 0 0 0zm0.1 3.2q0 0 0 0c0 0 0 0 0.1 0q0 0.1 0.1 0.1c-0.1 0-0.1-0.1-0.2-0.1zm1.5-0.4q0 0 0 0c-0.3-0.2-0.6 0-0.9 0.1 0.3-0.1 0.7 0 0.9-0.1zm10.3-1q0 0 0 0c0 0 0 0 0 0.1 0-0.1 0-0.1 0-0.1zm0.6 0.6q0 0-0.1 0.1c0.1-0.1 0.1-0.1 0.1-0.1zm-1.5-1.3q-0.1-0.1-0.3-0.1c0.1 0 0.2 0 0.3-0.1q0 0.1 0 0.2zm-11.9-1.1q0 0 0 0c-0.1-0.3-0.1-0.5 0-0.7q0 0 0 0c-0.2 0.2-0.4 0.4 0 0.7zm8.9-2.7q0-0.1 0-0.1 0 0 0.1 0c0 0-0.1 0-0.1 0.1zm-58.9-12c0 0 0-0.1 0-0.1q0 0 0.1 0c-0.1 0 0 0.1-0.1 0.1zm-2.9 1.9c0.1 0 0.2 0.1 0.2 0.2q-0.1-0.2-0.2-0.2zm-2.7 1q0 0-0.1-0.1 0.1 0 0.2-0.1 0 0.1-0.1 0.2zm-6.9-2.9q0 0 0-0.1 0 0.1-0.1 0.1 0 0 0.1 0zm-1 1.6q0 0 0 0 0 0 0 0 0 0 0 0zm-6.3 4.8q0 0 0 0 0 0 0 0 0 0 0 0zm-2.2 0q0-0.1 0-0.1c0 0 0 0 0.1 0q-0.1 0-0.1 0.1zm-11 9.1q0 0 0 0 0 0 0 0 0 0 0 0zm-12.9-13.9c0 0-0.1 0-0.2 0 0.1 0 0.2-0.1 0.3-0.2 0 0.1-0.1 0.1-0.1 0.2zm-11.4 7.6c0.1-0.2 0.3-0.3 0.2-0.6 0.3 0.4 0.4 0.4 0.5 0.6q-0.4-0.1-0.7 0zm-1.5 1.6q0.1-0.1 0.2 0c0-0.1-0.1 0-0.2 0zm-25.9-1.1q0 0 0 0 0-0.1 0.1-0.1c0 0-0.1 0-0.1 0.1zm-10.9-8.3c0.1-0.1 0.1-0.2 0.3-0.1 0.1 0 0.1 0.1 0.1 0.1-0.1 0-0.2 0-0.4 0zm-14.3 3.1q0 0 0 0 0 0 0.1 0-0.1 0-0.1 0zm-20.6 4.9q0 0 0 0 0 0 0 0 0 0 0 0zm-6.7-3.5q0 0 0 0c-0.1 0.3-0.1 0.8-0.2 1 0.1-0.3 0.2-0.6 0.2-1zm-6.2 1.7q0 0 0 0c0.1 0 0.1 0 0.1 0q0 0-0.1 0zm-2.9-0.4q0 0.1 0 0.1 0 0 0 0 0 0 0 0c0 0 0 0-0.1-0.1q0.1 0 0.1 0zm-3.7-0.5q0 0 0 0 0 0 0.1 0 0 0-0.1 0zm-7.2 0.1q0 0 0 0c0 0 0.1-0.1 0.1-0.1 0 0.1-0.1 0.1-0.1 0.1zm0 0q0 0.1-0.1 0.2 0 0 0 0 0.1-0.1 0.1-0.2 0 0 0 0zm-2-2.3q0 0 0 0 0 0 0.1 0c-0.1 0-0.1 0-0.1 0zm-0.2-0.1c0-0.1-0.1-0.2-0.1-0.3q0 0 0 0 0.1 0.2 0.1 0.3zm-0.1 0.4c0 0 0 0.1 0 0.1 0 0 0-0.1 0 0q0-0.1 0-0.1zm-4.2 0.3q0-0.1 0-0.2 0 0.1 0 0.2 0 0 0 0zm-6.7 1.3q0 0 0-0.1 0 0.1 0 0.2 0 0-0.1 0 0.1 0 0.1-0.1zm-12.5-3.8q0.1-0.1 0.2-0.1-0.1 0-0.2 0.1zm-13.1 1.9c0 0 0 0 0-0.1q0 0.1 0.1 0.1 0 0-0.1 0zm-5.1-0.1q0 0 0 0 0 0 0 0 0 0 0 0zm-19.6-1.3q0 0 0 0 0 0 0 0 0-0.1 0-0.1 0 0 0 0.1 0 0 0 0zm0-0.4q0 0 0 0 0 0 0 0 0 0 0 0zm-38.6 3.3q0.1-0.2 0-0.5 0 0 0 0 0 0.3 0 0.5zm-2.3 4.1q-0.1 0-0.2-0.1 0.1 0 0.1 0c0 0.1 0.1 0 0.1 0.1zm-12.1 23c0 0.1 0 0.1 0 0.2q-0.1-0.1-0.1-0.2 0.1 0 0.1 0zm3.4 11.3q0 0 0 0 0-0.1 0-0.1 0 0 0 0.1zm29.6 7.9c-0.1 0.1-0.1 0.2-0.1 0.3q0 0 0 0c0.1-0.1 0.1-0.2 0.1-0.3zm14.3 4.2q0 0 0 0c0 0 0-0.1-0.1-0.1q0.1 0 0.1 0.1zm0.5 0.2q0 0 0 0 0 0 0 0 0 0 0 0zm9.3-2.3c0 0.1 0.1 0.1 0.1 0.2-0.1 0-0.1-0.1-0.1-0.2q0 0 0 0zm15.5 3.6q0 0.1 0 0.1 0 0 0 0 0 0 0 0 0 0 0-0.1zm22.3-5.6c0 0.1 0 0.1 0.1 0.1q-0.1 0-0.2 0c0 0 0.1 0 0.1-0.1zm57.8 0.4c-0.2-0.3-0.4-0.5-0.8-0.3q0 0 0 0c0.3 0 0.6 0.1 0.8 0.3zm7.6-1.3q0 0 0 0c0.1 0 0.1 0 0.1 0q0 0-0.1 0zm46.1-1q0 0 0 0.1c-0.1-0.1-0.2 0-0.2-0.1 0 0 0.1 0.1 0.2 0zm56.7-0.8zm9.2-1.2c0 0 0 0 0 0q0 0 0 0 0 0 0 0zm9.2 2.9q-0.1 0-0.1 0c0 0 0 0 0-0.1q0 0.1 0 0.1c0 0 0 0 0.1 0q-0.1 0-0.1 0 0.1 0 0.1 0 0 0 0 0zm13.3-1.4c0 0.1 0 0.1 0 0.2-0.1-0.1-0.1-0.1-0.2-0.1q0.1 0 0.2-0.1zm19.5-31.3c0 0 0 0 0.1 0 0.1-0.1 0.3 0.1 0.4 0.2q0 0 0 0-0.2-0.1-0.5-0.2zm15-0.2q-0.1-0.1-0.1-0.3 0 0 0 0 0 0 0.1 0c0 0.1 0 0.2 0 0.3zm3.4-1q0 0 0 0c-0.2 0.2-0.5 0.5-0.6 0.8 0 0-0.1 0-0.1 0 0.5 0 0.6-0.4 0.7-0.8zm6.1 1.8q0 0 0 0 0 0 0 0 0 0 0 0zm-21.4-13.6q0 0 0 0 0 0.1 0.1 0.1-0.1 0-0.1-0.1zm-9.8-5.5q0 0 0 0 0 0 0 0 0 0 0 0zm0 0q0 0 0 0 0 0 0 0zm-28.2-0.4q0 0 0 0.1 0-0.1 0-0.1zm-1.4 0.5q0-0.1 0-0.1c0 0 0.1 0 0.1 0.1 0 0-0.1 0-0.1 0zm-2.7-0.6c0 0.1 0 0.1 0 0.2q0 0 0 0c0-0.1 0-0.1 0-0.2zm-5.1 4.4q0 0 0 0 0 0 0 0 0 0 0 0zm-3.9-0.8c-0.2 0.1-0.4 0.3-0.6 0.4-0.1-0.1-0.1-0.2-0.1-0.4 0.2 0 0.4 0 0.7 0zm-32.8-2.4q0-0.8 0-1.6-0.6 0.8 0 1.6zm-37.1-2.5c-0.1 0-0.1 0-0.1 0 0.1 0 0-0.1 0.1-0.1q0 0.1 0 0.1zm-11.9 7.8q0 0 0 0 0 0 0 0zm-36.8-4.9c-0.1 0.1 0 0.2 0 0.3q0 0-0.1 0 0.1-0.1 0.1-0.3zm-7.9 1q0 0 0.1 0 0 0 0 0c-0.1 0-0.1 0-0.1 0zm-4.1 3.5c0.1 0 0-0.1 0.1-0.1q0 0.1 0 0.1 0 0-0.1 0zm-0.2-2.4c-0.3-0.1-0.5 0-0.7 0.1q0.3-0.1 0.7-0.1 0 0 0 0zm-1.2 0.4q-0.1 0-0.3 0c0.1 0 0.2 0.1 0.3 0zm-8.5-1.7q0 0 0-0.1 0 0 0 0 0 0 0.1 0c-0.1 0-0.1 0.1-0.1 0.1zm-1.8 0.3q0 0.1 0 0.1 0-0.1 0-0.1 0 0 0 0zm-9.5 2.1c0-0.1 0-0.1 0-0.1q0 0 0.1 0 0 0.1-0.1 0.1zm-115.3 4.6q0 0 0 0c-0.1 0-0.1 0-0.1 0 0 0 0 0 0.1 0zm-2.6 34q0 0 0 0 0 0 0 0 0 0 0 0zm60 12.2q0 0 0 0 0 0 0 0 0 0 0 0zm6.2-0.1q0.1 0 0.2-0.1-0.1 0.1-0.2 0.1 0 0 0 0zm5.3 0.1c0 0 0 0 0.1 0q0 0 0 0-0.1 0-0.1 0zm13.7 2.5q0 0 0 0 0 0 0 0zm9.2-3.2q0 0.1 0 0.1 0 0 0 0 0 0 0-0.1zm12.7-2.5c0 0 0 0 0.1 0q-0.1 0-0.1 0c0 0 0 0 0 0zm22.2 3.2c-0.1 0-0.1 0-0.1 0 0 0 0.1-0.1 0.1-0.1q0 0.1 0 0.1zm25-2.4q0 0 0 0 0 0 0 0 0 0 0 0zm2 2.5q0 0.1 0 0.1 0 0.3-0.1 0.7c0.1-0.2 0.2-0.4 0.1-0.8zm21.6 0.5c-0.1 0.2-0.3 0.3-0.4 0.4 0.1-0.2 0.2-0.3 0.4-0.4zm31.3-1.5c0.3 0.3 0.5 0.1 0.8 0.3-0.3 0-0.8 0-0.9 0.1 0-0.2 0.1-0.2 0.1-0.4zm26.1 0.6q0 0 0 0 0 0 0-0.1 0 0 0 0 0 0 0 0.1zm30-3.3c0 0 0.1 0 0.1-0.1 0 0 0 0.1 0 0.1 0 0 0 0-0.1 0zm1.9-0.7c0 0 0 0.1 0 0.1 0 0 0 0 0 0 0-0.1 0-0.1 0-0.1zm13.6-1.5q0 0.1 0 0.1 0-0.1 0-0.1 0 0 0 0zm4.6 2.4c0.1 0 0.2-0.1 0.2 0 0 0-0.1 0-0.1 0.1 0-0.1-0.1-0.1-0.1-0.1zm17.2-1.5q0 0 0 0 0 0 0 0c0.1 0.1 0.2 0 0.3 0.1q0 0 0 0-0.2 0-0.3-0.1 0 0 0 0zm-0.2-1.4c0.1 0 0.1 0 0.1-0.1q0 0.1 0 0.1 0 0-0.1 0zm5.1-7.5c-0.1-0.1-0.1-0.1-0.1-0.2 0 0 0.1-0.1 0.2-0.1q-0.1 0.1-0.1 0.3zm3.7-2c0-0.1 0.1-0.1 0.1-0.1q-0.1 0-0.1 0.1zm5.6-3.3q0 0 0 0zm-2.3-5.2q0-0.1 0-0.1 0 0 0 0.1 0 0 0 0zm10.7-9.2q0 0 0 0 0 0 0 0 0 0 0 0zm7.4-1.1q0 0 0 0.1c0-0.1-0.1 0-0.1-0.1q0.1 0 0.1 0zm1.9-1.7q0 0 0 0 0 0 0 0 0 0 0 0zm-4.3-9.7q-0.1-0.2-0.2-0.3c0.1-0.1 0.3-0.1 0.5-0.1 0 0.3-0.2 0.3-0.3 0.4zm-2.8-1q0 0 0 0h0.1q0 0 0 0 0 0-0.1 0zm-10.7-6c-0.1 0-0.2 0-0.2 0-0.1 0 0 0 0 0 0.1 0 0.1 0 0.2 0zm-12.4-2.9q0.1 0.4 0.2 0.9 0 0 0 0 0 0 0 0c0.2-0.4 0.1-0.7-0.2-0.9q0 0 0 0zm-1.9-2.1q0 0-0.1 0c0-0.1-0.1-0.1-0.1-0.1q0.1 0 0.2 0.1zm-29.7 1.7q0.1-0.1 0.2-0.1c0 0 0 0 0 0.1-0.1 0-0.1 0-0.2 0zm-2.6-1.5q-0.1 0-0.1 0 0-0.1 0.1-0.1 0 0 0 0.1zm-4.7 3.7c0 0 0-0.1 0-0.1q0 0 0-0.1c0.1 0.1 0 0.1 0 0.2zm-11.4-2.3q0 0-0.1 0 0.1-0.1 0.1-0.1 0 0 0 0.1zm-2-0.7c-0.1 0-0.1 0-0.2 0q-0.1-0.2-0.1-0.4c0.1 0.1 0.2 0.3 0.3 0.4zm-1.9-2.6c0 0.2 0.1 0.3 0.2 0.4-0.1-0.1-0.2-0.2-0.2-0.4zm-14 2.6q0 0 0 0 0 0 0 0 0 0 0 0zm-5.4 1.1c0.1 0.1 0.2 0.2 0.4 0.2v-0.1q0 0 0 0v0.1q0 0.1-0.1 0.1c-0.1-0.2-0.2-0.2-0.4-0.3q0 0 0.1 0zm-8.6 1.3q0 0 0 0 0 0 0 0 0 0 0 0zm-10.3-1.8q0 0 0 0 0 0 0 0 0 0-0.1 0 0 0 0 0 0 0 0.1 0zm-15.2 3.2q0 0 0 0 0 0 0 0.1 0-0.1 0-0.1zm-18.6-3.9q0 0 0 0 0 0 0 0zm0 1c0 0.1 0 0.2 0 0.2q0 0 0 0c0-0.1 0-0.1 0-0.2zm-4.1 7.2q0 0 0 0 0 0 0 0 0 0 0 0zm-5.6-4.4q0 0 0.1-0.1c0 0.1 0 0.1 0 0.1-0.1 0-0.1 0.1-0.1 0zm-28.8 0.6q0.1-0.2 0.2-0.2-0.1 0-0.2 0.2-0.1 0.1-0.3 0.2 0 0 0 0c0.1-0.1 0.2-0.1 0.3-0.2zm-12.8-1.7c-0.1 0.1-0.1 0.3 0 0.4q0-0.2 0-0.4 0 0 0 0zm-4.3 2.7q0 0 0.1 0.1c0-0.1 0-0.1-0.1-0.1q0 0 0 0zm-12.1-1.6c0 0 0 0.1-0.1 0.1q0.1-0.1 0.1-0.1 0 0 0 0zm-8.7 0q0 0 0 0 0 0 0 0 0 0 0 0zm-7.3-1q0 0.1 0.1 0.2-0.1-0.1-0.1-0.2zm-58.4 0.1c-0.1 0 0 0.1-0.1 0.1q0 0 0-0.1 0 0 0.1 0zm-18.8 0.6q0 0 0 0 0 0 0 0zm-2.9 0.4c0.2 0.4 1 0.5 0.7 1q0 0 0 0.1c0-0.5 0-1-0.7-1.1q0 0 0 0zm-12.8 7q0 0 0 0 0.1-0.7 0.5-1c-0.2 0.3-0.6 0.5-0.5 1zm-1.7 43.7q0 0 0 0c0 0 0 0.1-0.1 0.1 0.1 0 0.1-0.1 0.1-0.1zm2.2 0.4q0.1 0.1 0.2 0.2c-0.1-0.1-0.3 0-0.4 0q0.1-0.1 0.2-0.2zm17.5 3.5q0 0 0 0.1c0-0.1-0.1-0.1-0.2-0.2 0.1 0.1 0.1 0 0.2 0.1zm25.5 0.4q0 0 0 0 0 0 0 0zm2.8 0.4q0 0 0 0 0 0 0 0 0 0 0 0zm2.5 1c0 0.1 0.1 0.1 0.1 0.2-0.1 0-0.1-0.1-0.2-0.1 0 0 0.1 0 0.1-0.1zm32.7-3.4q-0.1 0-0.1 0 0 0 0 0 0 0 0.1 0zm14.5 2.8q0 0 0 0c0 0 0 0 0 0.1q0-0.1 0-0.1zm0.6 1.1q0 0 0 0 0 0 0 0 0 0 0 0zm29.2-3.3c0 0 0 0.1 0 0.1q0.1 0 0.1 0.1c0-0.1-0.1-0.1-0.1-0.2q0 0 0 0zm12.6 1.5c0 0 0.1 0 0.1 0.1 0 0 0 0.1 0 0.2-0.1 0-0.1 0-0.1 0.1 0-0.2 0.1-0.3 0-0.4zm1.1-1.3c0 0 0-0.1 0-0.1q0 0 0 0 0 0.1 0 0.1zm13.4 0.6q0.1 0 0.1-0.1 0 0.1 0 0.1 0 0-0.1 0zm43.2-0.7q0 0 0 0-0.1 0-0.1 0c0 0 0 0 0.1 0zm17.7-0.7q0.1 0 0.1 0 0 0 0 0.1 0-0.1-0.1-0.1zm20.4 2.4q0 0.1 0 0.1 0-0.1 0-0.1 0 0 0 0zm0.3-0.3q0 0 0 0 0 0 0 0 0 0 0 0zm13.9-1.3q0 0 0 0 0 0 0 0zm10.6-1.2q0 0 0 0c-0.2-0.1-0.4-0.1-0.6-0.1 0.2-0.1 0.4 0.1 0.6 0.1zm5.4 1.9q0 0 0 0 0 0 0 0 0 0-0.1 0 0.1 0 0.1 0zm12-3.5c0-0.1 0 0-0.1 0q0.1 0 0.1 0zm38.9-16.8q0 0 0.1 0-0.1 0-0.1 0zm1.3-10.8q0 0 0 0 0 0 0 0 0 0 0 0zm2.3-1.9q0.1-0.1 0.2-0.1-0.1 0-0.2 0.1zm8.7-0.7q0.1 0 0.2 0c-0.1 0-0.1 0.1-0.2 0zm6.3-13.7c-0.1 0-0.1 0-0.2 0 0.2 0 0.3-0.2 0.4-0.2q0 0 0.1 0-0.2 0.1-0.3 0.2zm-14-5q0 0 0 0 0 0 0 0 0 0 0 0zm-44.5-7.4q0-0.1 0-0.2c0 0.1 0.1 0.1 0.1 0.1 0 0.1 0 0-0.1 0.1zm-5.4 1.1q-0.1-0.1-0.2-0.1c0.1 0 0.1 0 0.2 0q0 0 0 0.1zm-67.9-1c0 0 0 0 0 0 0 0 0.1 0.1 0.2 0-0.1 0.1-0.1 0-0.2 0zm-0.9-1.7c-0.2 0.3-0.4 0.7-0.8 0.9 0.6 0.1 0.8-0.3 0.8-0.9zm-107 5.2q0 0.1-0.1 0.2c0.1-0.1 0-0.2 0-0.3q0 0 0.1 0c0 0 0 0.1 0 0.1zm-6.6-0.8q0.1 0 0.3 0c-0.1 0-0.2 0-0.3 0zm-16.8 0.7q0 0 0 0 0 0 0 0 0 0 0 0zm-2.1-0.4q0 0 0 0 0 0 0 0zm-39.7-0.9q0 0 0-0.1 0 0 0 0 0 0.1 0 0.1zm-1.3 0.2q-0.1 0-0.1 0c-0.2-0.1 0-0.4 0-0.6 0 0 0-0.1 0-0.1q0 0 0 0 0 0 0 0.1c-0.1 0.4 0 0.4 0.1 0.6zm-3.3 1.2q0 0 0 0 0-0.1 0-0.1 0 0 0 0.1zm-24.8 8.7c0.1-0.1 0.1-0.3 0-0.5q0 0.3 0 0.5zm-0.3 28.6c-0.1 0.2 0 0.3 0 0.5-0.1-0.1-0.1-0.2-0.2-0.3 0.1 0 0.1-0.1 0.2-0.2zm-1 14.1q0 0 0 0c0-0.5-0.3-0.9-0.5-1.3 0-0.1 0-0.1 0-0.2 0.1 0.5 0.1 1.1 0.5 1.5zm-1.4 0.5q0 0 0.1 0 0 0-0.1 0 0 0 0 0zm-1.1 0q-0.1 0-0.1-0.1 0.1 0.1 0.2 0.1c-0.1 0-0.1 0-0.1 0zm7.9 4c0.2 0 0.4 0.1 0.3 0.3 0 0 0 0 0 0.1-0.1-0.2-0.1-0.3-0.3-0.4zm12.2 2.3c0.1 0.1 0.1 0.2 0.1 0.3q0 0 0 0.1c0-0.2 0-0.2-0.1-0.4zm2.1-1.4q0 0 0 0.1 0-0.1-0.1-0.1 0.1 0 0.1 0zm0 0.6q0 0 0 0c-0.1 0-0.1 0.1-0.1 0.1 0 0 0-0.1 0.1-0.1zm0.3-0.3q0 0.1 0.1 0.1c-0.1 0-0.2 0-0.2 0.1q0-0.1 0.1-0.2zm78 2.2q0 0.2 0 0.3 0 0 0 0 0 0 0 0-0.1 0-0.1 0 0.1-0.1 0-0.3 0.1 0 0.1 0zm8-4.9q0 0 0 0 0 0 0 0.1c0 0 0-0.1 0-0.1zm10.3-4q0 0 0.1 0-0.1 0-0.1 0.1 0-0.1 0-0.1zm18.4 6.4q0 0 0 0 0 0 0 0 0 0 0 0zm20.1 0.9c0 0 0-0.1 0.1-0.1 0.1 0 0.1-0.1 0.2-0.1q-0.1 0.1-0.3 0.2zm62 1.1c0.1-0.1 0.3 0 0.4 0.2-0.1-0.2-0.3-0.2-0.4-0.2 0 0 0 0 0 0zm2-2.4q0 0 0 0 0 0 0 0 0 0 0 0 0 0 0 0zm14.8 0.9q0 0 0 0 0 0 0 0zm0.6-0.5c0 0 0 0 0 0q0.1 0 0.1 0c0 0-0.1 0-0.1 0zm7.9-1.2q0 0 0 0 0 0 0 0.1 0-0.1 0-0.1zm3.7 2.2q0.1 0 0.1 0.1-0.1-0.1-0.1-0.1 0 0 0 0 0 0 0 0zm4-1q-0.4 0-0.8 0c0.3 0.2 0.5 0.1 0.8 0zm14.6 0.8c0 0 0.1 0.1 0.1 0.2q0-0.1-0.1-0.2zm49.1-15.3q0 0 0 0 0 0 0 0 0 0 0 0 0 0 0 0zm1.9 1.1q0 0 0 0.1 0-0.1 0-0.1 0 0 0 0zm-2.2-2.4c0 0-0.1 0-0.2 0 0.1 0 0.1 0 0.2-0.1 0 0.1 0 0.1 0 0.1zm5.3-7.3c0-0.1 0.1-0.1 0.1-0.1 0 0 0.1 0.1 0.1 0.1q-0.1 0-0.2 0zm-0.1-0.1q-0.2 0-0.4-0.1 0 0 0.1 0 0 0-0.1 0 0.1 0 0.1 0 0 0 0 0 0 0 0 0 0.1 0.1 0.3 0.1zm9.3-10.2q0 0 0-0.1 0 0.1 0 0.1 0 0 0 0 0 0 0 0zm4.8-2.2c0 0 0.1 0 0.1 0q0 0 0 0 0 0 0 0 0 0 0 0.1 0 0-0.1 0 0-0.1 0-0.1zm3.2-0.5c0.1 0 0.1 0 0.1 0q0.2 0.2 0.4 0.3 0 0 0 0-0.2-0.2-0.5-0.3zm7.5 0.8q-0.2-0.1-0.3 0 0.1 0 0.3 0zm2.2-5.7q0 0 0 0 0.1 0 0.1 0c0 0-0.1 0-0.1 0zm-9.4-8.2q0 0 0 0 0 0 0 0 0 0 0 0zm-7-0.9q0 0 0 0.1 0-0.1 0-0.2 0 0.1 0 0.1zm-19.1-8.9c0-0.3 0-0.6-0.4-0.7 0.3 0.2 0.4 0.4 0.4 0.7zm-19.4-1.1c-0.1 0.2-0.3 0.3-0.3 0.6-0.1-0.3-0.2-0.5-0.3-0.7 0.2 0 0.4 0.1 0.6 0.1zm-68.4 2.9q0 0 0 0c0-0.1-0.1-0.1 0-0.1 0 0 0 0 0 0.1zm-1.3-5.3q0 0.1 0 0.1c-0.1 0 0 0-0.1-0.1q0.1 0 0.1 0zm-1.9 0q-0.1 0-0.1 0 0 0 0 0 0 0 0.1 0zm-16.9 1.2q0 0 0.1 0c0 0.1-0.1 0.1 0 0.1q0 0 0 0c0.2 0.1-0.1-0.3-0.2 0q0 0 0.1-0.1zm-17.7-0.5q0 0 0 0 0 0 0 0 0 0 0 0 0 0 0 0c0-0.1 0.1-0.2 0-0.3q0 0.2 0 0.3 0 0 0 0zm-6.7 1.1q0.1 0.2 0.1 0.3c-0.1-0.1-0.1-0.3-0.2-0.3q0 0 0.1 0zm-48.4 2.2q0 0-0.1 0.1c0 0 0-0.1 0-0.1q0.1 0 0.1 0zm-103 1.3q0 0 0 0c-0.1-0.1-0.1-0.1-0.1-0.2 0 0.1 0.1 0.1 0.1 0.2zm-10.8-0.5q0 0 0 0c-0.1-0.3-0.6-0.7-0.4-0.9q0 0 0 0c0.1 0.3 0.2 0.7 0.4 0.9zm-14.7 13.9q0 0 0 0c-0.1 0-0.1 0.1-0.1 0.1 0 0 0-0.1 0.1-0.1zm-1.5 3.2q0 0 0 0zm6.9 42.3q0 0 0-0.1 0 0.1 0 0.1 0 0 0 0zm41.1 0.4q0 0 0 0c0 0 0 0 0 0zm20.4-0.3c0 0 0.1-0.1 0.1-0.1 0 0 0 0 0.1 0-0.1 0-0.2 0.1-0.2 0.1zm40.4 0.3q0 0-0.1 0 0.2-0.3 0.4-0.5 0-0.1 0-0.1c-0.2 0.2-0.4 0.3-0.3 0.6zm6.1-8.4c0.1-0.1 0.2 0 0.3 0-0.1 0-0.2 0-0.3 0zm9 3.1c0.1 0.5 0.1 0.9 0 1.4q0 0 0 0 0.5-0.7 0-1.4zm47.4 6q0 0 0 0 0 0 0 0zm25.4-1.4q0-0.1 0.1-0.2c0 0.1 0 0.1 0 0.2q-0.1 0-0.1 0zm22.9-1.7q0 0 0-0.1c0.1 0 0 0 0 0 0.1 0 0.1 0 0.1 0q0 0-0.1 0.1zm27.2 2.1q0 0 0 0 0 0 0 0zm10.6 0.6q0.3 0 0.5 0c-0.1-0.1-0.3-0.1-0.5 0zm1.5-0.1c0.1-0.1 0.2-0.1 0.3-0.2-0.1 0-0.2 0.1-0.3 0.2zm1.1-2.5q0 0 0 0 0 0 0 0 0 0 0 0zm23.4 0.9c0.1-0.1 0-0.3 0-0.4q0 0 0 0 0 0.2 0 0.4zm19.3-2.4q0.3 0 0.7-0.5c0 0 0.1 0 0.1 0-0.3 0.1-0.7 0.1-0.7 0.5 0 0-0.1 0-0.1 0zm11.5 2.8q0 0 0-0.1c0.1 0 0.1 0 0.2 0.1-0.1 0-0.1 0-0.2 0zm4.1-15.6q0 0-0.1 0 0 0 0 0c0 0 0.1 0 0.1 0zm12.7-19.5c-0.1 0-0.1-0.1-0.1-0.2 0 0.1 0 0.2 0.1 0.2zm20.4 4.4q0 0 0 0 0 0 0 0 0 0 0 0z"/><text style="transform:matrix(1,0,0,1,367,240.856)" ><tspan x="-371.5" y="0" class="b" dx="0 2 2 2 2 2 2 2 2 2" >PROMISING </tspan><tspan  y="0" class="c" dx="0 2 2 2 2 2 2" >GROWTH
</tspan></text><path class="d" d="m488.9 332.6c-2.9-1.1-5.8-0.5-8.7-0.2-3.2 0.3-6.5 0.3-9.7 0-5.7-0.5-11.5-1.7-17.1-3.1-8-2.1-15.9-5.4-22.7-10.1-5.9-4-12.2-9.9-12.8-17.4-0.5-6.1 2.3-11.5 6.9-15.2 4.8-4 11.1-6.1 17.1-7.4 7.1-1.6 14.5-2.2 21.9-2.4 7.1-0.2 14.3 0.1 21.4 0.6 7.7 0.6 15.9 1.1 23.3 3.7 4.9 1.7 9.4 4.8 12.4 9 1.6 2.1 2.8 4.5 3.4 7 0.7 2.9 0.1 5.6-1.4 8.1-5.7 9.5-17.6 13.6-27.7 16.1-3 0.8-6 1.4-9 2.1-2.2 0.4-1.3 3.8 0.9 3.3 11.8-2.5 24.5-5.3 33.7-13.6 4.1-3.7 7.8-8.9 7.2-14.7-0.5-5.6-3.8-10.8-7.9-14.4-7.9-7.1-18.4-8.5-28.5-9.5-7-0.7-14-1.1-21-1.2-8-0.1-16 0.2-23.9 1.4-7 1.1-14.2 2.9-20.4 6.6-5.4 3.1-9.8 8-11.3 14.1-2.1 8.2 1.5 15.8 7.2 21.5 6.4 6.2 14.7 10.5 23.1 13.5 4.5 1.6 9 2.7 13.7 3.7 6.5 1.3 13.3 2.4 20 1.9 2.9-0.2 6.1-1.1 8.9-0.1 2.2 0.8 3.1-2.6 1-3.3z"/><text style="transform:matrix(1,0,0,1,367,316.856)" ><tspan x="-134.1" y="0" class="e">since day One
</tspan></text><path fill-rule="evenodd" class="f" d="m1046.3 343.3c-12.7 4.9-27.9 1.2-36.8-9-9-10.4-10.3-25-15-37.3-2.7-6.9-6.5-13-12-18-6.1-5.4-13.5-9.2-21-12.3-13.6-5.6-27.8-9.2-42.4-10.7q-6.6-0.7-13.2-0.8-2.2-3.4-4.7-6.5-0.1-0.4-0.3-0.7c3.6 1.6 7.7 2.2 11.7 1.4 1-0.2 1.5-1.8 0.6-2.4-6.2-5-13.3-8.9-20.9-11.3q-0.8-2.7-2-5.4c-4.1-9-13.1-13.7-22.9-13.4-6.7 0.2-12.9 2.2-18.4 5.5q-5.1-0.4-10.2-0.1c-4.7 0.2-9.4 1-14 2.2q-0.2 0-0.3-0.1c-7.3-2.9-15.6-3.7-23.4-3.4-4 0.2-8 0.7-11.9 1.7-3.8 0.9-7.8 2-11.1 4.1-4.6 2.8-6.7 7.5-5.9 12.3-2.4 0.8-4.7 1.9-6.8 3.3-5.7 3.8-10 9.3-13.2 15.3-3.3 6.2-5.6 12.9-7.3 19.7-0.8 3.3-1.7 7-0.7 10.3 1 3.5 3.8 6 7 7.5 6.1 3 13.2 4.2 19.9 5 6.7 0.8 13.4 0.9 20.1 0.3q0.8-0.1 1.6-0.2c-1.4 3.7-2.4 7.6-2.9 11.4-0.5 4.9 0.1 9.7 2.1 14.2 1.9 4.3 5.1 7.8 8.9 10.5 7 5.1 15.6 7.7 24 9.6 1.8 3 4.2 5.7 7.3 7.7 3.6 2.3 8 3.6 12.2 3.3q1.5-0.2 2.9-0.6c4.4 4.1 9.7 7.2 15.2 9.3 8.7 3.3 20.2 5.4 28.7 0.5 9.5-5.5 10.9-17.7 9.9-27.6-0.9-8.6-2.9-17.3-5.9-25.5 5.1-3 9.6-7.1 12.7-12.3q0.4-0.7 0.8-1.3c1.2-1.6 2.2-3.4 3-5.3 3.4-0.3 6.8-1.1 9.9-2.7 0.8-0.5 1.7-0.9 1.9-1.9 0.2-1 0.1-2.2 0.1-3.2q-0.2-2.8-0.8-5.6c-1.9-8-6.9-14.9-12.7-20.4q-1.2-1.1-2.5-2.1 0-0.1 0-0.2c9.4 0.3 18.8 1.5 28.1 3.5 6.6 1.5 13.2 3.4 19.5 5.7 6.9 2.6 13.8 5.6 19.9 9.7 6 4 11 9.2 14.3 15.7 2.9 5.6 4.5 11.7 6.3 17.7 3.3 11.8 7.2 23.7 17.6 31.2 9.6 6.8 22.7 8.8 33.8 4.5 1.7-0.6 0.9-3.5-0.8-2.8zm-154.8-31.9q0.1 0.2 0.1 0.4-0.9 0.4-1.8 0.9-3.5 1.6-7.2 2.7 0.8-2.5 1.6-5 3.4-0.1 6.6-0.7 0.4 0.9 0.7 1.7zm6.7 27.7c0.8 9.1-0.2 20.5-9.5 25.1-3.9 1.9-8.5 2.1-12.8 1.7-4.7-0.4-9.5-1.7-13.8-3.5-4.3-1.8-8.3-4.2-11.7-7.1 2.3-1.2 4.3-2.8 6-4.8q1.2-1.4 2.2-3c9.2-3.3 15.3-11.5 19.3-20.3q1.9-4.2 3.5-8.5c3.9-1 7.7-2.4 11.2-4.2 2.8 7.9 4.8 16.3 5.6 24.6zm-53.5 10.2c3.2 0.2 6.3 0 9.4-0.6-1.7 1.9-3.7 3.5-6.1 4.4q-1.7-1.8-3.3-3.8zm4-2.9q-3 0.1-6-0.1-0.7-1.2-1.3-2.4-1.1-2.4-1.9-5c4.8 1 9.9 0.2 14.3-1.9q3.1-1.4 5.7-3.5c-0.1 4.1-0.9 8-2.9 11.6-2.6 0.8-5.3 1.2-7.9 1.3zm-35.8-34.4c-5.7 1.1-11.1-1.8-13.3-7.2-0.6-1.7-1-3.5-1.3-5.3 7.3-1.3 14.4-3.3 21.2-6.2-0.1 3.4 0.8 6.5 2.5 9.4-2.7 2.5-5.1 5.2-7.1 8.2q-0.3 0.4-0.5 0.8-0.7 0.2-1.5 0.3zm-14.2-23.6q0 0.1 0.1 0.1-0.1 0.2-0.2 0.3 0-0.2 0.1-0.4zm-24.8 9.2c-6.1-0.5-12.3-1.7-18.2-3.7-3.1-1-6.6-2.6-8.2-5.6-1.6-3-0.6-6.6 0.2-9.7 2.9-12 7.7-25.5 18.2-33 2.2-1.6 4.6-2.8 7.1-3.6q0.1 0.3 0.3 0.6c2.4 5.6 7.5 10 12.6 13.3q1.1 0.7 2.3 1.4c-1.4 4.9-1.8 10-0.6 15.1q0.5 2.4 1.4 4.6c-2.7 2.4-5 5.3-6.5 8.8-0.5 1.1 0.3 2.5 1.6 2.1q5-1.4 9.6-3.6 1.1 1.2 2.3 2.2 0 0.5-0.1 1.1c-0.3 2.2-0.6 4.6-0.6 7q-0.7 1.3-1.3 2.6c-6.6 0.9-13.4 1-20.1 0.4zm18.8-19.8q2.7-2 5.8-3.4-0.6 2.4-1.2 4.8-1.4 0.8-2.8 1.5-1-1.4-1.8-2.9zm3.1-29.8q1-1.5 2.2-3 1.5 0.8 2.9 1.7 3.7 2.2 7.1 4.8c-2 3.5-3.7 7.2-5.3 10.8q-2.7-1.5-5.4-3.1c-1.9-1-3.7-2.1-5.6-3.1 1.1-2.9 2.5-5.6 4.1-8.1zm-6.6 6.5c-3.3-2.1-6.5-4.3-9.2-7.2-1.6-1.7-3.2-3.8-4.2-6.1q3.7-0.8 7.5-0.6c4.2 0.3 8.2 1.5 12 3.2-2.6 3.3-4.7 6.9-6.1 10.7zm35.4-26.9q1.5 0.7 2.7 1.7c0.9 0.8 1.6 1.7 2.1 2.7q-0.4 0.1-0.7 0.3c-5.8 1.8-10.7 5.9-14.5 10.4q-2.5 2.9-4.6 6.2c-3-2.3-6.3-4.5-9.7-6.2 6.5-7.2 15.2-12.3 24.5-15q0.1-0.1 0.2-0.1zm51.4 5.2c-5.5-0.3-11.1 0.1-16.3 1.8-4.1 1.2-8.4 3.4-11.8 6.4-0.8-1.7-1.8-3.3-3-4.6-1.4-1.5-2.9-2.7-4.7-3.5 2.9-2.9 6.1-5.4 9.7-7.6 9 0.9 17.9 3.4 26.1 7.5zm20.1 39c-1.2 2.5-2.8 4.8-4.6 6.8q0.6-4.1 1.1-8.2 2 0.1 3.9 0.6-0.2 0.4-0.4 0.8zm-25 61.7c-2.6 4-5.9 7.5-10.2 9.8q-0.2 0.1-0.4 0.2c1.5-3.9 2-8.2 1.8-12.5 3-3 5.5-6.7 7.4-10.5 2.8-0.2 5.6-0.6 8.4-1.1-1.9 4.9-4.1 9.8-7 14.1zm-71.8-48.9q0.3-1.8 0.6-3.5 1.5-0.8 2.9-1.7 0 0.4 0 0.8 0.2 1.2 0.5 2.2-0.6 0.8-1.3 1.6-0.8 1-1.5 2.1-0.7-0.4-1.4-0.8 0.1-0.4 0.2-0.7zm6.6-22.3c1.3-3 2.8-6 4.4-8.9q2.9 2.5 5.6 5.2 0.8 0.8 1.6 1.8-3.5 1.6-6.6 4.1-0.8 0.6-1.5 1.4-2.1-1.1-4.1-2.2 0.3-0.7 0.6-1.4zm24.3-27.5q0.2 1.6 0 3.3c-0.2 1.4-0.5 2.8-1 4.2-2.6 4-4.8 8.2-6.6 12.4q-0.4 1.1-0.9 2.3-0.7 1-1.5 2.1-0.5-0.7-1.1-1.3c-2.2-2.4-4.6-4.8-7.2-7 1.4-2.4 3-4.6 4.8-6.6 3.6-4.1 8.2-7.9 13.5-9.4zm60.7 20.8q-7.7 0.6-15.2 1.9c-5.4-4.4-12.1-8-19-9.3q0.8-0.4 1.7-0.7c5-1.9 10.6-2.3 15.9-1.7 5.7 0.8 11.3 2.6 16.6 5.1q0.1 2.3 0 4.7zm2.9-3.3q2.5 1.4 4.8 2.9-2.4 0.1-4.9 0.2 0.1-1.5 0.1-3.1zm-53.2 67.1q0.6-1.4 1.3-2.8 2.1 0.7 4.2 1.3 1.6 0.5 3.2 0.9-4.4 0.8-8.9 1.1 0.1-0.2 0.2-0.5zm7.6-3.9q-2.2-0.6-4.6-1.4 1.4-1.8 3-3.3 1.7 0.1 3.2 0.1 2.6-0.1 5.2-0.4 1.1 3.2 1.9 6.4-0.3 0.1-0.6 0.2-4.1-0.6-8.1-1.6zm-15.5-11.1q0.9-1.4 1.9-2.8 2.4-3.3 5.2-6.3 1.5 1.5 3.1 2.8-2.9 3.9-5.4 8.1c-1.6-0.5-3.2-1.1-4.8-1.8zm-12.6-20.8c-1.2-2.4-1.3-5-0.9-7.6q0.5 0.8 1 1.5 1.1 1.3 2.2 2.6-0.6 1-1.1 2.2-0.6 0.7-1.2 1.3 0 0 0 0zm-14.4-3.8q-0.1-1.3 0.1-2.5 3.6-2.6 6.9-5.5 1 0 1.9 0 0.3 0.2 0.5 0.3c-3.4 2.1-6.6 4.7-9.4 7.7zm77 21q-2.3-0.2-4.6-0.4c2.2-1 4.2-2.5 5.6-4.4q0.4 0.5 0.7 1-0.6 2-1.7 3.8zm-25.7-45.5c0.1 1 0 2-0.3 3.1q-3.1-1-6.2-1.5 0.1-1.1 0.1-2.1 0.1-1.2 0.1-2.5 0.7-0.6 1.4-1.2c2.5 0.2 4.7 1.4 4.9 4.2zm8.7 10.8c2.5 2.3 3.5 5.4 3.1 8.4q-0.6 0.4-1.1 0.7-1-0.7-2.1-1.4-1.1-1.6-2.4-3.1-1.3-1.6-2.9-3.1-0.4-1.6-1.5-3 1.6-0.5 3.3-1c1.3 0.7 2.5 1.6 3.6 2.5zm15.8 28c-1.1 1.6-2.7 2.8-4.5 3.6 0.2-1.2 0-2.5-0.6-3.8q-0.6-1.2-1.6-2.1 2.5-0.7 4.8-1.6 1.2 1.6 2.4 3.2-0.2 0.3-0.5 0.7zm-44.2-34.2q2.1 0.2 4.2 0.7-1 2.5-1.5 5.2-2.7-0.1-5.4 0c0.7-2 1.6-4 2.7-5.9zm10.3-3.4q-0.3 0-0.6-0.1 0.3-0.4 0.7-0.8-0.1 0.4-0.1 0.9zm-2.8 5q0.6 0.9 1.3 1.8-0.6 1.5-1.2 3-1-0.2-1.9-0.3 0.4-2.4 1.3-4.6 0.3 0 0.5 0.1zm-6.4 11.1q0.8-0.1 1.5-0.2 0.2 0.7 0.3 1.5-1.6 1.9-3.4 3.7-1.5-1.2-3-2.3 1.1-0.7 2.2-1.4 1.2-0.7 2.4-1.3zm14-1.6q-0.2 0.3-0.4 0.7-0.3-0.2-0.7-0.3 0.3-0.3 0.5-0.6 0.3 0.1 0.6 0.2zm-6.6 1.8q-1.1 1.1-2.2 2.1-0.1-0.3-0.2-0.5 0.7-0.9 1.3-1.8 0.5 0.1 1.1 0.2zm8.6 12.6q-0.8-0.3-1.5-0.7 1.9-1.2 3.9-2.2 1-0.5 2.1-1-0.4 0.4-0.9 0.7-1.8 1.6-3.6 3.2zm-11.8-5.9q0.9 1.5 2.1 2.7-1.8-0.7-3.6-1.5 0.8-0.6 1.5-1.2 0 0 0 0zm4.6 5.1q0.2 0.1 0.3 0.2-0.4 0.2-0.8 0.5 0.3-0.4 0.5-0.7zm-1.2-5.3q-0.2-0.2-0.3-0.4 1-0.2 2.1-0.4-0.5 0.9-1.1 1.7-0.4-0.5-0.7-0.9zm-7.6 3.4q0 0.1 0.1 0.1 1.9 1.8 3.7 3.9-0.5 0.7-1 1.3c-2.3-0.6-5.4-1.6-5-3.8q1.1-0.7 2.2-1.5zm12.7 5.8q-1.7 0.3-3.5 0.7-0.2-0.3-0.4-0.6 1.4-1.1 2.9-2.1 1 0.6 2 1.1-0.5 0.4-1 0.9zm4.7-8.7q-3 1.5-5.8 3.3-0.6-0.4-1.1-0.9 1.3-2 2.6-4 3.9-0.3 7.8 0-1.8 0.7-3.5 1.6zm-6-4.4q-1.4 0.1-2.8 0.3 1-1 2.1-2 0.7 0.2 1.4 0.5-0.4 0.6-0.7 1.2zm8.1 11.1q-0.1 0-0.3-0.1 3.9-3.5 8.3-6.4 0.1 0.2 0.2 0.5c-2.1 2.7-5 4.6-8.2 6zm1.5-11.2q0.2-0.3 0.3-0.6 0.6 0.4 1.1 0.7-0.7 0-1.4-0.1zm-11.2-4.9q-0.9-0.3-1.9-0.5 0.1-0.2 0.2-0.4 1.1 0.2 2.2 0.5-0.2 0.2-0.5 0.4zm14.5 16.9c1.8-1.1 3.4-2.3 4.8-3.8q0.7 1.8 1.4 3.7c-2.1 0.3-4.2 0.3-6.2 0.1zm-5.4-14.3q-0.3 0.7-0.7 1.2-0.9-0.7-2-1.2 0.3-0.5 0.6-1 0.6 0.2 1.3 0.5 0.4 0.3 0.8 0.5zm-11.8 20.7q0.6-0.1 1.1-0.3-0.2 0.3-0.5 0.6-0.3-0.2-0.6-0.3zm25.5 5.7c-4.8 0.6-9.4-0.2-14-1.4q-2.5-0.7-4.9-1.6-0.8-1.4-1.7-2.9 0.3-0.2 0.5-0.5c6.3 0.8 13 0.9 19.3-0.2q0.6 3.3 0.8 6.6 0 0 0 0zm4.5-13.8q-1.8 0.8-3.8 1.2-0.9-3.1-2.2-6 0-0.1 0.1-0.2 0.7 0.4 1.4 0.8 2.4 2 4.5 4.2zm-38.1-15.8q-0.7 0.1-1.5 0.3-1.2 0.2-2.3 0.6 0.1-0.9 0.3-1.9 2.8-0.2 5.7-0.1-1.1 0.5-2.2 1.1zm36 24.8c0.9 1.2 0.9 2.5 0.4 3.7q-0.1-1.8-0.4-3.7zm6.8-8.3q0.2-0.1 0.3-0.3 0.3 0.2 0.6 0.3-0.4 0.1-0.7 0.3-0.1-0.2-0.2-0.3zm-22.4-16.4q0-0.1-0.1-0.1-0.5-0.3-0.9-0.6 0.1-0.3 0.3-0.6 0.3 0.3 0.7 0.7 0 0.3 0 0.6zm-7.2-5.7q-0.1-0.1-0.2-0.3 0.2 0.1 0.4 0.3-0.1 0-0.2 0zm-21.4 8.5q-0.8-0.3-1.5-0.7-0.4-0.1-0.9-0.3-0.1-0.8-0.3-1.5 1.4-0.4 2.7-0.7-0.1 1.6 0 3.2zm-8.5-3.5q0.4-1.6 0.9-3.3 0.7 1.2 1.2 2.4-1.1 0.4-2.1 0.9zm8.7 9.7q0.3 0.1 0.6 0.2 0.4 1.5 0.9 3-0.6 0.3-1.1 0.6-0.2 0.1-0.4 0.2-1-0.9-2.1-1.8 1-1.2 2.1-2.2zm-0.3 9.7q0.7-0.4 1.4-0.8 2.9 2.3 6 4.3c-2.4 0-4.8-0.2-7.1-1q-1.4-0.4-2.8-1.1 1.3-0.7 2.5-1.4zm53.3 0.4q0.2-0.1 0.5-0.2 0 0.4 0 0.8-0.2-0.3-0.5-0.6zm-27.6-26.4q-0.1 0.1-0.2 0.2-0.1 0.1-0.2 0.1-2.2-1.4-4.5-2.5 0.1-0.3 0.1-0.6 1.7 0.2 3.4 0.6 1.1 0.3 2.2 0.6-0.4 0.8-0.8 1.6zm-9.6-8.5q-0.1-0.8-0.1-1.6 1-0.5 2.1-0.8-1.1 1.1-2 2.4zm-0.5-12.9q0.6 1 1.1 2.1c-1.5 1.7-2.6 3.7-3.2 6-3.7 1.5-6.9 4-9.3 7.5q-2.6 0-5.3 0.4-1.7 0.3-3.4 0.7c3.1-4.6 5.7-9.5 7.4-14.7q2.7-4.3 6.1-8c2.7 1.1 5 3.1 6.6 6zm-15.1 25.3q-1.4 0.2-2.9 0.6-0.5 0.1-1.1 0.3-0.8-2-2-3.8c1-0.5 2-0.9 2.9-1.3q2.3-0.9 4.7-1.6-1.1 2.8-1.6 5.8zm-12.7 1.1q-0.2 0.8-0.2 1.5-0.5-0.1-1.1-0.1 0.6-0.7 1.3-1.4zm7.1 8.8q-0.1 0.5-0.2 1-0.8-0.9-1.4-1.8 0.8 0.4 1.6 0.8zm1.6 7.1q0.4 0.4 0.8 0.8-0.8 0.3-1.7 0.6 0.4-0.7 0.9-1.4zm-2.1 8q1.7 1.1 3.6 1.9c1.9 0.7 3.8 1.2 5.7 1.4q-3.6 2-7 4.6c-1.5-1.8-2.5-4-3-6.6q0-0.4-0.1-0.9 0.4-0.2 0.8-0.4zm9.9 6.3q-2.1 2.3-4.3 4.5-0.6-0.4-1.2-0.9 2.6-2 5.5-3.6zm26 9q-1.2 0.3-2.4 0.5-0.4-0.8-0.7-1.7 1.6 0.6 3.1 1.2zm1.5-2.6q2.4 0.4 4.8 0.6-0.6 0.2-1.2 0.4-1.8-0.4-3.6-1zm9.9 1.2q0 0.6-0.1 1.1-0.7-0.1-1.4-0.2 0.8-0.4 1.5-0.9zm0.1-36.9c-1-2.5-2.9-4.4-5-5.9q4.5-1.1 9-2c2.6 2.3 5 5.1 6.3 8.2-3.2 1-6.4 2.4-9.4 4 0-1.4-0.3-2.9-0.9-4.3zm-8.6-8q-1.3-0.6-2.6-1.1-0.1 0-0.3-0.1c0.5-1.5 0.7-3.1 0.5-4.7q-0.3-1.6-1.1-2.9c4.7 1.4 9.1 3.8 12.9 6.4q0.1 0.1 0.2 0.2-4.9 0.9-9.6 2.2zm-49.5 7.1q-0.3-0.1-0.7-0.3 1.7-1.5 3.6-2.7-1.4 1.6-2.9 3zm-4.8 4.4q0 0 0 0 0 0 0 0 0 0 0 0zm37.3 27.9q3.2 2.2 6.7 3.9-3.5 1.6-6.3 4-2.6-0.3-5.1-0.8 2.2-3.7 4.7-7.1zm8.1 6.4q0.3 0.7 0.6 1.4-1.8 0.2-3.6 0.2 1.5-0.9 3-1.6zm4.5 3.8q2.2-0.5 4.4-1.1 1.2-0.3 2.4-0.7 2.2 0.5 4.3 0.9 0.7 0.1 1.3 0.2-0.3 1.3-0.6 2.6c-3.2 1.6-6.5 3-9.9 4.1q-0.9-3.1-1.9-6zm15.2-0.3q0.2 0.1 0.3 0.1-0.2 0.1-0.3 0.1 0-0.1 0-0.2zm1.3-2.7q-0.4-0.1-0.8-0.1 0.1-1 0.1-2 3.1-0.1 6.2-0.5-1.4 1.5-3 2.8-1.2-0.1-2.5-0.2zm-2.2-31.1c3.2-1.7 6.5-3.3 10-4.3q0 0.1 0 0.2c0.6 2.8 0.3 5.7-0.8 8.2-2.7-2.5-5.9-3.7-9.2-4.1zm11.8-7.9c-1.3-3-3.2-5.7-5.5-8.1q6.1-1 12.2-1.5-0.2 4.5-0.7 8.9-3 0.1-6 0.7zm-37.8-19.9q0.3-0.8 0.7-1.5 0.2 0.6 0.3 1.3-0.5 0.1-1 0.2zm-38.9 19.9q-0.5 0.6-1 1.2-1.7 0.2-3.4 0.6 0.6-1.7 1.3-3.5 1.5 0.9 3.1 1.7zm-3 4.5q-0.7 1.5-1.1 3-1.2 0.8-2.4 1.6 0.5-2 1.1-4 1.2-0.3 2.4-0.6zm0.6 12.5c1.2 1.5 3 2.5 4.9 3.2-2.2 0.1-4.5-0.2-6.7-1q0.9-1.1 1.8-2.2zm10.1 1.2c-2.9-0.1-6.4-0.9-8.2-3.4q0.8-0.9 1.6-1.7c2.4-2.5 5.1-4.6 8-6.5-0.5 3.3-0.5 6.7 0.9 9.8q0.2 0.5 0.5 1-0.7 0.5-1.4 0.8-0.7 0-1.4 0zm9.6 20c-1.6 1.3-3.4 2.4-5.2 3.4q2-2.4 4.2-4.6 0.5 0.6 1 1.2zm6.5 0.7q2.4 1.2 4.9 1.9-0.4 0.8-0.8 1.6-2.4-1.2-4.5-2.8 0.2-0.3 0.4-0.7zm7.9 2.7q2 0.5 3.9 0.7-1.1 1.3-2.1 2.7-1.5-0.6-2.9-1.2 0.5-1.1 1.1-2.2zm0.2 5.9q-1.1 1.9-1.9 4.1 0 0.2-0.1 0.4-1.5 0.1-3 0 0.3-0.6 0.5-1.2 0.9-2.2 1.9-4.4 1.3 0.6 2.6 1.1zm-11.2 7.2q1.1 0.1 2.3 0.2c-0.7 2.6-1 5.3-0.3 7.9 0.9 3.3 3.3 5.6 6.3 6.9 0.6 2.8 1.6 5.6 2.9 8.1-4.2-0.5-8.4-1.4-12.4-2.4-2.5-4.6-3.2-10.2-2.7-15.6q0.2-2.7 0.8-5.4 1.6 0.2 3.1 0.3zm10.8 12.8c-0.7-4.2-0.5-8.6 0.6-12.7q0.8 0 1.6-0.1c5.2-0.4 10.5-1.3 15.5-2.7q0.7 0.1 1.3 0.1c0.7 3.1 1.3 6.3 1.6 9.6-3.6 3.3-8 5.8-12.9 6.5-2.4 0.3-5.2 0.1-7.7-0.7zm24.9-17.9q1.1-0.4 2.1-0.8 1.4-0.6 2.8-1.2-0.4 1-0.9 2-2 0.1-4 0zm8.5-3.8q2.9-1.6 5.6-3.6 1.6 0.1 3.3 0.1-0.9 2.9-1.9 5.8-4 1-8.2 1.3 0.7-1.8 1.2-3.6zm8.8-6.4q0.7-0.7 1.4-1.5-0.2 0.8-0.4 1.6-0.5 0-1-0.1zm5.8-6.3q1.6 2.8 2.9 5.8-2.3 0.3-4.6 0.5 0.9-3.1 1.7-6.3zm-0.1-12.4q0 0 0-0.1 0 0 0.1 0-0.1 0.1-0.1 0.1zm-2.1-4.5q-0.5-0.9-1.1-1.8 0.2-0.4 0.4-0.8c1.7-3.6 1.9-7.2 1-10.7q2.4-0.5 4.8-0.6-0.3 2-0.5 3.9-0.5 3.8-1.2 7.6-1.6 1.3-3.4 2.4zm8.3-16.9q0.3-3.5 0.5-7.1 0.1-1 0.2-2 0.9 0 1.8-0.1 2-0.1 4.1-0.1c0 3.4-0.7 6.9-1.9 10.1q-2.3-0.6-4.7-0.8zm6.1-15.4q-2.5-1.5-5.2-2.8 0-2.1-0.1-4.2 2.6 2.5 4.8 5.2 0.3 0.9 0.5 1.8zm-8.5-9.8q0.1 0.8 0.1 1.7 0.2 1.9 0.3 3.8-1.3-0.5-2.6-1c-8.1-3.3-17.1-5.1-25.9-3.4-3.8 0.8-7.3 2.2-10.5 4.4q-0.9-0.1-1.8 0-0.3-2-1-3.8c2.9-2.9 6.7-5 10.5-6.3 5.1-1.7 10.6-2.1 16-1.8q3.5 0.1 7 0.6 4.1 2.6 7.9 5.8zm-48 14.1q-1.3 0-2.6 0.1 1.1-1.2 2.3-2.1 0.1 1 0.3 2zm-9.3-19.7q0-1.1-0.1-2.2 1-0.1 1.9 0-0.9 1.1-1.8 2.2zm-31.6 28.5q-1.1 2.9-2 5.8c-2.9 1-5.7 2.4-8.2 4.2-0.8-2.2-1.4-4.6-1.5-6.9-0.2-3.2 0.1-6.3 0.9-9.3q5.4 3.2 10.8 6.2zm-5 17.8q0 0.1 0 0.2-0.1-0.1-0.1-0.1 0 0 0.1-0.1zm4.8 6.9c5 2.1 10.5 1.9 15.5-0.5q0.1 0 0.2-0.1 0.7 0 1.4 0 0.6-0.1 1.3-0.2-0.1 0.5-0.1 1-4.4 2-9.1 3.5-6.1 2-12.5 3.1 0-0.6 0-1.1 1.5-2.9 3.3-5.7zm25.3 18.5q0.1 0.1 0.3 0.3c-1.8 3.4-3.2 7-4.3 10.7q-0.7-0.2-1.5-0.3c-1.5-0.3-4.5-0.4-5.3-2-0.4-0.9-0.1-1.9 0.4-2.8 3.8-1.2 7.3-3.4 10.4-5.9zm2.6 2.1q2.2 1.5 4.6 2.8-1.5 3.4-2.8 6.9-2.7-0.1-5.5-0.4c1-3.2 2.2-6.4 3.7-9.3zm7.1 12.6c-0.9 3.7-1.1 7.4-0.7 11.1-1.8-1.3-3.1-3.2-3.2-6 0-1.7 0.3-3.4 0.7-5q1.6 0 3.2-0.1zm58.3-17.2q-1.1 0.3-2.1 0.6-2.1-4.8-4.7-9.3 0.3-1.2 0.5-2.4 0.6-2.4 1.1-4.9c5.9 2.3 12.1 4.1 18.4 4.4q-0.8 1.9-1.7 3.7c-2.9 3.7-7 6.4-11.5 7.9zm14.2-14.5c-5.4-0.1-11-1.6-15.9-3.4q-1.5-0.5-2.9-1 0.3-1.7 0.6-3.3 0.7-0.6 1.3-1.2c3.1-3 5.6-6.6 7.3-10.5 3 1.1 5.6 2.9 7.7 5.3 1.8 2.2 2.9 4.6 3.2 7.2q-0.3 3.5-1.3 6.9zm-8.5-22.1c1.3-3.6 2-7.4 2.1-11.1q0.1 0 0.2 0 0.3 0.2 0.7 0.5 0.9 0.7 1.8 1.4c2.8 5.2 4.6 10.8 5.1 16.8-2.4-3.5-6-6-9.9-7.6zm7.8-22.4c-3.4-0.1-6.7-1.4-9.4-3.5q-0.9-1.5-2-2.8c4 1.7 7.9 3.8 11.4 6.3zm-29.4-24.7c5.3 2.7 8.4 7.4 10.1 12.7q-0.7-0.2-1.5-0.4-1.8-0.4-3.6-0.7-3.6-2.2-7.3-4c-7-3.3-14.5-5.6-22.2-6.7 7.6-3.4 16.9-4.7 24.5-0.9zm-33.8 2.9c-2.8 2-5.3 4.3-7.7 6.9q-2.4-0.6-4.9-0.4c-0.8-2-2.2-3.6-3.9-4.9 5.4-1.2 10.9-1.7 16.5-1.6zm-61 2.2c3.4-1.2 7-2.1 10.6-2.6 7.3-1.2 14.8-1 22 0.6 1.1 0.2 2.3 0.5 3.5 0.8-5.7 2-11.1 4.9-15.9 8.7-2.5 2-4.8 4.2-7 6.7-4-1.9-8.3-3.1-12.7-3.6-3.2-0.3-6.4-0.1-9.5 0.6-0.3-1.6-0.1-3.3 0.6-4.9 1.6-3.3 5.1-5.1 8.4-6.3zm2.8 56.8q1.6-2.4 3.6-4.3 0.7 1.2 1.4 2.3-2.4 1.1-5 2zm35.4 58.4c-8.3-2.2-17.3-5.2-23.4-11.6-6.6-6.9-7.2-16.4-4.7-25.2q0.7-2.3 1.5-4.5c0.4 2.3 1.1 4.6 2.2 6.6 3 5.6 9 8.2 15.2 7.3q0 0 0.1-0.1c-0.5 2.1 0 4.1 2.3 5.5 1.8 1.1 4.2 1.3 6.2 1.6q0.2 0.1 0.4 0.1-0.8 3.7-1 7.5c-0.2 4.5 0.5 9 2.2 13q-0.5-0.1-1-0.2zm22 11.6c-4 0.4-7.8-1-11-3.2q-2.5-1.7-4.2-3.9c3.9 0.9 7.9 1.7 12 2.1q1.7 2.7 3.8 5-0.3 0-0.6 0zm17.8-27q-0.4-3-1-5.9-0.1-0.3-0.2-0.6 2.8 0.2 5.5 0.1c-1.2 2.2-2.6 4.4-4.3 6.4zm31.7-17.9q2.2-0.6 4.3-1.5-1.8 1.5-3.8 2.7-0.2-0.6-0.5-1.2zm26.4-26.8c0.5 2.1 0.6 4.2 0.6 6.3-2.5 1.4-5.2 2.2-8 2.6 0.6-2.3 0.8-4.7 0.5-7 0.5-6.4-0.4-13-2.5-19 4.5 4.8 8.1 10.6 9.4 17.1z"/><path class="g" d="m1163.2 307.8c-26.2 5.7-64.8 24-64.8 24 0 0-22.9 0.2-42.1 7.8-19.1 7.6-8.3 14.4-8.3 14.4 0 0 2.2 8.8 22 5.1 0 0 9.3-5.2 16.6-11-3.1 2.5 54.9-35.1 76.6-40.3z"/><path class="a" d="m1074.1 243.3c-5.5 3.4-45.6 27.2-45.6 27.2l4.5 3.5c0 0-8.8 4.2-16.1 7.8-7.4 3.6-19 0.2-23-9.7l35.4-20.8c0 0 24-14.4 31.3-18.5 7.4-4.1 10.3-4.7 20.2-3 9.9 1.6 33.3 5.3 33.3 5.3l26.7 3.9c0 0-39.6 0.2-49.5-0.1-9.8-0.2-11.7 1.1-17.2 4.4z"/><path class="a" d="m1230.1 273.7c-2.6 2.1-6.3 4-10.5 6-10.2 4.4-20.9 5.7-38.3 5.1-17.4-0.6-38.6 16.2-47 7.5-7.6-7.8-17.3-10.9-20.7-9.8-3.3 1.1-40.7 10.8-40.7 10.8l-7.6 2.4c0 0-7.2 26.2-13.9 38-6.6 11.7-11.1 14.5-17.6 12.6l-3.4-1.1c0 0 10.1-46.2 11.8-52.4 2.1-7.7 2.9-8.2 10.8-14.2 7.8-6 38.7-30.7 38.7-30.7 0 0 9.2-7.6 19.9-8.3 10.6-0.8 17.4-0.7 47.6-3.9 30.2-3.2 50.2-19.6 63.3-38.5 13-18.8 125.1-197.5 125.1-197.5l31.3 123.9c-60.1 64-131.1 136.7-148.8 150.1z"/><path class="a" d="m1077.4 208.5c-3.1 0.1-46.6 1.1-46.6 1.1 0 0-10.7-5.6-6-17.6l56.8 11 49.8 27.9c0 0-39.5-17.4-44.2-19.4-4.7-2-6.7-3.1-9.8-3z"/><path class="a" d="m1078.4 223.7c-7.7 3.4-32.9 15.6-32.9 15.6 0 0-21.1 3.2-32.6 4.7-11.5 1.5-21-6.3-20.8-17.3l36.9-5.1c0 0 43.1-6 46.1-6.5 3.1-0.5 5.2 0.4 10.1 1.8 4.9 1.4 46.2 14 46.2 14 0 0-22.9-5.8-32.7-8.4-9.7-2.5-12.6-2.2-20.3 1.2z"/><path class="a" d="m1033 274c29.1-15.6 42.1-14.8 42.1-14.8l16.6-2c0 0 44.4-0.1 63.7-0.3 19.3-0.1 12.1-13.9-14.6-17.9-26.7-3.9-59-5.3-59-5.3l-29.7 13.7-33.3 18.1z"/><path class="a" d="m1045.5 239.3c35.6-3.8 40.1-0.7 40.1-0.7l60 7.5c0 0 20.9-9.5-2.8-13.9-23.6-4.5-63.7-16.7-63.7-16.7z"/><path class="a" d="m1230.1 273.7c-36 33.5-25.8 39.9-62.1 62.1-16.2 9.9-35.5 16.1-55.1 20.7-24.5 5.7-42.9 2.6-42.9 2.6l28.4-27.3c0 0 31.1-21.6 34.3-31.7 5.1-16.1-2.2-27.4-2.2-27.4l14.3-11.5z"/><path class="a" d="m1024.8 192c-5.7 14.3 6.8 19.9 17.4 21 10.5 1 29.7 5 29.7 5l46.8 19.5 43.6 21c0 0 16.8 9.3 23.9-4.3 7.2-13.5-40.7-22.7-61.3-32.2-20.5-9.5-37-17.7-43.3-19-6.4-1.2-56.8-11-56.8-11z"/></svg>