<svg version="1.2" xmlns="http://www.w3.org/2000/svg" viewBox="0 0 118 93" width="118" height="93"><defs><clipPath clipPathUnits="userSpaceOnUse" id="cp1"><path d="m256.73 92.31h-253.74c-6.94 0-12.63-5.68-12.63-12.63v-67.7c0-6.95 5.69-12.64 12.63-12.64h253.74c6.95 0 12.63 5.69 12.63 12.64v67.7c0 6.95-5.68 12.63-12.63 12.63z"/></clipPath></defs><style>.a{fill:#f79b7c}.b{fill:#f7d7c7}.c{fill:#eb6737}.d{fill:#d7a286}.e{fill:#d76d49}.f{fill:#fff}.g{fill:#3f2b2b}.h{fill:#decfc4}.i{fill:#78451c}.j{fill:#34151c}.k{fill:#ffcc60}.l{fill:#c68847}.m{fill:#18142e}.n{fill:#fdbd62}.o{fill:#e3873a}</style><g clip-path="url(#cp1)"><path class="a" d="m82.6 46.2c0 0 4.9 4.9 8.2 2.5 3.3-2.4-1.2-10.8-1.2-10.8l-6.2 2-2.1 0.7z"/><path class="a" d="m72.1 31.3c-1.3-0.6-4.3 0-4.6 1.6-0.4 2.4 3.3 3 4.6 4.1 0.3 0.2 0.7 0 0.7-0.3 1 0.3 2.4-0.2 2.8-1.1 0.7-1.9-2.1-3.7-3.5-4.3z"/><path class="b" d="m84.8 63.1c-0.4 2-6.5 3.9-9.3 3-2.9-1-3.8-4.2-3.8-4.2-0.3-1.2-0.2-4.1-0.1-5.3q0.2-3.4 0.4-6.7c0.2-3.8 0.3-7.5 0.2-11.3q0-1 0-2.1 0-0.2 0-0.5 0 0 0 0 0-0.1 0-0.1 0 0 0 0 0-0.3 0-0.6 0-0.5-0.1-1.1 0-1.4-0.1-2.8-0.1-0.7-0.1-1.4-0.4-4.5-1.3-9c-0.5-2.4-0.9-4.8-1.2-7.3-0.1-1.6-0.6-3.8-0.1-5.3 1-2.7 10.7-7 12.2 1.8 0.1 0.4 0.3 10 0.6 17.9q0.1 1.8 0.2 3.5 0 0.1 0 0.2 0.1 1.7 0.2 3 0 0.3 0.1 0.7 0.1 1.1 0.2 1.9 0.1 0.5 0.1 1.1c0.9 6.5 2.4 22.8 1.9 24.6z"/><path fill-rule="evenodd" class="c" d="m77.8 46.6c-1.2-0.3-1.5-2.2-1.6-3.2 0-1.3 0.3-2.7 0.8-3.9q0 0 0 0c-0.1-0.2 0-0.4 0.2-0.5q0-0.1 0.1-0.3c0.3-0.5 1-0.1 0.8 0.4q-0.1 0.2-0.2 0.4c0.5 1.6 2.2 7.7-0.1 7.1zm-0.4-5.7q-0.2 0.8-0.3 1.6c0 0.6-0.1 2.6 0.7 2.7 0.7 0.2 0.1-2.6-0.4-4.3z"/><path class="c" d="m82.2 44.2q-0.7-2.8-2.3-5.1c-0.3-0.5-1-0.1-0.7 0.4q1.5 2.3 2.2 4.9c0.2 0.6 1 0.3 0.8-0.2z"/><path class="d" d="m77.9 65.3c2 0.1 3.9-0.7 5.8-1.4 0.2-0.1 0.2-0.3 0.2-0.5q0-0.1 0-0.3c-0.8-2-3-3.5-5-4.1-1.2-0.4-3.8-0.8-4.7 0.4q-0.1 0.1-0.1 0.1 0 0 0 0.1c0.4-0.8-0.2-2.6-0.3-3.4q-0.1-1.7-0.1-3.5c0.1-2 0.2-4.1 0.4-6.1q0.4-6.4 0-12.8c-0.3-4.3-0.8-8.7-1.4-13-0.5-4.2-1-8.4-2.3-12.5-0.2-0.5-1-0.1-0.8 0.4 1.5 4.8 2 9.9 2.7 14.9 0.6 5 1.1 10.1 1.1 15.3 0.1 4.6-0.4 9.1-0.5 13.7-0.1 2.1 0 4.2 0.4 6.2 0 0.4 0.1 0.9 0.3 1.2 0.3 0.4 0.9 0.6 1.2 0.1q0-0.1 0-0.1 0.2-0.1 0.3-0.3c0.9-0.9 3.3-0.1 4.3 0.3 1.4 0.7 2.9 1.8 3.6 3.2-1.8 0.8-3.7 1.5-5.7 1.1-0.9-0.1-1.5-0.4-2.2-1.1-0.2-0.1-0.3-0.3-0.3-0.5-0.2-0.4 0.4-0.9 0.8-1q0.4 0 0.7 0c1.1-0.2 2.8-0.5 3.6 0.4-1.1 0.3-2.1 0.4-3.2 0.3-0.6 0-0.7 0.8-0.1 0.9 1.4 0.1 2.8 0 4.1-0.5 0.2-0.1 0.3-0.4 0.2-0.6-0.7-1.7-2.5-1.6-4.1-1.4-1.5 0.1-3.1 0.3-2.9 2.2 0.1 1.8 2.6 2.2 4 2.3z"/><path class="c" d="m82.1 28.1c-1.1-1.2-3.4-1.4-4.9-1.1-2 0.4-3.9 1.5-5.3 3q0 0.7 0.1 1.4 0.1 1.4 0.1 2.8 0.1 0.6 0.1 1.1 0 0.3 0 0.6 0 0 0 0 0 0 0 0.1c0.4-0.3 0.9-0.7 1.2-1 2.2-1.4 4.5-1.5 6.9-2.3 0.7-0.3 1.5-0.6 2-1.1q0.4-0.5 0.5-1.1c0.2-1-0.1-1.8-0.7-2.4z"/><path class="e" d="m84.8 30q-1.3-0.6-2.6-1.2c-0.5-0.2-0.9 0.5-0.4 0.7q1.3 0.6 2.6 1.2c0.5 0.2 0.9-0.5 0.4-0.7z"/><path class="e" d="m84.1 33.6c-2.4-1.5-4.9-2.3-7.6-1.3-2.6 1-4.3 3.2-5.7 5.5-0.3 0.5 0.5 0.9 0.8 0.4 1.1-1.8 2.5-3.7 4.4-4.7 2.7-1.4 5.2-0.7 7.7 0.8 0.4 0.3 0.9-0.4 0.4-0.7z"/><path class="e" d="m84.7 37.4c-2.2-0.9-4.4-1.7-6.8-1-1.9 0.6-4.3 1.7-5.3 3.5-0.3 0.4 0.5 0.8 0.7 0.4 0.9-1.5 3.2-2.6 4.8-3.1 2.2-0.6 4.2 0.2 6.2 1 0.5 0.2 0.9-0.6 0.4-0.8z"/><path class="f" d="m101.8 54.1q-1.3-1.7-2.6-3.4c-2.7-3.3-5.5-6.5-7.9-10-2.6-3.6-4.4-7.6-6.4-11.5-0.9-1.8-1.5-4.2-3.5-5.1-3.9-1.9-9 1.3-11 4.8-0.2 0.5-0.4 1-0.5 1.5 0 0.4 0.1 0.7 0.3 1 1.1 1.5 3.6-1.4 4.5-2 2-1.5 4.7-2 6.6-0.3-1.7 0.1-3.5 0.2-5.1 0.8-1.5 0.6-2.7 1.9-3.6 3.2-0.5 0.7-2.4 4.1-1.9 5.4-0.3 1.3 0.1 2.5 1.9 2.7q0.4 0 0.8 0 0.2 0.3 0.6 0.5c0.9 0.6 2 0.3 2.9-0.2 1.9-1 4.1-2.2 4.2-0.5 0.1 2.1 1 3.7 2.1 5.4 4.5 7.2 6.2 15.6 9.6 23.3 1.1 2.5 2.5 5.3 4.8 7 2.3 1.7 4.9 1.4 7.1 0 2.8-1.8 4.5-4.5 4.3-7.8-0.2-3.4-2-6.6-3.7-9.5-1-1.8-2.2-3.6-3.5-5.3z"/><path fill-rule="evenodd" class="g" d="m101 78.1c-1.3 0-2.5-0.4-3.5-1.1-2.3-1.8-3.8-4.5-5-7.2-1.3-2.9-2.3-6-3.4-9-1.6-4.8-3.4-9.8-6.2-14.2-1.1-1.8-2-3.4-2.1-5.6 0-0.4-0.2-0.5-0.2-0.5-0.6-0.4-2.3 0.6-3.5 1.2h-0.1q-1.8 1-3.1 0.2-0.4-0.1-0.6-0.4-0.4 0-0.8 0-1.3-0.2-1.8-1c-0.4-0.5-0.5-1.2-0.3-2-0.5-1.5 1.5-4.9 1.9-5.5 1-1.3 2.2-2.7 3.8-3.3 1.4-0.6 2.9-0.7 4.5-0.8-1.9-1.2-4.3-0.4-5.8 0.7-0.1 0.1-0.4 0.3-0.7 0.6-0.9 0.9-2.2 2-3.2 1.9q-0.6 0-0.9-0.5c-0.3-0.4-0.4-0.9-0.4-1.2 0.1-0.5 0.2-1 0.6-1.6 1.9-3.4 7.1-6.9 11.3-4.9 1.6 0.7 2.3 2.3 3 3.8q0.3 0.7 0.6 1.3 0.8 1.6 1.6 3.2c1.4 2.8 2.9 5.7 4.8 8.3 1.8 2.5 3.7 5 5.7 7.3q1.1 1.4 2.2 2.8c1 1.2 1.9 2.3 2.6 3.3 1.4 1.9 2.6 3.7 3.6 5.3 1.7 2.9 3.5 6.2 3.7 9.7 0.1 3.2-1.4 6.1-4.4 8-1.3 0.8-2.7 1.2-3.9 1.2zm-20.8-38.2q0.4 0 0.6 0.1 0.5 0.3 0.6 1c0.1 2 0.9 3.5 2 5.3 2.8 4.5 4.6 9.5 6.3 14.4 1 2.9 2 6 3.3 8.9 1.2 2.6 2.6 5.3 4.8 6.9 2 1.5 4.4 1.4 6.8-0.1 2.8-1.8 4.3-4.4 4.1-7.5-0.2-3.3-1.9-6.4-3.6-9.4-1-1.6-2.1-3.4-3.5-5.2-0.8-1-1.6-2.1-2.6-3.4q-1.2-1.4-2.3-2.8c-1.9-2.3-3.9-4.7-5.7-7.2-1.9-2.7-3.3-5.6-4.8-8.5-0.5-1-1-2.1-1.6-3.1q-0.3-0.7-0.6-1.3c-0.6-1.5-1.3-3-2.7-3.6-1.7-0.9-3.8-0.7-6 0.4-1.9 0.9-3.7 2.5-4.6 4.2-0.3 0.6-0.5 1-0.5 1.4q0 0.5 0.2 0.9 0.2 0.3 0.5 0.3c0.9 0 2.1-1.1 2.9-1.8 0.3-0.3 0.5-0.5 0.7-0.7 1.8-1.3 4.8-2.2 7-0.2l0.5 0.4-0.7 0.1c-1.7 0.1-3.5 0.2-5 0.8-1.5 0.6-2.6 1.9-3.5 3.1-0.6 0.8-2.3 4-1.8 5.1v0.1 0.1c-0.1 0.5-0.2 1.1 0.1 1.6q0.4 0.6 1.5 0.7 0.4 0 0.8 0h0.1l0.1 0.1q0.3 0.3 0.6 0.5 1 0.6 2.5-0.2l0.1-0.1c1.3-0.6 2.5-1.3 3.4-1.3z"/><path class="h" d="m41.7 8.8c-1.7-1.6-4.1-1-5.6 0.6-1.5 1.6-1.8 3.9-0.8 5.8 1.2 2.4 3.7 2.9 6.1 3q0.1 0 0.1 0c0.3 0.2 0.8 0.1 0.9-0.2q0.3-0.7 0.5-1.5 0-0.1 0-0.2 0.3-0.1 0.3-0.5c0-2.3 0.3-5.2-1.5-7z"/><path class="i" d="m61.3 44.8q-0.2-2-1-3.9c-0.7-1.6-1.6-3.1-2-4.8-0.5-1.9 0-3.8 0.3-5.7q0.4-2 0-4.1c-1.1-7.6-9.6-13.3-17-10.1-4.2 1.9-6 6-8 9.8-1 1.9-2.2 3.9-3.9 5.3-0.8 0.7-1.7 1.2-2.6 1.5-1.4 0.5-2.8 0.4-4.2 0.6-3.9 0.4-7.7 2.5-10 5.8-2.4 3.7-2.6 8.7-0.2 12.4q0 0.2 0.3 0.3 0 0 0 0.1c0.1 0.2 0.4 0.2 0.6 0.2 2.7 1 5.2 2.5 7.8 3.7q3.9 1.8 8.1 2.7c5.6 1.3 11.5 1.5 17.2 1.2q2.4-0.2 4.8-0.4c1-0.2 2-0.4 2.9-0.9 0.1 0.2 0.4 0.3 0.7 0.1 4.4-3 6.9-8.5 6.2-13.8z"/><path class="f" d="m49.9 39.7c0-0.2-0.1-0.3-0.3-0.4-2.7-0.8-5.2-2.4-6.6-4.8q-0.5-1-0.8-2.1 0-0.2-0.2-0.3 0 0 0 0c0.1-0.3-0.2-3.5 0-3.4 0.3 0.1-3.9 9.8-5.7 13q-0.8 1.4-1.6 2.7c-0.2 0.3 0.1 0.7 0.4 0.7-0.2 0.1-0.2 0.3-0.2 0.5 0.6 1.6 1.9 2.9 3.4 3.7q1.2 0.7 2.5 1.2c1 0.3 2 0.5 3 0.5 1.2-0.1 2.3-0.4 3.3-0.9 0.3-0.2 0.3-0.5 0.1-0.7q1.1-4.8 2.7-9.4 0.1-0.2 0-0.3z"/><path class="j" d="m49.5 41.3c0.1-0.5 0.3-0.8 0.4-1.3q0.1-0.2 0-0.3c0-0.2-0.1-0.3-0.3-0.4-2.7-0.8-5.2-2.4-6.6-4.8-0.1-0.2-0.3-0.6-0.4-0.8-0.2 1.8 1.2 5.7 6.9 7.6z"/><path class="f" d="m56.9 24c-0.4-2.8-2.3-4.5-4.7-5.4 0-0.4-0.3-0.7-0.7-0.8-3.3-0.6-6.6 0.5-8.6 3.2-1 1.4-1.5 2.9-1.6 4.6-0.2 1.1-0.2 2.3 0.1 3.4q-0.1 0.2 0 0.3c0.2 1.5 0.3 3.2 0.8 4.7 0.5 1.2 1.6 2.1 2.6 3 1.9 1.8 4.3 3.2 7 2.7 3-0.7 3.7-3.5 4.3-6.1 0.7-3.1 1.3-6.4 0.8-9.6z"/><path class="j" d="m50.6 40c-2 0-4-0.9-6-2.8-0.7-0.7-1.4-1.3-1.9-2.2-0.1-0.1-0.1-0.3 0-0.3 0.1-0.1 0.3-0.1 0.4 0 0.5 0.8 1.1 1.5 1.8 2.1 2.4 2.2 4.6 3.1 6.9 2.6 2.9-0.6 3.6-2.8 4.2-5.3 0.9-3.5 1.1-7.3 0.7-10.1-0.4-3.1-2.8-4.5-4.6-5.2q-0.2-0.1-0.2-0.2c0-0.2 0-0.5-0.5-0.6-3.2-0.6-6.4 0.6-8.3 3.2-0.9 1.2-1.4 2.6-1.6 4.4-0.1 1.1 0.1 3.5 0.1 3.7 0 0.1-0.1 0.2-0.2 0.2-0.1 0.1-0.3 0-0.3-0.2 0-0.1-0.2-2.6-0.1-3.8 0.2-1.8 0.8-3.3 1.7-4.6 2-2.7 5.4-4 8.8-3.3 0.5 0 0.8 0.4 0.9 0.8 2.7 1 4.4 3 4.8 5.6 0.4 2.8 0.1 6.6-0.7 10.2-0.6 2.5-1.4 5-4.6 5.7q-0.7 0.1-1.3 0.1z"/><path class="i" d="m58.6 26.3c0.8-6.9-5.6-10.9-11.1-10.9-1.5 0-2.9 1.7-4.1 2.6-2.7 1.9-4.3 4.8-5 7.9-0.1 0.4 0.1 0.7 0.4 0.8 1.8 0.5 3.3 0.7 5.1 0.2 1.5-0.4 2.9-1.1 4-2.1 1.4-1 2.5-2.4 3.2-4 0.1-0.2 0.3-0.3 0.6-0.3 2.5 0.5 4.7 2.3 5.7 4.8 0.3 0.6 1.2 1.8 1.2 1z"/><path class="f" d="m43.1 27.7c-0.3-0.8-0.6-1.5-1.2-2.1-0.7-0.9-1.6-1.5-2.5-1.1-0.8 0.4-0.9 1.5-0.8 2.2 0.1 1.1 0.7 2.1 1.3 3 0.5 0.7 1.2 1.5 2 1.7 0.7 0.2 1.5-0.1 1.7-0.9 0.3-0.9-0.1-2-0.5-2.8z"/><path class="j" d="m40 27c0.6 0.7 1 1.5 1.1 2.4 0 0.2 0.1 0.3 0.3 0.3 0.1 0 0.3-0.1 0.2-0.3-0.1-1-0.5-2-1.2-2.8-0.1-0.1-0.3-0.1-0.4 0-0.1 0.2-0.1 0.3 0 0.4z"/><path class="j" d="m55.6 26.5c-1 0.1-1.8 1-2.2 1.9-0.5 1.1-0.8 2.4-1 3.6-0.1 0.4 0.5 0.6 0.5 0.2 0.2-1.1 0.5-2.3 1-3.3 0.3-0.9 0.9-1.7 1.9-1.9 0.4 0 0.2-0.6-0.2-0.5z"/><path class="j" d="m55.8 26.4c-0.5 0-0.9 0.2-1.2 0.6-0.1 0.2-0.5 0.5-0.5 0.7q0 0.4 0.3 0.3c0.1-0.1 0.3-0.1 0.5-0.2q0.3 0 0.6 0.1 0.3 0 0.7 0.2c0.2 0.1 0.5 0.2 0.7 0.1 0.4 0 0.2-0.5 0.2-0.9 0-0.7-0.7-1-1.3-0.9z"/><path class="j" d="m50.4 25.2c-0.9-0.4-2-0.2-2.9 0.1-0.4 0.2-0.7 0.6-0.5 1 0.4 0.9 1.5 0.5 2.2 0.6 0.7 0 1.3 0.4 1.9 0.4 0.3 0 0.6-0.2 0.7-0.5 0.2-0.5-0.2-0.9-0.6-1.2q-0.4-0.3-0.8-0.4z"/><path class="j" d="m55.7 29.6c-0.2-0.4-0.6-0.4-1-0.1-0.4 0.2-0.5 0.8-0.6 1.3 0 0.2 0.1 0.4 0.2 0.6 0.3 0.4 0.8 0.1 1.1-0.2 0.3-0.4 0.6-1.1 0.3-1.6z"/><path class="j" d="m49.9 28.2c-0.2-0.4-0.8-0.4-1.2-0.1-0.5 0.3-0.7 0.9-0.7 1.4 0 0.2 0 0.4 0.2 0.6 0.4 0.4 1 0.1 1.3-0.2 0.4-0.4 0.8-1.1 0.4-1.7z"/><path class="j" d="m52.6 34.2c-0.2-0.8-1.3-0.8-1.8-0.6-0.4 0.1-0.9 0.2-1.1 0.6-0.3 0.7 0.3 1.5 0.9 1.7 0.3 0.1 0.7 0.2 1 0.1 0.9-0.1 1.2-1 1-1.8z"/><path class="f" d="m52 34.9c0.6-1-1.4-0.7-1.8-0.5-0.1 0.1-0.1 0.2-0.1 0.2 0.2 0.1 0.6 0.3 0.7 0.4 0.9 0.3 1.1 0.1 1.2-0.1z"/><path class="f" d="m93.5 78.3c-3.1-3.2-22.9-20.2-25.7-22.7-3.1-2.7-6.4-4.1-10.2-5.4-1-0.3-6.3-1.9-7.4-2.4-0.9-0.4-1.8-1.4-1.5-2.6 0.3-1.2 1.2-3.1 1.1-3.5-0.1-0.1-0.3-0.3-0.4-0.2-0.7 0.6-3.5 0.4-5.1 0.1-1.4-0.3-2.9-0.7-4.2-1.4-1.7-0.9-2-1.8-2-1.8-0.2-0.1-0.5-0.1-0.6 0.1-0.9 1.9-1.8 3.2-3 4.8-0.5 0.6-1.1 1-1.8 1.3-5.7 1.9-14.5 3.2-17.2 3.9-3.3 1-6.6 2.9-8.4 5.9-2.8 4.8-3.4 11.2-4.3 16.6-0.7 4-1.3 8.1-2 12.1q0 0.1 0 0.2c0 0.2 0 0.4 0 0.6 0 0.3 0.1 0.5 0.4 0.5 5.7 0.5 11.4 0.2 17.2 0.7 5.7 0.5 11.4 0.9 17.2 0.9 2.9 0 9.1-0.1 9.2-0.1 3.6-0.4 6.5-2.8 8.6-5.6 1.1-1.4 2.1-3 3-4.7 0.3-0.7 0.7-2.1 0.9-2.6 0-0.1 0.2-0.2 0.2-0.1 1 1 13.9 11.5 19 12.9 0.2 0.1 17.4-7.7 17-7.5z"/><path fill-rule="evenodd" d="m34.6 86.2c-5.4 0-10.8-0.4-16.2-0.9-2.8-0.2-5.6-0.3-8.4-0.3-2.9-0.1-5.9-0.2-8.8-0.4q-0.3-0.1-0.5-0.3-0.1-0.2-0.1-0.4v-0.5q0-0.2 0-0.3c0.3-1.9 0.6-3.9 0.9-5.8 0.4-2.1 0.7-4.2 1.1-6.4q0.2-1.4 0.5-2.9c0.7-4.8 1.5-9.7 3.8-13.7 1.6-2.7 4.7-4.9 8.6-5.9 0.9-0.3 2.5-0.6 4.5-1 3.7-0.7 8.9-1.7 12.6-3 0.7-0.2 1.3-0.6 1.7-1.2 1.2-1.6 2.2-2.9 3.1-4.8q0.1-0.2 0.3-0.3 0.3 0 0.5 0.1 0 0 0.1 0.1 0.5 1 1.9 1.7 1.7 0.9 4.2 1.4c1.6 0.3 4.2 0.5 4.9-0.1 0.2-0.1 0.4 0.1 0.6 0.2q0 0 0 0h0.1v0.1c0.1 0.3-0.1 0.9-0.5 1.9-0.2 0.6-0.5 1.2-0.6 1.7-0.3 1.1 0.5 2.1 1.4 2.5 0.7 0.3 3.4 1.1 5.3 1.7 1 0.3 1.7 0.5 2 0.6 3.4 1.2 7 2.6 10.3 5.5q0.5 0.4 1.6 1.3c5.2 4.5 21.1 18.2 24.1 21.3v-0.1l0.2 0.3-0.1 0.1c0 0 0 0-0.1 0l-0.1 0.1c-0.5 0.2-2.2 1-8.3 3.8-8.5 3.8-8.6 3.7-8.7 3.7-5.2-1.5-17.8-11.7-19-12.9-0.2 0.4-0.6 1.9-1 2.6q-1.2 2.4-2.9 4.7c-1.8 2.4-4.8 5.3-8.8 5.7-0.1 0-4 0-8.4 0.1h-0.8q-0.5 0-1 0zm3.3-47.7q-0.1 0-0.1 0 0 0-0.1 0.1c-0.9 1.9-1.9 3.3-3.1 4.8-0.5 0.6-1.1 1.1-1.8 1.4-3.8 1.3-9 2.3-12.7 3-2 0.4-3.6 0.7-4.5 0.9-3.8 1.1-6.8 3.2-8.3 5.8-2.3 3.9-3.1 8.8-3.8 13.5q-0.3 1.6-0.5 3c-0.4 2.1-0.8 4.3-1.1 6.4-0.3 1.9-0.6 3.8-0.9 5.7q-0.1 0.1 0 0.2v0.6q0 0.1 0 0.2 0.1 0.1 0.2 0.1c2.9 0.3 5.9 0.3 8.8 0.4 2.8 0 5.6 0.1 8.4 0.3 5.8 0.5 11.5 1 17.2 0.9h0.8c2.9 0 8.2-0.1 8.4-0.1 3.9-0.4 6.7-3.2 8.5-5.5q1.7-2.3 2.9-4.7c0.3-0.6 0.7-1.9 0.9-2.6q0.1-0.2 0.3-0.2 0.1-0.1 0.3 0.1c1.1 1.1 13.9 11.4 18.9 12.8 0.8-0.2 14.6-6.4 16.6-7.4-3.2-3.2-18.8-16.6-24-21.1q-1-0.9-1.5-1.4c-3.3-2.8-6.8-4.2-10.2-5.3-0.3-0.1-1.1-0.4-2-0.6-1.9-0.6-4.6-1.4-5.4-1.8-1-0.4-1.9-1.5-1.6-2.9 0.2-0.5 0.4-1.1 0.6-1.7 0.3-0.6 0.5-1.4 0.5-1.6q0 0 0 0c0-0.1-0.1-0.1-0.1-0.1-1 0.7-3.9 0.3-5.2 0.1q-2.5-0.5-4.3-1.5-1.5-0.8-2-1.8-0.1 0-0.1 0 0 0 0 0z"/><path class="f" d="m20.1 65.4q-0.8 4.4-1.2 8.9c0 0.2 0.2 0.4 0.4 0.4 0.2 0 0.4-0.2 0.4-0.4q0.4-4.4 1.1-8.7c0-0.2 0-0.5-0.3-0.5-0.1-0.1-0.4 0.1-0.4 0.3z"/><path class="f" d="m57 67.8c0.2 0.7 0.2 1.5 0.2 2.3 0 0.8 0 1.6-0.2 2.4 0 0.3 0.4 0.4 0.5 0.1 0.3-1.3 0.3-2.6 0.2-3.9q-0.1-0.5-0.2-1.1c-0.1-0.3-0.5-0.1-0.5 0.2z"/><path class="f" d="m28.7 87.8c-0.7-1.5-1.7-3-3.2-3.8-1.5-0.9-3.2-1.2-4.8-2q-1.1-0.6-2-1.4c-0.4-0.3-1.1-0.9-1.5-1.6q0.8 0.2 1.5 0.3c1.2 0.3 2.7 0.4 3.9-0.2 0.9-0.6 1.5-1.7 1.2-2.7-0.5-1.2-2.1-1.9-3-2.6-1.6-1.3-4.4-4.3-6.6-3.9-0.4 0.1-4 1.7-6.5 2.9-2.6 1.3-3.7 2.7-5.3 5.3-0.6 0.9-1 2.4-1.4 3.5-1.3 3.7 1.2 5.6 5.2 6.4 1.3 0.3 7.5 2.4 8.7 3.1 1 0.7 2.1 0.7 3 0.3q1 0.7 2.2 1.1c1.2 0.4 2.9 0.7 4-0.2q0.3-0.2 0.5-0.5 0.5 0.1 0.9 0.2c1 0.1 2 0.2 2.7-0.4q0.1-0.1 0.2-0.1c1.2-1 0.8-2.4 0.3-3.7z"/><path class="j" d="m16.8 86.6c0.6 0.6 1.2 1.1 1.5 1.9 0.3 0.6 0.4 1.4 0 2-0.4 0.6-1.2 0.8-1.9 0.7-0.8-0.1-1.5-0.4-2.2-0.6-2-0.8-4.1-1.5-6.2-2.3q-1.5-0.5-3-1-0.7-0.2-1.5-0.4c-0.9-0.3-1.7-0.7-2.1-1.5-0.3-0.8-0.3-1.7-0.3-2.5 0.1-0.9 0.4-1.8 0.7-2.7 0.2-0.6 0.4-1.3 0.6-2q0-0.1 0.1-0.3c0-0.3-0.5-0.5-0.6-0.1-0.1 0.6-0.4 1.2-0.6 1.8-0.3 0.9-0.5 1.8-0.7 2.8-0.1 0.9-0.2 1.9 0.1 2.8 0.3 0.9 1 1.6 1.9 2 0.6 0.2 1.2 0.4 1.8 0.6q1.5 0.4 3 0.9c2.2 0.8 4.4 1.6 6.6 2.4 1.4 0.5 3.1 1.2 4.4 0.1 0.6-0.5 0.8-1.2 0.7-2 0-0.8-0.5-1.5-1-2.1q-0.4-0.5-0.9-0.9c-0.3-0.2-0.7 0.2-0.4 0.4z"/><path class="j" d="m23.4 88.6c0.5 0.6 1.1 1.3 1.1 2.1-0.1 0.8-0.8 1.3-1.5 1.5-0.8 0.2-1.6 0.1-2.4-0.1q-1.2-0.3-2.2-1c-0.3-0.2-0.6 0.3-0.3 0.5 1.2 0.8 2.7 1.3 4.2 1.3 0.7-0.1 1.4-0.2 2-0.7 0.5-0.4 0.8-1.1 0.7-1.8-0.1-0.9-0.6-1.6-1.2-2.2-0.2-0.3-0.6 0.1-0.4 0.4z"/><path class="j" d="m28.5 89.2c0.3 0.7-0.1 1.7-0.8 2-0.5 0.2-1.1 0.3-1.6 0.4-0.6 0-1.2 0-1.7-0.2-0.4-0.1-0.5 0.5-0.2 0.6 0.7 0.2 1.4 0.2 2.1 0.1 0.6-0.1 1.3-0.2 1.9-0.5 0.9-0.6 1.2-1.8 0.8-2.7-0.1-0.2-0.3-0.2-0.4-0.1-0.1 0-0.2 0.2-0.1 0.4z"/><path class="j" d="m84.9 11.4q1.6-1.2 3.3-2.4c0.1-0.1 0.3-0.3 0.5-0.4 0.1-0.1 0.2-0.3 0.1-0.4-0.1-0.1-0.3-0.1-0.4-0.1q-0.3 0.2-0.5 0.4-0.4 0.3-0.9 0.6-1 0.8-2 1.5-0.2 0.2-0.4 0.4c-0.3 0.2 0 0.7 0.3 0.4z"/><path class="j" d="m90.4 14q-2.3 0.5-4.6 1c-0.3 0.1-0.3 0.6 0.1 0.6q2.4-0.5 4.7-1.1c0.4-0.1 0.2-0.6-0.2-0.5z"/><path class="j" d="m90.5 20.8q-2.1-0.8-4.1-1.6c-0.4-0.1-0.6 0.4-0.3 0.5q2.1 0.8 4.2 1.6c0.3 0.1 0.5-0.4 0.2-0.5z"/><path class="f" d="m96.3 79.9c0.1 0.3 0.5 0.4 0.8 0.5 3.9 0.1 7.8 0.2 11.6-0.3 2-0.2 9.9-0.5 8.3-4.2-3.9-9.1-11.8-19.2-13-20.6q-0.6-0.7-1.2-1.5c-0.2-0.3-0.6 0.1-0.4 0.4q-0.1 0.1-0.1 0.2c-0.1 2.2-1.9 3.9-3.6 4.9-1.8 1-3.9 1.5-6 1.4-1.1 0-2.8-0.2-3.9-0.6-0.1-0.1-0.3-0.1-0.4 0.1 0 0.1 3.7 9.8 5.5 14.4 0.7 1.6 1.2 3.2 2 4.7q0.2 0.3 0.4 0.6z"/><path fill-rule="evenodd" d="m102.1 80.7q-2.6 0-5-0.2c-0.4 0-0.8-0.2-1-0.5q-0.2-0.3-0.4-0.6c-0.6-1.1-1-2.3-1.5-3.5q-0.2-0.6-0.4-1.3c-1-2.3-2.3-5.8-3.5-8.8-2.1-5.6-2.1-5.6-2-5.7 0.1-0.2 0.4-0.3 0.6-0.2 1 0.4 2.6 0.6 3.8 0.6 2.1 0.1 4.2-0.4 5.9-1.4 1-0.6 3.4-2.2 3.5-4.7q0-0.1 0.1-0.2c-0.1-0.2 0-0.5 0.2-0.6 0.2-0.1 0.4-0.1 0.6 0.1l1.2 1.5c2.1 2.7 9.3 12 12.9 20.6q0.5 1.1 0 2c-1.1 1.8-5.3 2.2-7.6 2.4q-0.4 0.1-0.7 0.1c-2.3 0.3-4.5 0.4-6.7 0.4zm-5.7-0.9c0.2 0.2 0.4 0.4 0.7 0.4 3.7 0.1 7.7 0.2 11.6-0.3q0.3 0 0.8 0c2-0.2 6.3-0.6 7.3-2.3q0.4-0.7 0-1.7c-3.7-8.7-11.4-18.6-12.9-20.5l-1.2-1.5q0 0-0.1 0c0 0-0.1 0.1 0 0.2l0.1 0.1-0.2 0.2q0 0 0 0c-0.2 2.7-2.7 4.4-3.7 5.1-1.8 1-4 1.5-6.1 1.4-1.4-0.1-2.9-0.2-3.9-0.7q-0.1 0-0.2 0c0.3 1 3.7 9.8 5.5 14.3q0.2 0.6 0.5 1.3c0.4 1.1 0.9 2.3 1.5 3.4q0.1 0.3 0.3 0.6z"/><path class="j" d="m39.7 17.7c0.9-0.8 2-1.4 3.2-1.5 0.1 0 0.2-0.2 0.2-0.4-0.1-0.1-0.2-0.2-0.4-0.2-1.3 0.2-2.5 0.8-3.4 1.7-0.3 0.3 0.1 0.7 0.4 0.4z"/><path class="k" d="m98 79.8c-0.4-0.3-0.9-0.7-1.4-0.7-1.1 0.1-2.7 0.1-3.4 0.2q-5.2 0.4-10.4 1.4c-6.9 1.2-13.7 3.1-20.2 5.5q-2.5 0.9-4.9 2c-0.7 0.3-1.5 0.6-2.4 0.8-0.8 0.2-1.7 0.1-2.6-0.1-1.8-0.4-3.6-0.9-5.4-1.4q-2.7-0.8-5.4-1.5-5.5-1.5-11-3c-3.5-1-7-2-10.7-2.7-3.5-0.6-7.1-0.9-10.7-1q-1.4 0-2.7-0.1c-0.9 0-1.8-0.1-2.6 0-0.9 0.1-1.9 0.5-2 1.4-0.1 0.3 0.2 0.7 0.5 0.8 2.9 0.9 18 7.3 19.9 7.8q0.2 0.1 0.4 0.1c3.7 0.8 27 2.9 30.4 3.5q0.2 0.1 0.4 0.1c0.5 0.6 2.5 1.6 3.3 1.6 1.6-0.1 2.9-0.5 3.6-1.8q0.1 0 0.1 0c4.8-1.8 34.3-10.1 36.9-10.4 0.6-0.1 0.9-2 0.3-2.5z"/><path class="f" d="m93.6 77c-1.2-0.9-2.6-0.6-3.9-0.5-1.7 0.1-18.3 1.5-21.8 2.3-3.5 0.7-6.3 2-9.7 3.1-2.5 0.8-5.1 1.8-7.2 3.4-0.3 0.3 0.4-0.3-0.4-0.6-2.4-1.1-20.9-8.3-38.9-8.1q-1.1 0-2.1 0.1c-0.9 0.1-2.3 0.2-2.9 0.8-0.2 0.3-1.8 1.6-1.3 1.7 0 0 13.4 5.1 17.5 7.3 0 0 14.5 0.7 28.1 3.6 1.5 0.3 2.9 0.8 4.4 1 1.4 0.2 2.8 0 4.1-0.4 2.8-0.8 5.6-1.8 8.4-2.6q4.3-1.3 8.6-2.4c5.2-1.4 12.5-3.6 18.1-4.9 0.7-0.2 1.1-1 0.7-1.6-0.6-0.9-1.4-2-1.7-2.2z"/><path class="j" d="m43.9 81.4c2 0.9 4 2.1 6 3.2q2.8 1.7 5.6 3.4 0.6 0.4 1.2 0.8c0.3 0.2 0.6-0.3 0.3-0.5q-1.7-1.1-3.4-2.1c-2.1-1.3-4.2-2.6-6.4-3.8-1-0.5-2.1-1.1-3.2-1.5-0.3-0.2-0.5 0.4-0.1 0.5z"/><path class="j" d="m57.3 89c4.2-2.8 8.8-5 13.6-6.8 4.7-1.8 9.7-3.2 14.7-4.1q4-0.7 8-0.9c0.4 0 0.4-0.5 0-0.5-4.9 0.1-9.8 1-14.6 2.2-5 1.4-9.9 3.2-14.6 5.5q-3.8 1.8-7.4 4.1c-0.3 0.2 0 0.7 0.3 0.5z"/><path class="j" d="m57 88.6c-4.6-1.7-9.3-3.2-14.1-4.3q-5.4-1.2-10.9-1.8-3.5-0.4-7-0.5-1-0.1-2-0.1-0.1 0-0.3 0-0.1 0-0.1-0.1c-0.1 0 0 0.1 0 0q-0.1 0-0.1 0c-0.4 0-0.7-0.2-1.1-0.4-1.5-0.6-3-1.3-4.5-1.9-2.2-0.8-4.4-1.5-6.7-1.9q-0.8-0.2-1.7-0.3c-0.2 0-0.3 0.2-0.3 0.3 0 0.2 0.1 0.3 0.3 0.3 4.2 0.5 8.1 2.1 12 3.7 0.7 0.4 1.4 0.8 2.2 0.8q0.9 0.1 1.7 0.1 3.3 0.1 6.5 0.4 5.2 0.6 10.4 1.6c4.6 1 9.2 2.4 13.7 4q0.9 0.3 1.9 0.6c0.3 0.2 0.5-0.4 0.1-0.5z"/><path class="j" d="m3.3 80.3c1.3 0.2 2.5 0.7 3.8 1.1q2.5 1 4.9 2.1c2.9 1.3 5.7 2.6 8.6 3.9 0.6 0.2 1.1 0.5 1.7 0.6q0.9 0.2 1.9 0.3 3.5 0.5 7 0.9c6.1 0.7 12.2 1.4 18.3 2.4 1.9 0.3 3.9 0.5 5.7 1.2 0.2 0 0.3 0.1 0.5 0.2 0.2 0.1 0.6 0.3 0.9 0.4 0.5 0 1-0.1 1.5-0.3 0.4-0.2 0.7-0.6 1.1-0.9 0.5-0.5 1.3-0.6 1.9-0.8 1.4-0.3 2.7-0.8 4.1-1.1 5.6-1.7 11.1-3.6 16.8-5.1 2.5-0.6 5-1.1 7.5-1.7q3-0.8 6-1.7 0.6-0.2 1.2-0.4c0.4-0.1 0.2-0.6-0.1-0.5-3.6 1-7.2 2.1-10.8 2.8-5.7 1.2-11.1 3-16.6 4.8-2.8 0.8-5.5 1.7-8.2 2.4-0.6 0.1-1.2 0.2-1.7 0.5-0.5 0.3-0.8 0.7-1.2 1-0.4 0.3-1.1 0.5-1.7 0.3-0.2 0-0.3-0.2-0.5-0.3-0.5-0.2-1.1-0.4-1.7-0.5q-1.5-0.3-3-0.6c-5.9-1-11.9-1.7-17.8-2.4q-3.9-0.5-7.9-1-1.2-0.1-2.4-0.3c-0.4-0.1-0.8-0.1-1.2-0.3-1-0.4-2-0.8-3-1.3q-2.2-1-4.4-2.1c-3.1-1.3-6.2-2.8-9.4-3.8q-0.8-0.2-1.6-0.4c-0.4-0.1-0.6 0.5-0.2 0.6z"/><path class="j" d="m52.3 85.6c2.1-1.2 4.1-2.5 6.3-3.5 2.3-1.2 4.7-2.2 7.3-2.9q2.6-0.7 5.2-1.1c0.4 0 0.2-0.6-0.1-0.5-3 0.4-6 1.1-8.8 2.2-2.3 0.9-4.5 2-6.6 3.2q-1.8 1-3.6 2.1c-0.3 0.2 0 0.7 0.3 0.5z"/><path class="j" d="m92.2 76.8c0.3 0 0.7 0 1 0.1 0.3 0.2 0.5 0.4 0.7 0.7q0.7 0.8 1.2 1.8c0.1 0.3 0.6 0 0.5-0.3q-0.6-1.1-1.4-2c-0.2-0.3-0.5-0.5-0.8-0.7-0.4-0.2-0.8-0.2-1.2-0.2-0.4 0-0.4 0.5 0 0.6z"/><path class="f" d="m20.8 73.8c-0.3-0.2-4.5 0.3-6.8 0.8-0.3 0.1-0.5 0.3-0.5 0.6q-0.9-0.2-1.7-0.5c-1-0.2-1.4 1.2-0.5 1.5 1.8 0.5 3.4 1.1 5 1.9 1.4 0.8 2.9 1.3 4.5 1.2 1.3 0 2.8-0.3 3.1-1.7 0.2-1.4 0-2-3.1-3.8z"/><path class="j" d="m23 78.4c-0.6 0.4-1.4 0.5-2.1 0.6q-1.2 0-2.4-0.3c-1.7-0.6-3.2-1.7-4.8-2.4-0.9-0.5-1.8-0.8-2.9-0.9-0.3 0-0.3 0.6 0 0.6 1.9 0.2 3.5 1.2 5.1 2.1 0.8 0.4 1.6 0.9 2.5 1.1q1.2 0.4 2.4 0.3c0.9 0 1.8-0.1 2.5-0.6 0.3-0.2 0-0.7-0.3-0.5z"/><path class="j" d="m5.8 79.3c0.3-0.6 0.6-1.2 1.1-1.6 0.6-0.4 1.4-0.5 2.1-0.5q2.4-0.4 4.8-0.2c0.4 0 0.4-0.5 0-0.6q-2.6-0.2-5.1 0.2c-0.8 0.1-1.6 0.2-2.2 0.7-0.6 0.4-0.9 1.1-1.2 1.7-0.2 0.3 0.3 0.6 0.5 0.3z"/><path class="l" d="m40.4 31.1c-1.4 1.9-2.9 4-5.1 5.1-2.5 1.2-5.4 0.8-8.1 1-2.3 0.2-4.6 1.1-6.3 2.7-1.6 1.4-2.6 3.5-2.5 5.6 0.1 2.3 1.2 4.6 3.3 5.7 0.3 0.1 0.6-0.4 0.3-0.5-1.8-0.9-2.8-2.8-3-4.8-0.2-2.1 0.7-4.1 2.2-5.5 1.7-1.6 3.9-2.4 6.2-2.6 2.6-0.2 5.3 0.1 7.8-0.9 2.5-1.1 4.2-3.4 5.7-5.5 0.3-0.3-0.2-0.6-0.5-0.3z"/><path class="l" d="m31.6 39.9c-1.9 0.5-3.9 1-5.2 2.5-1.1 1.2-1.7 2.9-1.7 4.5q0 1.4 0.6 2.7c0.1 0.3 0.6 0 0.5-0.3-0.7-1.4-0.7-3-0.2-4.4 0.5-1.5 1.5-2.7 3-3.4 1-0.5 2.1-0.8 3.1-1 0.4-0.1 0.3-0.6-0.1-0.6z"/><path class="j" d="m56.3 91q0.2-0.8 0.9-1.5 0 0 0-0.1c0 0 0 0 0 0 0 0 0 0 0 0 0 0 0.1 0.1 0.1 0.1 0 0.1 0.1 0.2 0.2 0.3q0.3 0.5 0.5 1c0.2 0.3 0.7 0 0.5-0.3q-0.3-0.6-0.6-1.1c-0.1-0.2-0.2-0.4-0.4-0.5-0.2-0.1-0.4-0.1-0.6 0.1-0.2 0.1-0.3 0.2-0.4 0.4q-0.2 0.2-0.3 0.4-0.3 0.5-0.4 1.1c-0.1 0.3 0.4 0.5 0.5 0.1z"/><path class="k" d="m41.6 80.8c-0.3-1.5 0.4-3 0.1-4.4q-0.2-0.7-0.6-1.2c-0.6-0.6-1.8-1.3-2.3-0.3-0.5 0.8-0.3 1.9-0.9 2.6-1.2 1.4-2.8 0.9-2.9-0.8 0-0.8 0-1.6 0-2.3-0.1-0.7-0.2-1.5-0.7-2-0.4-0.5-1.2-0.6-1.7-0.1-0.5 0.5-0.6 1.3-0.8 1.9q-0.3 1.4-0.3 2.8-0.1 0.7 0 1.4 0 0 0 0.1-0.3 0-0.6-0.2c-0.5-0.5-0.5-1.2-0.6-1.8-0.1-0.7-0.3-1.3-0.8-1.8-0.5-0.4-1.2-0.5-1.8-0.1-0.7 0.4-1 1.2-1.1 2-0.1 0.6-0.4 1.6-0.3 2.3 0.3 1.1 1.8 1 2.7 1.1 1.5 0.1 2.9 0.5 4.3 0.8 2.3 0.5 4.5 1.3 6.7 1.5 0.4 0.1 0.9 0.1 1.3-0.2 0.4-0.3 0.4-0.6 0.4-1q-0.1-0.2-0.1-0.3z"/><path class="k" d="m69.8 78.6c-0.2-0.5-0.4-1-0.6-1.2-0.3-0.3-0.9-0.4-1.2 0-0.4 0.2-0.4 0.7-0.4 1.1 0.1 1.5-0.7 2.4 1.5 2q0.2 0 0.4-0.1c0.4-0.3 0.4-1.1 0.3-1.8z"/><path class="k" d="m41.7 70.5c-0.2-0.3-0.6-0.6-1-0.6-0.4 0-0.7 0.4-0.8 0.8-0.2 0.3-0.2 0.7-0.2 1.1-0.1 0.8 0.6 1.7 1.5 1.2 0.8-0.4 0.9-1.8 0.5-2.5z"/><path class="m" d="m34.6 17.2l2.7 2.5c0 0 6.1-5.1 11.3-3.5 5.3 1.6 9.1 4.9 9.1 4.9l-1-6.7-9-0.6-8.1 1.2-1.4 1.5z"/><path  d="m64.4 14.3c0 0.3-1.9 2.2-4 4-2.4 2-5.5-3.3-5.8-3.3-0.5 0.1-15.2 0.8-15.2 0.8 0 0-3.3 4-6.2 1.3-1.8-1.6-3.3-3-3.4-3.3-0.3-0.8 13.6-11.7 16.3-13.7 0.3-0.2 0.6-0.2 0.9 0 2.7 2.1 17.4 13.4 17.4 14.2z"/><path class="m" d="m60.1 17.7c-0.3-0.8-0.7-1.8-1.4-2.4-0.8-0.9-2.2-1.3-3.3-1.7-2.8-1.2-5.6-1.9-8.6-2.3-1.7-0.2-3.4-0.4-5.1-0.6-1.1 0-2 0-2.8 0.7q0 0 0 0c-1.8 0.7-3.2 2.1-4.4 3.6-0.5 0.6-1 1.4-1.3 2.1q0.7 0.7 1.5 0.8c2.4 0.7 4.7-2.1 4.7-2.1 0 0 14.7-0.7 15.2-0.8 0.3 0 3.4 5.3 5.8 3.3q-0.2-0.3-0.3-0.6z"/><path  d="m36.1 17c0 0 2.7-4.3 10.9-4 8.1 0.3 10.1 4.7 10.1 4.7 0 0-0.5-5.4-0.9-6-0.5-0.6-2.7-3.9-9.5-3.4-6.8 0.5-9.3 3-9.7 4.3-0.5 1.3-0.9 4.4-0.9 4.4z"/><path class="m" d="m56.7 13.8q-0.2 0-0.3-0.2c0 0-2.7-4.9-10-5.1-5.9-0.1-9 3.8-9 3.8-0.1 0.1-0.3 0.1-0.4 0-0.2 0-0.2-0.2-0.1-0.4 0.2-0.1 3.3-4.1 9.5-3.9 7.6 0.2 10.5 5.3 10.5 5.3 0.1 0.2 0 0.4-0.1 0.4q-0.1 0.1-0.1 0.1z"/><path class="n" d="m36.3 13.3c0.2-0.1 0.3-0.4 0.3-0.7 0-0.4-0.3-0.8-0.7-0.8-0.1-1.1-0.2-2.9 0.3-3.9-0.2-0.2-0.7-0.1-0.8 0.7q0 0.1 0 0.3-0.2 1.5-0.1 3.1c-0.3 0.2-0.5 0.5-0.5 0.9q0.1 0.3 0.4 0.5c-0.4 0.7-0.7 1.5-0.6 2.3-0.1 0.2 0 0.4 0.2 0.4 0.5 0 1.9 0.2 2.1-0.4 0.1-0.3 0-0.7-0.1-1q-0.2-0.7-0.5-1.4z"/><path class="o" d="m36.6 15.1q-0.5-0.2-1-0.1c-0.3 0.1-0.6 0.1-0.9 0.3-0.3 0.3 0.1 0.7 0.4 0.5 0.3-0.2 0.9-0.3 1.3-0.2 0.3 0.1 0.6-0.4 0.2-0.5z"/><path class="o" d="m36.1 13q-0.4-0.1-0.8 0.1c-0.3 0.2-0.1 0.7 0.2 0.6 0.2-0.1 0.3-0.1 0.5-0.1 0.4 0.1 0.4-0.5 0.1-0.6z"/></g></svg>